G04 #@! TF.GenerationSoftware,KiCad,Pcbnew,(5.1.4)-1*
G04 #@! TF.CreationDate,2020-06-30T20:05:52+02:00*
G04 #@! TF.ProjectId,ReflowControllerREV1,5265666c-6f77-4436-9f6e-74726f6c6c65,rev?*
G04 #@! TF.SameCoordinates,Original*
G04 #@! TF.FileFunction,Soldermask,Bot*
G04 #@! TF.FilePolarity,Negative*
%FSLAX46Y46*%
G04 Gerber Fmt 4.6, Leading zero omitted, Abs format (unit mm)*
G04 Created by KiCad (PCBNEW (5.1.4)-1) date 2020-06-30 20:05:52*
%MOMM*%
%LPD*%
G04 APERTURE LIST*
%ADD10C,0.100000*%
G04 APERTURE END LIST*
D10*
G36*
X246822882Y-130747062D02*
G01*
X246970841Y-130808349D01*
X247103995Y-130897319D01*
X247217241Y-131010565D01*
X247306211Y-131143719D01*
X247367498Y-131291678D01*
X247398740Y-131448745D01*
X247398740Y-131608895D01*
X247367498Y-131765962D01*
X247306211Y-131913921D01*
X247217241Y-132047075D01*
X247103995Y-132160321D01*
X246970841Y-132249291D01*
X246822882Y-132310578D01*
X246665815Y-132341820D01*
X246505665Y-132341820D01*
X246348598Y-132310578D01*
X246200639Y-132249291D01*
X246067485Y-132160321D01*
X245954239Y-132047075D01*
X245865269Y-131913921D01*
X245803982Y-131765962D01*
X245772740Y-131608895D01*
X245772740Y-131448745D01*
X245803982Y-131291678D01*
X245865269Y-131143719D01*
X245954239Y-131010565D01*
X246067485Y-130897319D01*
X246200639Y-130808349D01*
X246348598Y-130747062D01*
X246505665Y-130715820D01*
X246665815Y-130715820D01*
X246822882Y-130747062D01*
X246822882Y-130747062D01*
G37*
G36*
X207430823Y-125653313D02*
G01*
X207591242Y-125701976D01*
X207640582Y-125728349D01*
X207739078Y-125780996D01*
X207868659Y-125887341D01*
X207975004Y-126016922D01*
X207975005Y-126016924D01*
X208054024Y-126164758D01*
X208102687Y-126325177D01*
X208119117Y-126492000D01*
X208102687Y-126658823D01*
X208054024Y-126819242D01*
X207983114Y-126951906D01*
X207975004Y-126967078D01*
X207868659Y-127096659D01*
X207739078Y-127203004D01*
X207739076Y-127203005D01*
X207591242Y-127282024D01*
X207430823Y-127330687D01*
X207305804Y-127343000D01*
X207222196Y-127343000D01*
X207097177Y-127330687D01*
X206936758Y-127282024D01*
X206788924Y-127203005D01*
X206788922Y-127203004D01*
X206659341Y-127096659D01*
X206552996Y-126967078D01*
X206544886Y-126951906D01*
X206473976Y-126819242D01*
X206425313Y-126658823D01*
X206408883Y-126492000D01*
X206425313Y-126325177D01*
X206473976Y-126164758D01*
X206552995Y-126016924D01*
X206552996Y-126016922D01*
X206659341Y-125887341D01*
X206788922Y-125780996D01*
X206887418Y-125728349D01*
X206936758Y-125701976D01*
X207097177Y-125653313D01*
X207222196Y-125641000D01*
X207305804Y-125641000D01*
X207430823Y-125653313D01*
X207430823Y-125653313D01*
G37*
G36*
X192190823Y-125653313D02*
G01*
X192351242Y-125701976D01*
X192400582Y-125728349D01*
X192499078Y-125780996D01*
X192628659Y-125887341D01*
X192735004Y-126016922D01*
X192735005Y-126016924D01*
X192814024Y-126164758D01*
X192862687Y-126325177D01*
X192879117Y-126492000D01*
X192862687Y-126658823D01*
X192814024Y-126819242D01*
X192743114Y-126951906D01*
X192735004Y-126967078D01*
X192628659Y-127096659D01*
X192499078Y-127203004D01*
X192499076Y-127203005D01*
X192351242Y-127282024D01*
X192190823Y-127330687D01*
X192065804Y-127343000D01*
X191982196Y-127343000D01*
X191857177Y-127330687D01*
X191696758Y-127282024D01*
X191548924Y-127203005D01*
X191548922Y-127203004D01*
X191419341Y-127096659D01*
X191312996Y-126967078D01*
X191304886Y-126951906D01*
X191233976Y-126819242D01*
X191185313Y-126658823D01*
X191168883Y-126492000D01*
X191185313Y-126325177D01*
X191233976Y-126164758D01*
X191312995Y-126016924D01*
X191312996Y-126016922D01*
X191419341Y-125887341D01*
X191548922Y-125780996D01*
X191647418Y-125728349D01*
X191696758Y-125701976D01*
X191857177Y-125653313D01*
X191982196Y-125641000D01*
X192065804Y-125641000D01*
X192190823Y-125653313D01*
X192190823Y-125653313D01*
G37*
G36*
X246822882Y-125667062D02*
G01*
X246970841Y-125728349D01*
X247103995Y-125817319D01*
X247217241Y-125930565D01*
X247306211Y-126063719D01*
X247367498Y-126211678D01*
X247398740Y-126368745D01*
X247398740Y-126528895D01*
X247367498Y-126685962D01*
X247306211Y-126833921D01*
X247217241Y-126967075D01*
X247103995Y-127080321D01*
X246970841Y-127169291D01*
X246822882Y-127230578D01*
X246665815Y-127261820D01*
X246505665Y-127261820D01*
X246348598Y-127230578D01*
X246200639Y-127169291D01*
X246067485Y-127080321D01*
X245954239Y-126967075D01*
X245865269Y-126833921D01*
X245803982Y-126685962D01*
X245772740Y-126528895D01*
X245772740Y-126368745D01*
X245803982Y-126211678D01*
X245865269Y-126063719D01*
X245954239Y-125930565D01*
X246067485Y-125817319D01*
X246200639Y-125728349D01*
X246348598Y-125667062D01*
X246505665Y-125635820D01*
X246665815Y-125635820D01*
X246822882Y-125667062D01*
X246822882Y-125667062D01*
G37*
G36*
X220914882Y-125667062D02*
G01*
X221062841Y-125728349D01*
X221195995Y-125817319D01*
X221309241Y-125930565D01*
X221398211Y-126063719D01*
X221459498Y-126211678D01*
X221490740Y-126368745D01*
X221490740Y-126528895D01*
X221459498Y-126685962D01*
X221398211Y-126833921D01*
X221309241Y-126967075D01*
X221195995Y-127080321D01*
X221062841Y-127169291D01*
X220914882Y-127230578D01*
X220757815Y-127261820D01*
X220597665Y-127261820D01*
X220440598Y-127230578D01*
X220292639Y-127169291D01*
X220159485Y-127080321D01*
X220046239Y-126967075D01*
X219957269Y-126833921D01*
X219895982Y-126685962D01*
X219864740Y-126528895D01*
X219864740Y-126368745D01*
X219895982Y-126211678D01*
X219957269Y-126063719D01*
X220046239Y-125930565D01*
X220159485Y-125817319D01*
X220292639Y-125728349D01*
X220440598Y-125667062D01*
X220597665Y-125635820D01*
X220757815Y-125635820D01*
X220914882Y-125667062D01*
X220914882Y-125667062D01*
G37*
G36*
X207430823Y-123113313D02*
G01*
X207591242Y-123161976D01*
X207723906Y-123232886D01*
X207739078Y-123240996D01*
X207868659Y-123347341D01*
X207975004Y-123476922D01*
X207975005Y-123476924D01*
X208054024Y-123624758D01*
X208102687Y-123785177D01*
X208119117Y-123952000D01*
X208102687Y-124118823D01*
X208054024Y-124279242D01*
X207983114Y-124411906D01*
X207975004Y-124427078D01*
X207868659Y-124556659D01*
X207739078Y-124663004D01*
X207739076Y-124663005D01*
X207591242Y-124742024D01*
X207430823Y-124790687D01*
X207305804Y-124803000D01*
X207222196Y-124803000D01*
X207097177Y-124790687D01*
X206936758Y-124742024D01*
X206788924Y-124663005D01*
X206788922Y-124663004D01*
X206659341Y-124556659D01*
X206552996Y-124427078D01*
X206544886Y-124411906D01*
X206473976Y-124279242D01*
X206425313Y-124118823D01*
X206408883Y-123952000D01*
X206425313Y-123785177D01*
X206473976Y-123624758D01*
X206552995Y-123476924D01*
X206552996Y-123476922D01*
X206659341Y-123347341D01*
X206788922Y-123240996D01*
X206804094Y-123232886D01*
X206936758Y-123161976D01*
X207097177Y-123113313D01*
X207222196Y-123101000D01*
X207305804Y-123101000D01*
X207430823Y-123113313D01*
X207430823Y-123113313D01*
G37*
G36*
X192190823Y-123113313D02*
G01*
X192351242Y-123161976D01*
X192483906Y-123232886D01*
X192499078Y-123240996D01*
X192628659Y-123347341D01*
X192735004Y-123476922D01*
X192735005Y-123476924D01*
X192814024Y-123624758D01*
X192862687Y-123785177D01*
X192879117Y-123952000D01*
X192862687Y-124118823D01*
X192814024Y-124279242D01*
X192743114Y-124411906D01*
X192735004Y-124427078D01*
X192628659Y-124556659D01*
X192499078Y-124663004D01*
X192499076Y-124663005D01*
X192351242Y-124742024D01*
X192190823Y-124790687D01*
X192065804Y-124803000D01*
X191982196Y-124803000D01*
X191857177Y-124790687D01*
X191696758Y-124742024D01*
X191548924Y-124663005D01*
X191548922Y-124663004D01*
X191419341Y-124556659D01*
X191312996Y-124427078D01*
X191304886Y-124411906D01*
X191233976Y-124279242D01*
X191185313Y-124118823D01*
X191168883Y-123952000D01*
X191185313Y-123785177D01*
X191233976Y-123624758D01*
X191312995Y-123476924D01*
X191312996Y-123476922D01*
X191419341Y-123347341D01*
X191548922Y-123240996D01*
X191564094Y-123232886D01*
X191696758Y-123161976D01*
X191857177Y-123113313D01*
X191982196Y-123101000D01*
X192065804Y-123101000D01*
X192190823Y-123113313D01*
X192190823Y-123113313D01*
G37*
G36*
X196923674Y-122443465D02*
G01*
X196961367Y-122454899D01*
X196996103Y-122473466D01*
X197026548Y-122498452D01*
X197051534Y-122528897D01*
X197070101Y-122563633D01*
X197081535Y-122601326D01*
X197086000Y-122646661D01*
X197086000Y-123733339D01*
X197081535Y-123778674D01*
X197070101Y-123816367D01*
X197051534Y-123851103D01*
X197026548Y-123881548D01*
X196996103Y-123906534D01*
X196961367Y-123925101D01*
X196923674Y-123936535D01*
X196878339Y-123941000D01*
X196041661Y-123941000D01*
X195996326Y-123936535D01*
X195958633Y-123925101D01*
X195923897Y-123906534D01*
X195893452Y-123881548D01*
X195868466Y-123851103D01*
X195849899Y-123816367D01*
X195838465Y-123778674D01*
X195834000Y-123733339D01*
X195834000Y-122646661D01*
X195838465Y-122601326D01*
X195849899Y-122563633D01*
X195868466Y-122528897D01*
X195893452Y-122498452D01*
X195923897Y-122473466D01*
X195958633Y-122454899D01*
X195996326Y-122443465D01*
X196041661Y-122439000D01*
X196878339Y-122439000D01*
X196923674Y-122443465D01*
X196923674Y-122443465D01*
G37*
G36*
X198973674Y-122443465D02*
G01*
X199011367Y-122454899D01*
X199046103Y-122473466D01*
X199076548Y-122498452D01*
X199101534Y-122528897D01*
X199120101Y-122563633D01*
X199131535Y-122601326D01*
X199136000Y-122646661D01*
X199136000Y-123733339D01*
X199131535Y-123778674D01*
X199120101Y-123816367D01*
X199101534Y-123851103D01*
X199076548Y-123881548D01*
X199046103Y-123906534D01*
X199011367Y-123925101D01*
X198973674Y-123936535D01*
X198928339Y-123941000D01*
X198091661Y-123941000D01*
X198046326Y-123936535D01*
X198008633Y-123925101D01*
X197973897Y-123906534D01*
X197943452Y-123881548D01*
X197918466Y-123851103D01*
X197899899Y-123816367D01*
X197888465Y-123778674D01*
X197884000Y-123733339D01*
X197884000Y-122646661D01*
X197888465Y-122601326D01*
X197899899Y-122563633D01*
X197918466Y-122528897D01*
X197943452Y-122498452D01*
X197973897Y-122473466D01*
X198008633Y-122454899D01*
X198046326Y-122443465D01*
X198091661Y-122439000D01*
X198928339Y-122439000D01*
X198973674Y-122443465D01*
X198973674Y-122443465D01*
G37*
G36*
X186321000Y-122821000D02*
G01*
X184519000Y-122821000D01*
X184519000Y-121019000D01*
X186321000Y-121019000D01*
X186321000Y-122821000D01*
X186321000Y-122821000D01*
G37*
G36*
X207430823Y-120573313D02*
G01*
X207591242Y-120621976D01*
X207640582Y-120648349D01*
X207739078Y-120700996D01*
X207868659Y-120807341D01*
X207975004Y-120936922D01*
X207975005Y-120936924D01*
X208054024Y-121084758D01*
X208102687Y-121245177D01*
X208119117Y-121412000D01*
X208102687Y-121578823D01*
X208054024Y-121739242D01*
X207983114Y-121871906D01*
X207975004Y-121887078D01*
X207868659Y-122016659D01*
X207739078Y-122123004D01*
X207739076Y-122123005D01*
X207591242Y-122202024D01*
X207430823Y-122250687D01*
X207305804Y-122263000D01*
X207222196Y-122263000D01*
X207097177Y-122250687D01*
X206936758Y-122202024D01*
X206788924Y-122123005D01*
X206788922Y-122123004D01*
X206659341Y-122016659D01*
X206552996Y-121887078D01*
X206544886Y-121871906D01*
X206473976Y-121739242D01*
X206425313Y-121578823D01*
X206408883Y-121412000D01*
X206425313Y-121245177D01*
X206473976Y-121084758D01*
X206552995Y-120936924D01*
X206552996Y-120936922D01*
X206659341Y-120807341D01*
X206788922Y-120700996D01*
X206887418Y-120648349D01*
X206936758Y-120621976D01*
X207097177Y-120573313D01*
X207222196Y-120561000D01*
X207305804Y-120561000D01*
X207430823Y-120573313D01*
X207430823Y-120573313D01*
G37*
G36*
X192190823Y-120573313D02*
G01*
X192351242Y-120621976D01*
X192400582Y-120648349D01*
X192499078Y-120700996D01*
X192628659Y-120807341D01*
X192735004Y-120936922D01*
X192735005Y-120936924D01*
X192814024Y-121084758D01*
X192862687Y-121245177D01*
X192879117Y-121412000D01*
X192862687Y-121578823D01*
X192814024Y-121739242D01*
X192743114Y-121871906D01*
X192735004Y-121887078D01*
X192628659Y-122016659D01*
X192499078Y-122123004D01*
X192499076Y-122123005D01*
X192351242Y-122202024D01*
X192190823Y-122250687D01*
X192065804Y-122263000D01*
X191982196Y-122263000D01*
X191857177Y-122250687D01*
X191696758Y-122202024D01*
X191548924Y-122123005D01*
X191548922Y-122123004D01*
X191419341Y-122016659D01*
X191312996Y-121887078D01*
X191304886Y-121871906D01*
X191233976Y-121739242D01*
X191185313Y-121578823D01*
X191168883Y-121412000D01*
X191185313Y-121245177D01*
X191233976Y-121084758D01*
X191312995Y-120936924D01*
X191312996Y-120936922D01*
X191419341Y-120807341D01*
X191548922Y-120700996D01*
X191647418Y-120648349D01*
X191696758Y-120621976D01*
X191857177Y-120573313D01*
X191982196Y-120561000D01*
X192065804Y-120561000D01*
X192190823Y-120573313D01*
X192190823Y-120573313D01*
G37*
G36*
X220914882Y-120587062D02*
G01*
X221062841Y-120648349D01*
X221195995Y-120737319D01*
X221309241Y-120850565D01*
X221398211Y-120983719D01*
X221459498Y-121131678D01*
X221490740Y-121288745D01*
X221490740Y-121448895D01*
X221459498Y-121605962D01*
X221398211Y-121753921D01*
X221309241Y-121887075D01*
X221195995Y-122000321D01*
X221062841Y-122089291D01*
X220914882Y-122150578D01*
X220757815Y-122181820D01*
X220597665Y-122181820D01*
X220440598Y-122150578D01*
X220292639Y-122089291D01*
X220159485Y-122000321D01*
X220046239Y-121887075D01*
X219957269Y-121753921D01*
X219895982Y-121605962D01*
X219864740Y-121448895D01*
X219864740Y-121288745D01*
X219895982Y-121131678D01*
X219957269Y-120983719D01*
X220046239Y-120850565D01*
X220159485Y-120737319D01*
X220292639Y-120648349D01*
X220440598Y-120587062D01*
X220597665Y-120555820D01*
X220757815Y-120555820D01*
X220914882Y-120587062D01*
X220914882Y-120587062D01*
G37*
G36*
X185530442Y-118485518D02*
G01*
X185596627Y-118492037D01*
X185766466Y-118543557D01*
X185922991Y-118627222D01*
X185958729Y-118656552D01*
X186060186Y-118739814D01*
X186143448Y-118841271D01*
X186172778Y-118877009D01*
X186256443Y-119033534D01*
X186307963Y-119203373D01*
X186325359Y-119380000D01*
X186307963Y-119556627D01*
X186256443Y-119726466D01*
X186172778Y-119882991D01*
X186143448Y-119918729D01*
X186060186Y-120020186D01*
X185958729Y-120103448D01*
X185922991Y-120132778D01*
X185766466Y-120216443D01*
X185596627Y-120267963D01*
X185530442Y-120274482D01*
X185464260Y-120281000D01*
X185375740Y-120281000D01*
X185309558Y-120274482D01*
X185243373Y-120267963D01*
X185073534Y-120216443D01*
X184917009Y-120132778D01*
X184881271Y-120103448D01*
X184779814Y-120020186D01*
X184696552Y-119918729D01*
X184667222Y-119882991D01*
X184583557Y-119726466D01*
X184532037Y-119556627D01*
X184514641Y-119380000D01*
X184532037Y-119203373D01*
X184583557Y-119033534D01*
X184667222Y-118877009D01*
X184696552Y-118841271D01*
X184779814Y-118739814D01*
X184881271Y-118656552D01*
X184917009Y-118627222D01*
X185073534Y-118543557D01*
X185243373Y-118492037D01*
X185309558Y-118485518D01*
X185375740Y-118479000D01*
X185464260Y-118479000D01*
X185530442Y-118485518D01*
X185530442Y-118485518D01*
G37*
G36*
X207430823Y-118033313D02*
G01*
X207591242Y-118081976D01*
X207723906Y-118152886D01*
X207739078Y-118160996D01*
X207868659Y-118267341D01*
X207975004Y-118396922D01*
X207975005Y-118396924D01*
X208054024Y-118544758D01*
X208102687Y-118705177D01*
X208119117Y-118872000D01*
X208102687Y-119038823D01*
X208054024Y-119199242D01*
X207983114Y-119331906D01*
X207975004Y-119347078D01*
X207868659Y-119476659D01*
X207739078Y-119583004D01*
X207739076Y-119583005D01*
X207591242Y-119662024D01*
X207430823Y-119710687D01*
X207305804Y-119723000D01*
X207222196Y-119723000D01*
X207097177Y-119710687D01*
X206936758Y-119662024D01*
X206788924Y-119583005D01*
X206788922Y-119583004D01*
X206659341Y-119476659D01*
X206552996Y-119347078D01*
X206544886Y-119331906D01*
X206473976Y-119199242D01*
X206425313Y-119038823D01*
X206408883Y-118872000D01*
X206425313Y-118705177D01*
X206473976Y-118544758D01*
X206552995Y-118396924D01*
X206552996Y-118396922D01*
X206659341Y-118267341D01*
X206788922Y-118160996D01*
X206804094Y-118152886D01*
X206936758Y-118081976D01*
X207097177Y-118033313D01*
X207222196Y-118021000D01*
X207305804Y-118021000D01*
X207430823Y-118033313D01*
X207430823Y-118033313D01*
G37*
G36*
X192190823Y-118033313D02*
G01*
X192351242Y-118081976D01*
X192483906Y-118152886D01*
X192499078Y-118160996D01*
X192628659Y-118267341D01*
X192735004Y-118396922D01*
X192735005Y-118396924D01*
X192814024Y-118544758D01*
X192862687Y-118705177D01*
X192879117Y-118872000D01*
X192862687Y-119038823D01*
X192814024Y-119199242D01*
X192743114Y-119331906D01*
X192735004Y-119347078D01*
X192628659Y-119476659D01*
X192499078Y-119583004D01*
X192499076Y-119583005D01*
X192351242Y-119662024D01*
X192190823Y-119710687D01*
X192065804Y-119723000D01*
X191982196Y-119723000D01*
X191857177Y-119710687D01*
X191696758Y-119662024D01*
X191548924Y-119583005D01*
X191548922Y-119583004D01*
X191419341Y-119476659D01*
X191312996Y-119347078D01*
X191304886Y-119331906D01*
X191233976Y-119199242D01*
X191185313Y-119038823D01*
X191168883Y-118872000D01*
X191185313Y-118705177D01*
X191233976Y-118544758D01*
X191312995Y-118396924D01*
X191312996Y-118396922D01*
X191419341Y-118267341D01*
X191548922Y-118160996D01*
X191564094Y-118152886D01*
X191696758Y-118081976D01*
X191857177Y-118033313D01*
X191982196Y-118021000D01*
X192065804Y-118021000D01*
X192190823Y-118033313D01*
X192190823Y-118033313D01*
G37*
G36*
X185530442Y-115945518D02*
G01*
X185596627Y-115952037D01*
X185766466Y-116003557D01*
X185922991Y-116087222D01*
X185958729Y-116116552D01*
X186060186Y-116199814D01*
X186143448Y-116301271D01*
X186172778Y-116337009D01*
X186256443Y-116493534D01*
X186307963Y-116663373D01*
X186325359Y-116840000D01*
X186307963Y-117016627D01*
X186256443Y-117186466D01*
X186172778Y-117342991D01*
X186143448Y-117378729D01*
X186060186Y-117480186D01*
X185958729Y-117563448D01*
X185922991Y-117592778D01*
X185766466Y-117676443D01*
X185596627Y-117727963D01*
X185530442Y-117734482D01*
X185464260Y-117741000D01*
X185375740Y-117741000D01*
X185309558Y-117734482D01*
X185243373Y-117727963D01*
X185073534Y-117676443D01*
X184917009Y-117592778D01*
X184881271Y-117563448D01*
X184779814Y-117480186D01*
X184696552Y-117378729D01*
X184667222Y-117342991D01*
X184583557Y-117186466D01*
X184532037Y-117016627D01*
X184514641Y-116840000D01*
X184532037Y-116663373D01*
X184583557Y-116493534D01*
X184667222Y-116337009D01*
X184696552Y-116301271D01*
X184779814Y-116199814D01*
X184881271Y-116116552D01*
X184917009Y-116087222D01*
X185073534Y-116003557D01*
X185243373Y-115952037D01*
X185309558Y-115945518D01*
X185375740Y-115939000D01*
X185464260Y-115939000D01*
X185530442Y-115945518D01*
X185530442Y-115945518D01*
G37*
G36*
X192190823Y-115493313D02*
G01*
X192351242Y-115541976D01*
X192400582Y-115568349D01*
X192499078Y-115620996D01*
X192628659Y-115727341D01*
X192735004Y-115856922D01*
X192735005Y-115856924D01*
X192814024Y-116004758D01*
X192862687Y-116165177D01*
X192879117Y-116332000D01*
X192862687Y-116498823D01*
X192814024Y-116659242D01*
X192743114Y-116791906D01*
X192735004Y-116807078D01*
X192628659Y-116936659D01*
X192499078Y-117043004D01*
X192499076Y-117043005D01*
X192351242Y-117122024D01*
X192190823Y-117170687D01*
X192065804Y-117183000D01*
X191982196Y-117183000D01*
X191857177Y-117170687D01*
X191696758Y-117122024D01*
X191548924Y-117043005D01*
X191548922Y-117043004D01*
X191419341Y-116936659D01*
X191312996Y-116807078D01*
X191304886Y-116791906D01*
X191233976Y-116659242D01*
X191185313Y-116498823D01*
X191168883Y-116332000D01*
X191185313Y-116165177D01*
X191233976Y-116004758D01*
X191312995Y-115856924D01*
X191312996Y-115856922D01*
X191419341Y-115727341D01*
X191548922Y-115620996D01*
X191647418Y-115568349D01*
X191696758Y-115541976D01*
X191857177Y-115493313D01*
X191982196Y-115481000D01*
X192065804Y-115481000D01*
X192190823Y-115493313D01*
X192190823Y-115493313D01*
G37*
G36*
X207430823Y-115493313D02*
G01*
X207591242Y-115541976D01*
X207640582Y-115568349D01*
X207739078Y-115620996D01*
X207868659Y-115727341D01*
X207975004Y-115856922D01*
X207975005Y-115856924D01*
X208054024Y-116004758D01*
X208102687Y-116165177D01*
X208119117Y-116332000D01*
X208102687Y-116498823D01*
X208054024Y-116659242D01*
X207983114Y-116791906D01*
X207975004Y-116807078D01*
X207868659Y-116936659D01*
X207739078Y-117043004D01*
X207739076Y-117043005D01*
X207591242Y-117122024D01*
X207430823Y-117170687D01*
X207305804Y-117183000D01*
X207222196Y-117183000D01*
X207097177Y-117170687D01*
X206936758Y-117122024D01*
X206788924Y-117043005D01*
X206788922Y-117043004D01*
X206659341Y-116936659D01*
X206552996Y-116807078D01*
X206544886Y-116791906D01*
X206473976Y-116659242D01*
X206425313Y-116498823D01*
X206408883Y-116332000D01*
X206425313Y-116165177D01*
X206473976Y-116004758D01*
X206552995Y-115856924D01*
X206552996Y-115856922D01*
X206659341Y-115727341D01*
X206788922Y-115620996D01*
X206887418Y-115568349D01*
X206936758Y-115541976D01*
X207097177Y-115493313D01*
X207222196Y-115481000D01*
X207305804Y-115481000D01*
X207430823Y-115493313D01*
X207430823Y-115493313D01*
G37*
G36*
X220914882Y-115507062D02*
G01*
X221062841Y-115568349D01*
X221195995Y-115657319D01*
X221309241Y-115770565D01*
X221398211Y-115903719D01*
X221459498Y-116051678D01*
X221490740Y-116208745D01*
X221490740Y-116368895D01*
X221459498Y-116525962D01*
X221398211Y-116673921D01*
X221309241Y-116807075D01*
X221195995Y-116920321D01*
X221062841Y-117009291D01*
X220914882Y-117070578D01*
X220757815Y-117101820D01*
X220597665Y-117101820D01*
X220440598Y-117070578D01*
X220292639Y-117009291D01*
X220159485Y-116920321D01*
X220046239Y-116807075D01*
X219957269Y-116673921D01*
X219895982Y-116525962D01*
X219864740Y-116368895D01*
X219864740Y-116208745D01*
X219895982Y-116051678D01*
X219957269Y-115903719D01*
X220046239Y-115770565D01*
X220159485Y-115657319D01*
X220292639Y-115568349D01*
X220440598Y-115507062D01*
X220597665Y-115475820D01*
X220757815Y-115475820D01*
X220914882Y-115507062D01*
X220914882Y-115507062D01*
G37*
G36*
X185530443Y-113405519D02*
G01*
X185596627Y-113412037D01*
X185766466Y-113463557D01*
X185922991Y-113547222D01*
X185958729Y-113576552D01*
X186060186Y-113659814D01*
X186143448Y-113761271D01*
X186172778Y-113797009D01*
X186256443Y-113953534D01*
X186307963Y-114123373D01*
X186325359Y-114300000D01*
X186307963Y-114476627D01*
X186256443Y-114646466D01*
X186172778Y-114802991D01*
X186143448Y-114838729D01*
X186060186Y-114940186D01*
X185958729Y-115023448D01*
X185922991Y-115052778D01*
X185766466Y-115136443D01*
X185596627Y-115187963D01*
X185530442Y-115194482D01*
X185464260Y-115201000D01*
X185375740Y-115201000D01*
X185309558Y-115194482D01*
X185243373Y-115187963D01*
X185073534Y-115136443D01*
X184917009Y-115052778D01*
X184881271Y-115023448D01*
X184779814Y-114940186D01*
X184696552Y-114838729D01*
X184667222Y-114802991D01*
X184583557Y-114646466D01*
X184532037Y-114476627D01*
X184514641Y-114300000D01*
X184532037Y-114123373D01*
X184583557Y-113953534D01*
X184667222Y-113797009D01*
X184696552Y-113761271D01*
X184779814Y-113659814D01*
X184881271Y-113576552D01*
X184917009Y-113547222D01*
X185073534Y-113463557D01*
X185243373Y-113412037D01*
X185309557Y-113405519D01*
X185375740Y-113399000D01*
X185464260Y-113399000D01*
X185530443Y-113405519D01*
X185530443Y-113405519D01*
G37*
G36*
X192190823Y-112953313D02*
G01*
X192351242Y-113001976D01*
X192483906Y-113072886D01*
X192499078Y-113080996D01*
X192628659Y-113187341D01*
X192735004Y-113316922D01*
X192735005Y-113316924D01*
X192814024Y-113464758D01*
X192862687Y-113625177D01*
X192879117Y-113792000D01*
X192862687Y-113958823D01*
X192814024Y-114119242D01*
X192743114Y-114251906D01*
X192735004Y-114267078D01*
X192628659Y-114396659D01*
X192499078Y-114503004D01*
X192499076Y-114503005D01*
X192351242Y-114582024D01*
X192190823Y-114630687D01*
X192065804Y-114643000D01*
X191982196Y-114643000D01*
X191857177Y-114630687D01*
X191696758Y-114582024D01*
X191548924Y-114503005D01*
X191548922Y-114503004D01*
X191419341Y-114396659D01*
X191312996Y-114267078D01*
X191304886Y-114251906D01*
X191233976Y-114119242D01*
X191185313Y-113958823D01*
X191168883Y-113792000D01*
X191185313Y-113625177D01*
X191233976Y-113464758D01*
X191312995Y-113316924D01*
X191312996Y-113316922D01*
X191419341Y-113187341D01*
X191548922Y-113080996D01*
X191564094Y-113072886D01*
X191696758Y-113001976D01*
X191857177Y-112953313D01*
X191982196Y-112941000D01*
X192065804Y-112941000D01*
X192190823Y-112953313D01*
X192190823Y-112953313D01*
G37*
G36*
X207430823Y-112953313D02*
G01*
X207591242Y-113001976D01*
X207723906Y-113072886D01*
X207739078Y-113080996D01*
X207868659Y-113187341D01*
X207975004Y-113316922D01*
X207975005Y-113316924D01*
X208054024Y-113464758D01*
X208102687Y-113625177D01*
X208119117Y-113792000D01*
X208102687Y-113958823D01*
X208054024Y-114119242D01*
X207983114Y-114251906D01*
X207975004Y-114267078D01*
X207868659Y-114396659D01*
X207739078Y-114503004D01*
X207739076Y-114503005D01*
X207591242Y-114582024D01*
X207430823Y-114630687D01*
X207305804Y-114643000D01*
X207222196Y-114643000D01*
X207097177Y-114630687D01*
X206936758Y-114582024D01*
X206788924Y-114503005D01*
X206788922Y-114503004D01*
X206659341Y-114396659D01*
X206552996Y-114267078D01*
X206544886Y-114251906D01*
X206473976Y-114119242D01*
X206425313Y-113958823D01*
X206408883Y-113792000D01*
X206425313Y-113625177D01*
X206473976Y-113464758D01*
X206552995Y-113316924D01*
X206552996Y-113316922D01*
X206659341Y-113187341D01*
X206788922Y-113080996D01*
X206804094Y-113072886D01*
X206936758Y-113001976D01*
X207097177Y-112953313D01*
X207222196Y-112941000D01*
X207305804Y-112941000D01*
X207430823Y-112953313D01*
X207430823Y-112953313D01*
G37*
G36*
X185530442Y-110865518D02*
G01*
X185596627Y-110872037D01*
X185766466Y-110923557D01*
X185922991Y-111007222D01*
X185958729Y-111036552D01*
X186060186Y-111119814D01*
X186141647Y-111219076D01*
X186172778Y-111257009D01*
X186256443Y-111413534D01*
X186307963Y-111583373D01*
X186325359Y-111760000D01*
X186307963Y-111936627D01*
X186256443Y-112106466D01*
X186172778Y-112262991D01*
X186143448Y-112298729D01*
X186060186Y-112400186D01*
X185958729Y-112483448D01*
X185922991Y-112512778D01*
X185766466Y-112596443D01*
X185596627Y-112647963D01*
X185530442Y-112654482D01*
X185464260Y-112661000D01*
X185375740Y-112661000D01*
X185309558Y-112654482D01*
X185243373Y-112647963D01*
X185073534Y-112596443D01*
X184917009Y-112512778D01*
X184881271Y-112483448D01*
X184779814Y-112400186D01*
X184696552Y-112298729D01*
X184667222Y-112262991D01*
X184583557Y-112106466D01*
X184532037Y-111936627D01*
X184514641Y-111760000D01*
X184532037Y-111583373D01*
X184583557Y-111413534D01*
X184667222Y-111257009D01*
X184698353Y-111219076D01*
X184779814Y-111119814D01*
X184881271Y-111036552D01*
X184917009Y-111007222D01*
X185073534Y-110923557D01*
X185243373Y-110872037D01*
X185309558Y-110865518D01*
X185375740Y-110859000D01*
X185464260Y-110859000D01*
X185530442Y-110865518D01*
X185530442Y-110865518D01*
G37*
G36*
X192190823Y-110413313D02*
G01*
X192351242Y-110461976D01*
X192483906Y-110532886D01*
X192499078Y-110540996D01*
X192628659Y-110647341D01*
X192735004Y-110776922D01*
X192735005Y-110776924D01*
X192814024Y-110924758D01*
X192862687Y-111085177D01*
X192879117Y-111252000D01*
X192862687Y-111418823D01*
X192814024Y-111579242D01*
X192805601Y-111595000D01*
X192735004Y-111727078D01*
X192628659Y-111856659D01*
X192499078Y-111963004D01*
X192499076Y-111963005D01*
X192351242Y-112042024D01*
X192190823Y-112090687D01*
X192065804Y-112103000D01*
X191982196Y-112103000D01*
X191857177Y-112090687D01*
X191696758Y-112042024D01*
X191548924Y-111963005D01*
X191548922Y-111963004D01*
X191419341Y-111856659D01*
X191312996Y-111727078D01*
X191242399Y-111595000D01*
X191233976Y-111579242D01*
X191185313Y-111418823D01*
X191168883Y-111252000D01*
X191185313Y-111085177D01*
X191233976Y-110924758D01*
X191312995Y-110776924D01*
X191312996Y-110776922D01*
X191419341Y-110647341D01*
X191548922Y-110540996D01*
X191564094Y-110532886D01*
X191696758Y-110461976D01*
X191857177Y-110413313D01*
X191982196Y-110401000D01*
X192065804Y-110401000D01*
X192190823Y-110413313D01*
X192190823Y-110413313D01*
G37*
G36*
X207430823Y-110413313D02*
G01*
X207591242Y-110461976D01*
X207723906Y-110532886D01*
X207739078Y-110540996D01*
X207868659Y-110647341D01*
X207975004Y-110776922D01*
X207975005Y-110776924D01*
X208054024Y-110924758D01*
X208102687Y-111085177D01*
X208119117Y-111252000D01*
X208102687Y-111418823D01*
X208054024Y-111579242D01*
X208045601Y-111595000D01*
X207975004Y-111727078D01*
X207868659Y-111856659D01*
X207739078Y-111963004D01*
X207739076Y-111963005D01*
X207591242Y-112042024D01*
X207430823Y-112090687D01*
X207305804Y-112103000D01*
X207222196Y-112103000D01*
X207097177Y-112090687D01*
X206936758Y-112042024D01*
X206788924Y-111963005D01*
X206788922Y-111963004D01*
X206659341Y-111856659D01*
X206552996Y-111727078D01*
X206482399Y-111595000D01*
X206473976Y-111579242D01*
X206425313Y-111418823D01*
X206408883Y-111252000D01*
X206425313Y-111085177D01*
X206473976Y-110924758D01*
X206552995Y-110776924D01*
X206552996Y-110776922D01*
X206659341Y-110647341D01*
X206788922Y-110540996D01*
X206804094Y-110532886D01*
X206936758Y-110461976D01*
X207097177Y-110413313D01*
X207222196Y-110401000D01*
X207305804Y-110401000D01*
X207430823Y-110413313D01*
X207430823Y-110413313D01*
G37*
G36*
X253646000Y-112041000D02*
G01*
X250544000Y-112041000D01*
X250544000Y-108939000D01*
X253646000Y-108939000D01*
X253646000Y-112041000D01*
X253646000Y-112041000D01*
G37*
G36*
X235370823Y-109905313D02*
G01*
X235531242Y-109953976D01*
X235663906Y-110024886D01*
X235679078Y-110032996D01*
X235808659Y-110139341D01*
X235915004Y-110268922D01*
X235915005Y-110268924D01*
X235994024Y-110416758D01*
X236042687Y-110577177D01*
X236059117Y-110744000D01*
X236042687Y-110910823D01*
X235994024Y-111071242D01*
X235968061Y-111119815D01*
X235915004Y-111219078D01*
X235808659Y-111348659D01*
X235679078Y-111455004D01*
X235679076Y-111455005D01*
X235531242Y-111534024D01*
X235370823Y-111582687D01*
X235245804Y-111595000D01*
X235162196Y-111595000D01*
X235037177Y-111582687D01*
X234876758Y-111534024D01*
X234728924Y-111455005D01*
X234728922Y-111455004D01*
X234599341Y-111348659D01*
X234492996Y-111219078D01*
X234439939Y-111119815D01*
X234413976Y-111071242D01*
X234365313Y-110910823D01*
X234348883Y-110744000D01*
X234365313Y-110577177D01*
X234413976Y-110416758D01*
X234492995Y-110268924D01*
X234492996Y-110268922D01*
X234599341Y-110139341D01*
X234728922Y-110032996D01*
X234744094Y-110024886D01*
X234876758Y-109953976D01*
X235037177Y-109905313D01*
X235162196Y-109893000D01*
X235245804Y-109893000D01*
X235370823Y-109905313D01*
X235370823Y-109905313D01*
G37*
G36*
X227750823Y-109905313D02*
G01*
X227911242Y-109953976D01*
X228043906Y-110024886D01*
X228059078Y-110032996D01*
X228188659Y-110139341D01*
X228295004Y-110268922D01*
X228295005Y-110268924D01*
X228374024Y-110416758D01*
X228422687Y-110577177D01*
X228439117Y-110744000D01*
X228422687Y-110910823D01*
X228374024Y-111071242D01*
X228348061Y-111119815D01*
X228295004Y-111219078D01*
X228188659Y-111348659D01*
X228059078Y-111455004D01*
X228059076Y-111455005D01*
X227911242Y-111534024D01*
X227750823Y-111582687D01*
X227625804Y-111595000D01*
X227542196Y-111595000D01*
X227417177Y-111582687D01*
X227256758Y-111534024D01*
X227108924Y-111455005D01*
X227108922Y-111455004D01*
X226979341Y-111348659D01*
X226872996Y-111219078D01*
X226819939Y-111119815D01*
X226793976Y-111071242D01*
X226745313Y-110910823D01*
X226728883Y-110744000D01*
X226745313Y-110577177D01*
X226793976Y-110416758D01*
X226872995Y-110268924D01*
X226872996Y-110268922D01*
X226979341Y-110139341D01*
X227108922Y-110032996D01*
X227124094Y-110024886D01*
X227256758Y-109953976D01*
X227417177Y-109905313D01*
X227542196Y-109893000D01*
X227625804Y-109893000D01*
X227750823Y-109905313D01*
X227750823Y-109905313D01*
G37*
G36*
X242111669Y-107577686D02*
G01*
X242288058Y-107595059D01*
X242627548Y-107698042D01*
X242627550Y-107698043D01*
X242940422Y-107865277D01*
X243214661Y-108090339D01*
X243439723Y-108364578D01*
X243528805Y-108531239D01*
X243606958Y-108677452D01*
X243709941Y-109016942D01*
X243744714Y-109370000D01*
X243709941Y-109723058D01*
X243615922Y-110032996D01*
X243606957Y-110062550D01*
X243439723Y-110375422D01*
X243214661Y-110649661D01*
X242940422Y-110874723D01*
X242692536Y-111007221D01*
X242627548Y-111041958D01*
X242288058Y-111144941D01*
X242111669Y-111162314D01*
X242023476Y-111171000D01*
X241846524Y-111171000D01*
X241758331Y-111162314D01*
X241581942Y-111144941D01*
X241242452Y-111041958D01*
X241177464Y-111007221D01*
X240929578Y-110874723D01*
X240655339Y-110649661D01*
X240430277Y-110375422D01*
X240263043Y-110062550D01*
X240254078Y-110032996D01*
X240160059Y-109723058D01*
X240125286Y-109370000D01*
X240160059Y-109016942D01*
X240263042Y-108677452D01*
X240341195Y-108531239D01*
X240430277Y-108364578D01*
X240655339Y-108090339D01*
X240929578Y-107865277D01*
X241242450Y-107698043D01*
X241242452Y-107698042D01*
X241581942Y-107595059D01*
X241758331Y-107577686D01*
X241846524Y-107569000D01*
X242023476Y-107569000D01*
X242111669Y-107577686D01*
X242111669Y-107577686D01*
G37*
G36*
X185530443Y-108325519D02*
G01*
X185596627Y-108332037D01*
X185766466Y-108383557D01*
X185922991Y-108467222D01*
X185958729Y-108496552D01*
X186060186Y-108579814D01*
X186140313Y-108677450D01*
X186172778Y-108717009D01*
X186256443Y-108873534D01*
X186307963Y-109043373D01*
X186325359Y-109220000D01*
X186307963Y-109396627D01*
X186256443Y-109566466D01*
X186172778Y-109722991D01*
X186143448Y-109758729D01*
X186060186Y-109860186D01*
X185958729Y-109943448D01*
X185922991Y-109972778D01*
X185766466Y-110056443D01*
X185596627Y-110107963D01*
X185530443Y-110114481D01*
X185464260Y-110121000D01*
X185375740Y-110121000D01*
X185309557Y-110114481D01*
X185243373Y-110107963D01*
X185073534Y-110056443D01*
X184917009Y-109972778D01*
X184881271Y-109943448D01*
X184779814Y-109860186D01*
X184696552Y-109758729D01*
X184667222Y-109722991D01*
X184583557Y-109566466D01*
X184532037Y-109396627D01*
X184514641Y-109220000D01*
X184532037Y-109043373D01*
X184583557Y-108873534D01*
X184667222Y-108717009D01*
X184699687Y-108677450D01*
X184779814Y-108579814D01*
X184881271Y-108496552D01*
X184917009Y-108467222D01*
X185073534Y-108383557D01*
X185243373Y-108332037D01*
X185309557Y-108325519D01*
X185375740Y-108319000D01*
X185464260Y-108319000D01*
X185530443Y-108325519D01*
X185530443Y-108325519D01*
G37*
G36*
X207430823Y-107873313D02*
G01*
X207591242Y-107921976D01*
X207723906Y-107992886D01*
X207739078Y-108000996D01*
X207868659Y-108107341D01*
X207975004Y-108236922D01*
X207975005Y-108236924D01*
X208054024Y-108384758D01*
X208102687Y-108545177D01*
X208119117Y-108712000D01*
X208102687Y-108878823D01*
X208054024Y-109039242D01*
X208045601Y-109055000D01*
X207975004Y-109187078D01*
X207868659Y-109316659D01*
X207739078Y-109423004D01*
X207739076Y-109423005D01*
X207591242Y-109502024D01*
X207430823Y-109550687D01*
X207305804Y-109563000D01*
X207222196Y-109563000D01*
X207097177Y-109550687D01*
X206936758Y-109502024D01*
X206788924Y-109423005D01*
X206788922Y-109423004D01*
X206659341Y-109316659D01*
X206552996Y-109187078D01*
X206482399Y-109055000D01*
X206473976Y-109039242D01*
X206425313Y-108878823D01*
X206408883Y-108712000D01*
X206425313Y-108545177D01*
X206473976Y-108384758D01*
X206552995Y-108236924D01*
X206552996Y-108236922D01*
X206659341Y-108107341D01*
X206788922Y-108000996D01*
X206804094Y-107992886D01*
X206936758Y-107921976D01*
X207097177Y-107873313D01*
X207222196Y-107861000D01*
X207305804Y-107861000D01*
X207430823Y-107873313D01*
X207430823Y-107873313D01*
G37*
G36*
X192190823Y-107873313D02*
G01*
X192351242Y-107921976D01*
X192483906Y-107992886D01*
X192499078Y-108000996D01*
X192628659Y-108107341D01*
X192735004Y-108236922D01*
X192735005Y-108236924D01*
X192814024Y-108384758D01*
X192862687Y-108545177D01*
X192879117Y-108712000D01*
X192862687Y-108878823D01*
X192814024Y-109039242D01*
X192805601Y-109055000D01*
X192735004Y-109187078D01*
X192628659Y-109316659D01*
X192499078Y-109423004D01*
X192499076Y-109423005D01*
X192351242Y-109502024D01*
X192190823Y-109550687D01*
X192065804Y-109563000D01*
X191982196Y-109563000D01*
X191857177Y-109550687D01*
X191696758Y-109502024D01*
X191548924Y-109423005D01*
X191548922Y-109423004D01*
X191419341Y-109316659D01*
X191312996Y-109187078D01*
X191242399Y-109055000D01*
X191233976Y-109039242D01*
X191185313Y-108878823D01*
X191168883Y-108712000D01*
X191185313Y-108545177D01*
X191233976Y-108384758D01*
X191312995Y-108236924D01*
X191312996Y-108236922D01*
X191419341Y-108107341D01*
X191548922Y-108000996D01*
X191564094Y-107992886D01*
X191696758Y-107921976D01*
X191857177Y-107873313D01*
X191982196Y-107861000D01*
X192065804Y-107861000D01*
X192190823Y-107873313D01*
X192190823Y-107873313D01*
G37*
G36*
X227750823Y-107365313D02*
G01*
X227911242Y-107413976D01*
X228043906Y-107484886D01*
X228059078Y-107492996D01*
X228188659Y-107599341D01*
X228295004Y-107728922D01*
X228295005Y-107728924D01*
X228374024Y-107876758D01*
X228422687Y-108037177D01*
X228439117Y-108204000D01*
X228422687Y-108370823D01*
X228374024Y-108531242D01*
X228348061Y-108579815D01*
X228295004Y-108679078D01*
X228188659Y-108808659D01*
X228059078Y-108915004D01*
X228059076Y-108915005D01*
X227911242Y-108994024D01*
X227750823Y-109042687D01*
X227625804Y-109055000D01*
X227542196Y-109055000D01*
X227417177Y-109042687D01*
X227256758Y-108994024D01*
X227108924Y-108915005D01*
X227108922Y-108915004D01*
X226979341Y-108808659D01*
X226872996Y-108679078D01*
X226819939Y-108579815D01*
X226793976Y-108531242D01*
X226745313Y-108370823D01*
X226728883Y-108204000D01*
X226745313Y-108037177D01*
X226793976Y-107876758D01*
X226872995Y-107728924D01*
X226872996Y-107728922D01*
X226979341Y-107599341D01*
X227108922Y-107492996D01*
X227124094Y-107484886D01*
X227256758Y-107413976D01*
X227417177Y-107365313D01*
X227542196Y-107353000D01*
X227625804Y-107353000D01*
X227750823Y-107365313D01*
X227750823Y-107365313D01*
G37*
G36*
X235370823Y-107365313D02*
G01*
X235531242Y-107413976D01*
X235663906Y-107484886D01*
X235679078Y-107492996D01*
X235808659Y-107599341D01*
X235915004Y-107728922D01*
X235915005Y-107728924D01*
X235994024Y-107876758D01*
X236042687Y-108037177D01*
X236059117Y-108204000D01*
X236042687Y-108370823D01*
X235994024Y-108531242D01*
X235968061Y-108579815D01*
X235915004Y-108679078D01*
X235808659Y-108808659D01*
X235679078Y-108915004D01*
X235679076Y-108915005D01*
X235531242Y-108994024D01*
X235370823Y-109042687D01*
X235245804Y-109055000D01*
X235162196Y-109055000D01*
X235037177Y-109042687D01*
X234876758Y-108994024D01*
X234728924Y-108915005D01*
X234728922Y-108915004D01*
X234599341Y-108808659D01*
X234492996Y-108679078D01*
X234439939Y-108579815D01*
X234413976Y-108531242D01*
X234365313Y-108370823D01*
X234348883Y-108204000D01*
X234365313Y-108037177D01*
X234413976Y-107876758D01*
X234492995Y-107728924D01*
X234492996Y-107728922D01*
X234599341Y-107599341D01*
X234728922Y-107492996D01*
X234744094Y-107484886D01*
X234876758Y-107413976D01*
X235037177Y-107365313D01*
X235162196Y-107353000D01*
X235245804Y-107353000D01*
X235370823Y-107365313D01*
X235370823Y-107365313D01*
G37*
G36*
X185530443Y-105785519D02*
G01*
X185596627Y-105792037D01*
X185766466Y-105843557D01*
X185922991Y-105927222D01*
X185958729Y-105956552D01*
X186060186Y-106039814D01*
X186141647Y-106139076D01*
X186172778Y-106177009D01*
X186256443Y-106333534D01*
X186307963Y-106503373D01*
X186325359Y-106680000D01*
X186307963Y-106856627D01*
X186256443Y-107026466D01*
X186172778Y-107182991D01*
X186143448Y-107218729D01*
X186060186Y-107320186D01*
X185958729Y-107403448D01*
X185922991Y-107432778D01*
X185766466Y-107516443D01*
X185596627Y-107567963D01*
X185530443Y-107574481D01*
X185464260Y-107581000D01*
X185375740Y-107581000D01*
X185309557Y-107574481D01*
X185243373Y-107567963D01*
X185073534Y-107516443D01*
X184917009Y-107432778D01*
X184881271Y-107403448D01*
X184779814Y-107320186D01*
X184696552Y-107218729D01*
X184667222Y-107182991D01*
X184583557Y-107026466D01*
X184532037Y-106856627D01*
X184514641Y-106680000D01*
X184532037Y-106503373D01*
X184583557Y-106333534D01*
X184667222Y-106177009D01*
X184698353Y-106139076D01*
X184779814Y-106039814D01*
X184881271Y-105956552D01*
X184917009Y-105927222D01*
X185073534Y-105843557D01*
X185243373Y-105792037D01*
X185309557Y-105785519D01*
X185375740Y-105779000D01*
X185464260Y-105779000D01*
X185530443Y-105785519D01*
X185530443Y-105785519D01*
G37*
G36*
X223891000Y-107186000D02*
G01*
X212989000Y-107186000D01*
X212989000Y-97684000D01*
X223891000Y-97684000D01*
X223891000Y-107186000D01*
X223891000Y-107186000D01*
G37*
G36*
X192190823Y-105333313D02*
G01*
X192351242Y-105381976D01*
X192483906Y-105452886D01*
X192499078Y-105460996D01*
X192628659Y-105567341D01*
X192735004Y-105696922D01*
X192735005Y-105696924D01*
X192814024Y-105844758D01*
X192862687Y-106005177D01*
X192879117Y-106172000D01*
X192862687Y-106338823D01*
X192814024Y-106499242D01*
X192805601Y-106515000D01*
X192735004Y-106647078D01*
X192628659Y-106776659D01*
X192499078Y-106883004D01*
X192499076Y-106883005D01*
X192351242Y-106962024D01*
X192190823Y-107010687D01*
X192065804Y-107023000D01*
X191982196Y-107023000D01*
X191857177Y-107010687D01*
X191696758Y-106962024D01*
X191548924Y-106883005D01*
X191548922Y-106883004D01*
X191419341Y-106776659D01*
X191312996Y-106647078D01*
X191242399Y-106515000D01*
X191233976Y-106499242D01*
X191185313Y-106338823D01*
X191168883Y-106172000D01*
X191185313Y-106005177D01*
X191233976Y-105844758D01*
X191312995Y-105696924D01*
X191312996Y-105696922D01*
X191419341Y-105567341D01*
X191548922Y-105460996D01*
X191564094Y-105452886D01*
X191696758Y-105381976D01*
X191857177Y-105333313D01*
X191982196Y-105321000D01*
X192065804Y-105321000D01*
X192190823Y-105333313D01*
X192190823Y-105333313D01*
G37*
G36*
X207430823Y-105333313D02*
G01*
X207591242Y-105381976D01*
X207723906Y-105452886D01*
X207739078Y-105460996D01*
X207868659Y-105567341D01*
X207975004Y-105696922D01*
X207975005Y-105696924D01*
X208054024Y-105844758D01*
X208102687Y-106005177D01*
X208119117Y-106172000D01*
X208102687Y-106338823D01*
X208054024Y-106499242D01*
X208045601Y-106515000D01*
X207975004Y-106647078D01*
X207868659Y-106776659D01*
X207739078Y-106883004D01*
X207739076Y-106883005D01*
X207591242Y-106962024D01*
X207430823Y-107010687D01*
X207305804Y-107023000D01*
X207222196Y-107023000D01*
X207097177Y-107010687D01*
X206936758Y-106962024D01*
X206788924Y-106883005D01*
X206788922Y-106883004D01*
X206659341Y-106776659D01*
X206552996Y-106647078D01*
X206482399Y-106515000D01*
X206473976Y-106499242D01*
X206425313Y-106338823D01*
X206408883Y-106172000D01*
X206425313Y-106005177D01*
X206473976Y-105844758D01*
X206552995Y-105696924D01*
X206552996Y-105696922D01*
X206659341Y-105567341D01*
X206788922Y-105460996D01*
X206804094Y-105452886D01*
X206936758Y-105381976D01*
X207097177Y-105333313D01*
X207222196Y-105321000D01*
X207305804Y-105321000D01*
X207430823Y-105333313D01*
X207430823Y-105333313D01*
G37*
G36*
X252397585Y-103888802D02*
G01*
X252547410Y-103918604D01*
X252829674Y-104035521D01*
X253083705Y-104205259D01*
X253299741Y-104421295D01*
X253469479Y-104675326D01*
X253586396Y-104957590D01*
X253616198Y-105107415D01*
X253632892Y-105191339D01*
X253646000Y-105257240D01*
X253646000Y-105562760D01*
X253586396Y-105862410D01*
X253469479Y-106144674D01*
X253299741Y-106398705D01*
X253083705Y-106614741D01*
X252829674Y-106784479D01*
X252547410Y-106901396D01*
X252397585Y-106931198D01*
X252247761Y-106961000D01*
X251942239Y-106961000D01*
X251792415Y-106931198D01*
X251642590Y-106901396D01*
X251360326Y-106784479D01*
X251106295Y-106614741D01*
X250890259Y-106398705D01*
X250720521Y-106144674D01*
X250603604Y-105862410D01*
X250544000Y-105562760D01*
X250544000Y-105257240D01*
X250557109Y-105191339D01*
X250573802Y-105107415D01*
X250603604Y-104957590D01*
X250720521Y-104675326D01*
X250890259Y-104421295D01*
X251106295Y-104205259D01*
X251360326Y-104035521D01*
X251642590Y-103918604D01*
X251792415Y-103888802D01*
X251942239Y-103859000D01*
X252247761Y-103859000D01*
X252397585Y-103888802D01*
X252397585Y-103888802D01*
G37*
G36*
X228435000Y-106515000D02*
G01*
X226733000Y-106515000D01*
X226733000Y-104813000D01*
X228435000Y-104813000D01*
X228435000Y-106515000D01*
X228435000Y-106515000D01*
G37*
G36*
X235370823Y-104825313D02*
G01*
X235531242Y-104873976D01*
X235663906Y-104944886D01*
X235679078Y-104952996D01*
X235808659Y-105059341D01*
X235915004Y-105188922D01*
X235915005Y-105188924D01*
X235994024Y-105336758D01*
X236042687Y-105497177D01*
X236059117Y-105664000D01*
X236042687Y-105830823D01*
X235994024Y-105991242D01*
X235968061Y-106039815D01*
X235915004Y-106139078D01*
X235808659Y-106268659D01*
X235679078Y-106375004D01*
X235679076Y-106375005D01*
X235531242Y-106454024D01*
X235370823Y-106502687D01*
X235245804Y-106515000D01*
X235162196Y-106515000D01*
X235037177Y-106502687D01*
X234876758Y-106454024D01*
X234728924Y-106375005D01*
X234728922Y-106375004D01*
X234599341Y-106268659D01*
X234492996Y-106139078D01*
X234439939Y-106039815D01*
X234413976Y-105991242D01*
X234365313Y-105830823D01*
X234348883Y-105664000D01*
X234365313Y-105497177D01*
X234413976Y-105336758D01*
X234492995Y-105188924D01*
X234492996Y-105188922D01*
X234599341Y-105059341D01*
X234728922Y-104952996D01*
X234744094Y-104944886D01*
X234876758Y-104873976D01*
X235037177Y-104825313D01*
X235162196Y-104813000D01*
X235245804Y-104813000D01*
X235370823Y-104825313D01*
X235370823Y-104825313D01*
G37*
G36*
X202656674Y-103901465D02*
G01*
X202694367Y-103912899D01*
X202729103Y-103931466D01*
X202759548Y-103956452D01*
X202784534Y-103986897D01*
X202803101Y-104021633D01*
X202814535Y-104059326D01*
X202819000Y-104104661D01*
X202819000Y-105191339D01*
X202814535Y-105236674D01*
X202803101Y-105274367D01*
X202784534Y-105309103D01*
X202759548Y-105339548D01*
X202729103Y-105364534D01*
X202694367Y-105383101D01*
X202656674Y-105394535D01*
X202611339Y-105399000D01*
X201774661Y-105399000D01*
X201729326Y-105394535D01*
X201691633Y-105383101D01*
X201656897Y-105364534D01*
X201626452Y-105339548D01*
X201601466Y-105309103D01*
X201582899Y-105274367D01*
X201571465Y-105236674D01*
X201567000Y-105191339D01*
X201567000Y-104104661D01*
X201571465Y-104059326D01*
X201582899Y-104021633D01*
X201601466Y-103986897D01*
X201626452Y-103956452D01*
X201656897Y-103931466D01*
X201691633Y-103912899D01*
X201729326Y-103901465D01*
X201774661Y-103897000D01*
X202611339Y-103897000D01*
X202656674Y-103901465D01*
X202656674Y-103901465D01*
G37*
G36*
X200606674Y-103901465D02*
G01*
X200644367Y-103912899D01*
X200679103Y-103931466D01*
X200709548Y-103956452D01*
X200734534Y-103986897D01*
X200753101Y-104021633D01*
X200764535Y-104059326D01*
X200769000Y-104104661D01*
X200769000Y-105191339D01*
X200764535Y-105236674D01*
X200753101Y-105274367D01*
X200734534Y-105309103D01*
X200709548Y-105339548D01*
X200679103Y-105364534D01*
X200644367Y-105383101D01*
X200606674Y-105394535D01*
X200561339Y-105399000D01*
X199724661Y-105399000D01*
X199679326Y-105394535D01*
X199641633Y-105383101D01*
X199606897Y-105364534D01*
X199576452Y-105339548D01*
X199551466Y-105309103D01*
X199532899Y-105274367D01*
X199521465Y-105236674D01*
X199517000Y-105191339D01*
X199517000Y-104104661D01*
X199521465Y-104059326D01*
X199532899Y-104021633D01*
X199551466Y-103986897D01*
X199576452Y-103956452D01*
X199606897Y-103931466D01*
X199641633Y-103912899D01*
X199679326Y-103901465D01*
X199724661Y-103897000D01*
X200561339Y-103897000D01*
X200606674Y-103901465D01*
X200606674Y-103901465D01*
G37*
G36*
X185530443Y-103245519D02*
G01*
X185596627Y-103252037D01*
X185766466Y-103303557D01*
X185922991Y-103387222D01*
X185958729Y-103416552D01*
X186060186Y-103499814D01*
X186143448Y-103601271D01*
X186172778Y-103637009D01*
X186256443Y-103793534D01*
X186307963Y-103963373D01*
X186325359Y-104140000D01*
X186307963Y-104316627D01*
X186256443Y-104486466D01*
X186172778Y-104642991D01*
X186143448Y-104678729D01*
X186060186Y-104780186D01*
X185958729Y-104863448D01*
X185922991Y-104892778D01*
X185766466Y-104976443D01*
X185596627Y-105027963D01*
X185530442Y-105034482D01*
X185464260Y-105041000D01*
X185375740Y-105041000D01*
X185309557Y-105034481D01*
X185243373Y-105027963D01*
X185073534Y-104976443D01*
X184917009Y-104892778D01*
X184881271Y-104863448D01*
X184779814Y-104780186D01*
X184696552Y-104678729D01*
X184667222Y-104642991D01*
X184583557Y-104486466D01*
X184532037Y-104316627D01*
X184514641Y-104140000D01*
X184532037Y-103963373D01*
X184583557Y-103793534D01*
X184667222Y-103637009D01*
X184696552Y-103601271D01*
X184779814Y-103499814D01*
X184881271Y-103416552D01*
X184917009Y-103387222D01*
X185073534Y-103303557D01*
X185243373Y-103252037D01*
X185309558Y-103245518D01*
X185375740Y-103239000D01*
X185464260Y-103239000D01*
X185530443Y-103245519D01*
X185530443Y-103245519D01*
G37*
G36*
X207430823Y-102793313D02*
G01*
X207591242Y-102841976D01*
X207723906Y-102912886D01*
X207739078Y-102920996D01*
X207868659Y-103027341D01*
X207975004Y-103156922D01*
X207975005Y-103156924D01*
X208054024Y-103304758D01*
X208102687Y-103465177D01*
X208119117Y-103632000D01*
X208102687Y-103798823D01*
X208054024Y-103959242D01*
X208039242Y-103986897D01*
X207975004Y-104107078D01*
X207868659Y-104236659D01*
X207739078Y-104343004D01*
X207739076Y-104343005D01*
X207591242Y-104422024D01*
X207430823Y-104470687D01*
X207305804Y-104483000D01*
X207222196Y-104483000D01*
X207097177Y-104470687D01*
X206936758Y-104422024D01*
X206788924Y-104343005D01*
X206788922Y-104343004D01*
X206659341Y-104236659D01*
X206552996Y-104107078D01*
X206488758Y-103986897D01*
X206473976Y-103959242D01*
X206425313Y-103798823D01*
X206408883Y-103632000D01*
X206425313Y-103465177D01*
X206473976Y-103304758D01*
X206552995Y-103156924D01*
X206552996Y-103156922D01*
X206659341Y-103027341D01*
X206788922Y-102920996D01*
X206804094Y-102912886D01*
X206936758Y-102841976D01*
X207097177Y-102793313D01*
X207222196Y-102781000D01*
X207305804Y-102781000D01*
X207430823Y-102793313D01*
X207430823Y-102793313D01*
G37*
G36*
X192190823Y-102793313D02*
G01*
X192351242Y-102841976D01*
X192483906Y-102912886D01*
X192499078Y-102920996D01*
X192628659Y-103027341D01*
X192735004Y-103156922D01*
X192735005Y-103156924D01*
X192814024Y-103304758D01*
X192862687Y-103465177D01*
X192879117Y-103632000D01*
X192862687Y-103798823D01*
X192814024Y-103959242D01*
X192799242Y-103986897D01*
X192735004Y-104107078D01*
X192628659Y-104236659D01*
X192499078Y-104343004D01*
X192499076Y-104343005D01*
X192351242Y-104422024D01*
X192190823Y-104470687D01*
X192065804Y-104483000D01*
X191982196Y-104483000D01*
X191857177Y-104470687D01*
X191696758Y-104422024D01*
X191548924Y-104343005D01*
X191548922Y-104343004D01*
X191419341Y-104236659D01*
X191312996Y-104107078D01*
X191248758Y-103986897D01*
X191233976Y-103959242D01*
X191185313Y-103798823D01*
X191168883Y-103632000D01*
X191185313Y-103465177D01*
X191233976Y-103304758D01*
X191312995Y-103156924D01*
X191312996Y-103156922D01*
X191419341Y-103027341D01*
X191548922Y-102920996D01*
X191564094Y-102912886D01*
X191696758Y-102841976D01*
X191857177Y-102793313D01*
X191982196Y-102781000D01*
X192065804Y-102781000D01*
X192190823Y-102793313D01*
X192190823Y-102793313D01*
G37*
G36*
X207430823Y-100253313D02*
G01*
X207591242Y-100301976D01*
X207723906Y-100372886D01*
X207739078Y-100380996D01*
X207868659Y-100487341D01*
X207975004Y-100616922D01*
X207975005Y-100616924D01*
X208054024Y-100764758D01*
X208102687Y-100925177D01*
X208119117Y-101092000D01*
X208102687Y-101258823D01*
X208054024Y-101419242D01*
X207983114Y-101551906D01*
X207975004Y-101567078D01*
X207868659Y-101696659D01*
X207739078Y-101803004D01*
X207739076Y-101803005D01*
X207591242Y-101882024D01*
X207430823Y-101930687D01*
X207305804Y-101943000D01*
X207222196Y-101943000D01*
X207097177Y-101930687D01*
X206936758Y-101882024D01*
X206788924Y-101803005D01*
X206788922Y-101803004D01*
X206659341Y-101696659D01*
X206552996Y-101567078D01*
X206544886Y-101551906D01*
X206473976Y-101419242D01*
X206425313Y-101258823D01*
X206408883Y-101092000D01*
X206425313Y-100925177D01*
X206473976Y-100764758D01*
X206552995Y-100616924D01*
X206552996Y-100616922D01*
X206659341Y-100487341D01*
X206788922Y-100380996D01*
X206804094Y-100372886D01*
X206936758Y-100301976D01*
X207097177Y-100253313D01*
X207222196Y-100241000D01*
X207305804Y-100241000D01*
X207430823Y-100253313D01*
X207430823Y-100253313D01*
G37*
G36*
X192190823Y-100253313D02*
G01*
X192351242Y-100301976D01*
X192483906Y-100372886D01*
X192499078Y-100380996D01*
X192628659Y-100487341D01*
X192735004Y-100616922D01*
X192735005Y-100616924D01*
X192814024Y-100764758D01*
X192862687Y-100925177D01*
X192879117Y-101092000D01*
X192862687Y-101258823D01*
X192814024Y-101419242D01*
X192743114Y-101551906D01*
X192735004Y-101567078D01*
X192628659Y-101696659D01*
X192499078Y-101803004D01*
X192499076Y-101803005D01*
X192351242Y-101882024D01*
X192190823Y-101930687D01*
X192065804Y-101943000D01*
X191982196Y-101943000D01*
X191857177Y-101930687D01*
X191696758Y-101882024D01*
X191548924Y-101803005D01*
X191548922Y-101803004D01*
X191419341Y-101696659D01*
X191312996Y-101567078D01*
X191304886Y-101551906D01*
X191233976Y-101419242D01*
X191185313Y-101258823D01*
X191168883Y-101092000D01*
X191185313Y-100925177D01*
X191233976Y-100764758D01*
X191312995Y-100616924D01*
X191312996Y-100616922D01*
X191419341Y-100487341D01*
X191548922Y-100380996D01*
X191564094Y-100372886D01*
X191696758Y-100301976D01*
X191857177Y-100253313D01*
X191982196Y-100241000D01*
X192065804Y-100241000D01*
X192190823Y-100253313D01*
X192190823Y-100253313D01*
G37*
G36*
X207430823Y-97713313D02*
G01*
X207591242Y-97761976D01*
X207723906Y-97832886D01*
X207739078Y-97840996D01*
X207868659Y-97947341D01*
X207975004Y-98076922D01*
X207975005Y-98076924D01*
X208054024Y-98224758D01*
X208102687Y-98385177D01*
X208119117Y-98552000D01*
X208102687Y-98718823D01*
X208054024Y-98879242D01*
X207983114Y-99011906D01*
X207975004Y-99027078D01*
X207868659Y-99156659D01*
X207739078Y-99263004D01*
X207739076Y-99263005D01*
X207591242Y-99342024D01*
X207430823Y-99390687D01*
X207305804Y-99403000D01*
X207222196Y-99403000D01*
X207097177Y-99390687D01*
X206936758Y-99342024D01*
X206788924Y-99263005D01*
X206788922Y-99263004D01*
X206659341Y-99156659D01*
X206552996Y-99027078D01*
X206544886Y-99011906D01*
X206473976Y-98879242D01*
X206425313Y-98718823D01*
X206408883Y-98552000D01*
X206425313Y-98385177D01*
X206473976Y-98224758D01*
X206552995Y-98076924D01*
X206552996Y-98076922D01*
X206659341Y-97947341D01*
X206788922Y-97840996D01*
X206804094Y-97832886D01*
X206936758Y-97761976D01*
X207097177Y-97713313D01*
X207222196Y-97701000D01*
X207305804Y-97701000D01*
X207430823Y-97713313D01*
X207430823Y-97713313D01*
G37*
G36*
X192190823Y-97713313D02*
G01*
X192351242Y-97761976D01*
X192483906Y-97832886D01*
X192499078Y-97840996D01*
X192628659Y-97947341D01*
X192735004Y-98076922D01*
X192735005Y-98076924D01*
X192814024Y-98224758D01*
X192862687Y-98385177D01*
X192879117Y-98552000D01*
X192862687Y-98718823D01*
X192814024Y-98879242D01*
X192743114Y-99011906D01*
X192735004Y-99027078D01*
X192628659Y-99156659D01*
X192499078Y-99263004D01*
X192499076Y-99263005D01*
X192351242Y-99342024D01*
X192190823Y-99390687D01*
X192065804Y-99403000D01*
X191982196Y-99403000D01*
X191857177Y-99390687D01*
X191696758Y-99342024D01*
X191548924Y-99263005D01*
X191548922Y-99263004D01*
X191419341Y-99156659D01*
X191312996Y-99027078D01*
X191304886Y-99011906D01*
X191233976Y-98879242D01*
X191185313Y-98718823D01*
X191168883Y-98552000D01*
X191185313Y-98385177D01*
X191233976Y-98224758D01*
X191312995Y-98076924D01*
X191312996Y-98076922D01*
X191419341Y-97947341D01*
X191548922Y-97840996D01*
X191564094Y-97832886D01*
X191696758Y-97761976D01*
X191857177Y-97713313D01*
X191982196Y-97701000D01*
X192065804Y-97701000D01*
X192190823Y-97713313D01*
X192190823Y-97713313D01*
G37*
G36*
X253646000Y-98706000D02*
G01*
X250544000Y-98706000D01*
X250544000Y-95604000D01*
X253646000Y-95604000D01*
X253646000Y-98706000D01*
X253646000Y-98706000D01*
G37*
G36*
X207430823Y-95173313D02*
G01*
X207591242Y-95221976D01*
X207723906Y-95292886D01*
X207739078Y-95300996D01*
X207868659Y-95407341D01*
X207975004Y-95536922D01*
X207975005Y-95536924D01*
X208054024Y-95684758D01*
X208102687Y-95845177D01*
X208119117Y-96012000D01*
X208102687Y-96178823D01*
X208054024Y-96339242D01*
X207983114Y-96471906D01*
X207975004Y-96487078D01*
X207868659Y-96616659D01*
X207739078Y-96723004D01*
X207739076Y-96723005D01*
X207591242Y-96802024D01*
X207430823Y-96850687D01*
X207305804Y-96863000D01*
X207222196Y-96863000D01*
X207097177Y-96850687D01*
X206936758Y-96802024D01*
X206788924Y-96723005D01*
X206788922Y-96723004D01*
X206659341Y-96616659D01*
X206552996Y-96487078D01*
X206544886Y-96471906D01*
X206473976Y-96339242D01*
X206425313Y-96178823D01*
X206408883Y-96012000D01*
X206425313Y-95845177D01*
X206473976Y-95684758D01*
X206552995Y-95536924D01*
X206552996Y-95536922D01*
X206659341Y-95407341D01*
X206788922Y-95300996D01*
X206804094Y-95292886D01*
X206936758Y-95221976D01*
X207097177Y-95173313D01*
X207222196Y-95161000D01*
X207305804Y-95161000D01*
X207430823Y-95173313D01*
X207430823Y-95173313D01*
G37*
G36*
X192190823Y-95173313D02*
G01*
X192351242Y-95221976D01*
X192483906Y-95292886D01*
X192499078Y-95300996D01*
X192628659Y-95407341D01*
X192735004Y-95536922D01*
X192735005Y-95536924D01*
X192814024Y-95684758D01*
X192862687Y-95845177D01*
X192879117Y-96012000D01*
X192862687Y-96178823D01*
X192814024Y-96339242D01*
X192743114Y-96471906D01*
X192735004Y-96487078D01*
X192628659Y-96616659D01*
X192499078Y-96723004D01*
X192499076Y-96723005D01*
X192351242Y-96802024D01*
X192190823Y-96850687D01*
X192065804Y-96863000D01*
X191982196Y-96863000D01*
X191857177Y-96850687D01*
X191696758Y-96802024D01*
X191548924Y-96723005D01*
X191548922Y-96723004D01*
X191419341Y-96616659D01*
X191312996Y-96487078D01*
X191304886Y-96471906D01*
X191233976Y-96339242D01*
X191185313Y-96178823D01*
X191168883Y-96012000D01*
X191185313Y-95845177D01*
X191233976Y-95684758D01*
X191312995Y-95536924D01*
X191312996Y-95536922D01*
X191419341Y-95407341D01*
X191548922Y-95300996D01*
X191564094Y-95292886D01*
X191696758Y-95221976D01*
X191857177Y-95173313D01*
X191982196Y-95161000D01*
X192065804Y-95161000D01*
X192190823Y-95173313D01*
X192190823Y-95173313D01*
G37*
G36*
X186321000Y-96151000D02*
G01*
X184519000Y-96151000D01*
X184519000Y-94349000D01*
X186321000Y-94349000D01*
X186321000Y-96151000D01*
X186321000Y-96151000D01*
G37*
G36*
X219041000Y-95636000D02*
G01*
X217839000Y-95636000D01*
X217839000Y-90934000D01*
X219041000Y-90934000D01*
X219041000Y-95636000D01*
X219041000Y-95636000D01*
G37*
G36*
X221581000Y-95636000D02*
G01*
X220379000Y-95636000D01*
X220379000Y-90934000D01*
X221581000Y-90934000D01*
X221581000Y-95636000D01*
X221581000Y-95636000D01*
G37*
G36*
X216501000Y-95636000D02*
G01*
X215299000Y-95636000D01*
X215299000Y-90934000D01*
X216501000Y-90934000D01*
X216501000Y-95636000D01*
X216501000Y-95636000D01*
G37*
G36*
X192190823Y-92633313D02*
G01*
X192351242Y-92681976D01*
X192456100Y-92738024D01*
X192499078Y-92760996D01*
X192628659Y-92867341D01*
X192735004Y-92996922D01*
X192735005Y-92996924D01*
X192814024Y-93144758D01*
X192862687Y-93305177D01*
X192879117Y-93472000D01*
X192862687Y-93638823D01*
X192814024Y-93799242D01*
X192743114Y-93931906D01*
X192735004Y-93947078D01*
X192628659Y-94076659D01*
X192499078Y-94183004D01*
X192499076Y-94183005D01*
X192351242Y-94262024D01*
X192190823Y-94310687D01*
X192065804Y-94323000D01*
X191982196Y-94323000D01*
X191857177Y-94310687D01*
X191696758Y-94262024D01*
X191548924Y-94183005D01*
X191548922Y-94183004D01*
X191419341Y-94076659D01*
X191312996Y-93947078D01*
X191304886Y-93931906D01*
X191233976Y-93799242D01*
X191185313Y-93638823D01*
X191168883Y-93472000D01*
X191185313Y-93305177D01*
X191233976Y-93144758D01*
X191312995Y-92996924D01*
X191312996Y-92996922D01*
X191419341Y-92867341D01*
X191548922Y-92760996D01*
X191591900Y-92738024D01*
X191696758Y-92681976D01*
X191857177Y-92633313D01*
X191982196Y-92621000D01*
X192065804Y-92621000D01*
X192190823Y-92633313D01*
X192190823Y-92633313D01*
G37*
G36*
X207430823Y-92633313D02*
G01*
X207591242Y-92681976D01*
X207696100Y-92738024D01*
X207739078Y-92760996D01*
X207868659Y-92867341D01*
X207975004Y-92996922D01*
X207975005Y-92996924D01*
X208054024Y-93144758D01*
X208102687Y-93305177D01*
X208119117Y-93472000D01*
X208102687Y-93638823D01*
X208054024Y-93799242D01*
X207983114Y-93931906D01*
X207975004Y-93947078D01*
X207868659Y-94076659D01*
X207739078Y-94183004D01*
X207739076Y-94183005D01*
X207591242Y-94262024D01*
X207430823Y-94310687D01*
X207305804Y-94323000D01*
X207222196Y-94323000D01*
X207097177Y-94310687D01*
X206936758Y-94262024D01*
X206788924Y-94183005D01*
X206788922Y-94183004D01*
X206659341Y-94076659D01*
X206552996Y-93947078D01*
X206544886Y-93931906D01*
X206473976Y-93799242D01*
X206425313Y-93638823D01*
X206408883Y-93472000D01*
X206425313Y-93305177D01*
X206473976Y-93144758D01*
X206552995Y-92996924D01*
X206552996Y-92996922D01*
X206659341Y-92867341D01*
X206788922Y-92760996D01*
X206831900Y-92738024D01*
X206936758Y-92681976D01*
X207097177Y-92633313D01*
X207222196Y-92621000D01*
X207305804Y-92621000D01*
X207430823Y-92633313D01*
X207430823Y-92633313D01*
G37*
G36*
X242131720Y-91673520D02*
G01*
X242320881Y-91730901D01*
X242495212Y-91824083D01*
X242648015Y-91949485D01*
X242773417Y-92102288D01*
X242780117Y-92114823D01*
X242866598Y-92276617D01*
X242866599Y-92276620D01*
X242923980Y-92465781D01*
X242938500Y-92613207D01*
X242938500Y-92806794D01*
X242923980Y-92954220D01*
X242866599Y-93143381D01*
X242773417Y-93317712D01*
X242648015Y-93470515D01*
X242495212Y-93595917D01*
X242438930Y-93626000D01*
X242320883Y-93689098D01*
X242320880Y-93689099D01*
X242131719Y-93746480D01*
X241935000Y-93765855D01*
X241738280Y-93746480D01*
X241549119Y-93689099D01*
X241374788Y-93595917D01*
X241221985Y-93470515D01*
X241096583Y-93317712D01*
X241040609Y-93212991D01*
X241003402Y-93143383D01*
X240977036Y-93056466D01*
X240946020Y-92954219D01*
X240931784Y-92809674D01*
X240931500Y-92806794D01*
X240931500Y-92613205D01*
X240946020Y-92465782D01*
X240946020Y-92465780D01*
X241003401Y-92276619D01*
X241096583Y-92102288D01*
X241221985Y-91949485D01*
X241374788Y-91824083D01*
X241549120Y-91730901D01*
X241738281Y-91673520D01*
X241935000Y-91654145D01*
X242131720Y-91673520D01*
X242131720Y-91673520D01*
G37*
G36*
X239591720Y-91673520D02*
G01*
X239780881Y-91730901D01*
X239955212Y-91824083D01*
X240108015Y-91949485D01*
X240233417Y-92102288D01*
X240240117Y-92114823D01*
X240326598Y-92276617D01*
X240326599Y-92276620D01*
X240383980Y-92465781D01*
X240398500Y-92613207D01*
X240398500Y-92806794D01*
X240383980Y-92954220D01*
X240326599Y-93143381D01*
X240233417Y-93317712D01*
X240108015Y-93470515D01*
X239955212Y-93595917D01*
X239898930Y-93626000D01*
X239780883Y-93689098D01*
X239780880Y-93689099D01*
X239591719Y-93746480D01*
X239395000Y-93765855D01*
X239198280Y-93746480D01*
X239009119Y-93689099D01*
X238834788Y-93595917D01*
X238681985Y-93470515D01*
X238556583Y-93317712D01*
X238500609Y-93212991D01*
X238463402Y-93143383D01*
X238437036Y-93056466D01*
X238406020Y-92954219D01*
X238391784Y-92809674D01*
X238391500Y-92806794D01*
X238391500Y-92613205D01*
X238406020Y-92465782D01*
X238406020Y-92465780D01*
X238463401Y-92276619D01*
X238556583Y-92102288D01*
X238681985Y-91949485D01*
X238834788Y-91824083D01*
X239009120Y-91730901D01*
X239198281Y-91673520D01*
X239395000Y-91654145D01*
X239591720Y-91673520D01*
X239591720Y-91673520D01*
G37*
G36*
X245478500Y-93761000D02*
G01*
X243471500Y-93761000D01*
X243471500Y-91659000D01*
X245478500Y-91659000D01*
X245478500Y-93761000D01*
X245478500Y-93761000D01*
G37*
G36*
X252397585Y-90553802D02*
G01*
X252547410Y-90583604D01*
X252829674Y-90700521D01*
X253083705Y-90870259D01*
X253299741Y-91086295D01*
X253469479Y-91340326D01*
X253586396Y-91622590D01*
X253646000Y-91922240D01*
X253646000Y-92227760D01*
X253586396Y-92527410D01*
X253469479Y-92809674D01*
X253299741Y-93063705D01*
X253083705Y-93279741D01*
X252829674Y-93449479D01*
X252547410Y-93566396D01*
X252398998Y-93595917D01*
X252247761Y-93626000D01*
X251942239Y-93626000D01*
X251791002Y-93595917D01*
X251642590Y-93566396D01*
X251360326Y-93449479D01*
X251106295Y-93279741D01*
X250890259Y-93063705D01*
X250720521Y-92809674D01*
X250603604Y-92527410D01*
X250544000Y-92227760D01*
X250544000Y-91922240D01*
X250603604Y-91622590D01*
X250720521Y-91340326D01*
X250890259Y-91086295D01*
X251106295Y-90870259D01*
X251360326Y-90700521D01*
X251642590Y-90583604D01*
X251792415Y-90553802D01*
X251942239Y-90524000D01*
X252247761Y-90524000D01*
X252397585Y-90553802D01*
X252397585Y-90553802D01*
G37*
G36*
X185530442Y-91815518D02*
G01*
X185596627Y-91822037D01*
X185766466Y-91873557D01*
X185922991Y-91957222D01*
X185958729Y-91986552D01*
X186060186Y-92069814D01*
X186143448Y-92171271D01*
X186172778Y-92207009D01*
X186256443Y-92363534D01*
X186307963Y-92533373D01*
X186325359Y-92710000D01*
X186307963Y-92886627D01*
X186256443Y-93056466D01*
X186172778Y-93212991D01*
X186143448Y-93248729D01*
X186060186Y-93350186D01*
X185958729Y-93433448D01*
X185922991Y-93462778D01*
X185766466Y-93546443D01*
X185596627Y-93597963D01*
X185530442Y-93604482D01*
X185464260Y-93611000D01*
X185375740Y-93611000D01*
X185309557Y-93604481D01*
X185243373Y-93597963D01*
X185073534Y-93546443D01*
X184917009Y-93462778D01*
X184881271Y-93433448D01*
X184779814Y-93350186D01*
X184696552Y-93248729D01*
X184667222Y-93212991D01*
X184583557Y-93056466D01*
X184532037Y-92886627D01*
X184514641Y-92710000D01*
X184532037Y-92533373D01*
X184583557Y-92363534D01*
X184667222Y-92207009D01*
X184696552Y-92171271D01*
X184779814Y-92069814D01*
X184881271Y-91986552D01*
X184917009Y-91957222D01*
X185073534Y-91873557D01*
X185243373Y-91822037D01*
X185309558Y-91815518D01*
X185375740Y-91809000D01*
X185464260Y-91809000D01*
X185530442Y-91815518D01*
X185530442Y-91815518D01*
G37*
G36*
X227896823Y-91109313D02*
G01*
X228057242Y-91157976D01*
X228189906Y-91228886D01*
X228205078Y-91236996D01*
X228334659Y-91343341D01*
X228441004Y-91472922D01*
X228441005Y-91472924D01*
X228520024Y-91620758D01*
X228568687Y-91781177D01*
X228585117Y-91948000D01*
X228568687Y-92114823D01*
X228520024Y-92275242D01*
X228519287Y-92276620D01*
X228441004Y-92423078D01*
X228334659Y-92552659D01*
X228205078Y-92659004D01*
X228205076Y-92659005D01*
X228057242Y-92738024D01*
X227896823Y-92786687D01*
X227771804Y-92799000D01*
X226888196Y-92799000D01*
X226763177Y-92786687D01*
X226602758Y-92738024D01*
X226454924Y-92659005D01*
X226454922Y-92659004D01*
X226325341Y-92552659D01*
X226218996Y-92423078D01*
X226140713Y-92276620D01*
X226139976Y-92275242D01*
X226091313Y-92114823D01*
X226074883Y-91948000D01*
X226091313Y-91781177D01*
X226139976Y-91620758D01*
X226218995Y-91472924D01*
X226218996Y-91472922D01*
X226325341Y-91343341D01*
X226454922Y-91236996D01*
X226470094Y-91228886D01*
X226602758Y-91157976D01*
X226763177Y-91109313D01*
X226888196Y-91097000D01*
X227771804Y-91097000D01*
X227896823Y-91109313D01*
X227896823Y-91109313D01*
G37*
G36*
X236201000Y-92799000D02*
G01*
X233699000Y-92799000D01*
X233699000Y-91097000D01*
X236201000Y-91097000D01*
X236201000Y-92799000D01*
X236201000Y-92799000D01*
G37*
G36*
X207430823Y-90093313D02*
G01*
X207591242Y-90141976D01*
X207696100Y-90198024D01*
X207739078Y-90220996D01*
X207868659Y-90327341D01*
X207975004Y-90456922D01*
X207975005Y-90456924D01*
X208054024Y-90604758D01*
X208102687Y-90765177D01*
X208119117Y-90932000D01*
X208102687Y-91098823D01*
X208054024Y-91259242D01*
X208009072Y-91343341D01*
X207975004Y-91407078D01*
X207868659Y-91536659D01*
X207739078Y-91643004D01*
X207739076Y-91643005D01*
X207591242Y-91722024D01*
X207430823Y-91770687D01*
X207305804Y-91783000D01*
X207222196Y-91783000D01*
X207097177Y-91770687D01*
X206936758Y-91722024D01*
X206788924Y-91643005D01*
X206788922Y-91643004D01*
X206659341Y-91536659D01*
X206552996Y-91407078D01*
X206518928Y-91343341D01*
X206473976Y-91259242D01*
X206425313Y-91098823D01*
X206408883Y-90932000D01*
X206425313Y-90765177D01*
X206473976Y-90604758D01*
X206552995Y-90456924D01*
X206552996Y-90456922D01*
X206659341Y-90327341D01*
X206788922Y-90220996D01*
X206831900Y-90198024D01*
X206936758Y-90141976D01*
X207097177Y-90093313D01*
X207222196Y-90081000D01*
X207305804Y-90081000D01*
X207430823Y-90093313D01*
X207430823Y-90093313D01*
G37*
G36*
X192875000Y-91783000D02*
G01*
X191173000Y-91783000D01*
X191173000Y-90081000D01*
X192875000Y-90081000D01*
X192875000Y-91783000D01*
X192875000Y-91783000D01*
G37*
G36*
X185530443Y-89275519D02*
G01*
X185596627Y-89282037D01*
X185766466Y-89333557D01*
X185922991Y-89417222D01*
X185958729Y-89446552D01*
X186060186Y-89529814D01*
X186143448Y-89631271D01*
X186172778Y-89667009D01*
X186256443Y-89823534D01*
X186307963Y-89993373D01*
X186325359Y-90170000D01*
X186307963Y-90346627D01*
X186256443Y-90516466D01*
X186172778Y-90672991D01*
X186143448Y-90708729D01*
X186060186Y-90810186D01*
X185958729Y-90893448D01*
X185922991Y-90922778D01*
X185766466Y-91006443D01*
X185596627Y-91057963D01*
X185530442Y-91064482D01*
X185464260Y-91071000D01*
X185375740Y-91071000D01*
X185309558Y-91064482D01*
X185243373Y-91057963D01*
X185073534Y-91006443D01*
X184917009Y-90922778D01*
X184881271Y-90893448D01*
X184779814Y-90810186D01*
X184696552Y-90708729D01*
X184667222Y-90672991D01*
X184583557Y-90516466D01*
X184532037Y-90346627D01*
X184514641Y-90170000D01*
X184532037Y-89993373D01*
X184583557Y-89823534D01*
X184667222Y-89667009D01*
X184696552Y-89631271D01*
X184779814Y-89529814D01*
X184881271Y-89446552D01*
X184917009Y-89417222D01*
X185073534Y-89333557D01*
X185243373Y-89282037D01*
X185309557Y-89275519D01*
X185375740Y-89269000D01*
X185464260Y-89269000D01*
X185530443Y-89275519D01*
X185530443Y-89275519D01*
G37*
G36*
X227896823Y-88569313D02*
G01*
X228057242Y-88617976D01*
X228189906Y-88688886D01*
X228205078Y-88696996D01*
X228334659Y-88803341D01*
X228441004Y-88932922D01*
X228441005Y-88932924D01*
X228520024Y-89080758D01*
X228568687Y-89241177D01*
X228585117Y-89408000D01*
X228568687Y-89574823D01*
X228520024Y-89735242D01*
X228472832Y-89823532D01*
X228441004Y-89883078D01*
X228334659Y-90012659D01*
X228205078Y-90119004D01*
X228205076Y-90119005D01*
X228057242Y-90198024D01*
X227896823Y-90246687D01*
X227771804Y-90259000D01*
X226888196Y-90259000D01*
X226763177Y-90246687D01*
X226602758Y-90198024D01*
X226454924Y-90119005D01*
X226454922Y-90119004D01*
X226325341Y-90012659D01*
X226218996Y-89883078D01*
X226187168Y-89823532D01*
X226139976Y-89735242D01*
X226091313Y-89574823D01*
X226074883Y-89408000D01*
X226091313Y-89241177D01*
X226139976Y-89080758D01*
X226218995Y-88932924D01*
X226218996Y-88932922D01*
X226325341Y-88803341D01*
X226454922Y-88696996D01*
X226470094Y-88688886D01*
X226602758Y-88617976D01*
X226763177Y-88569313D01*
X226888196Y-88557000D01*
X227771804Y-88557000D01*
X227896823Y-88569313D01*
X227896823Y-88569313D01*
G37*
G36*
X235516823Y-88569313D02*
G01*
X235677242Y-88617976D01*
X235809906Y-88688886D01*
X235825078Y-88696996D01*
X235954659Y-88803341D01*
X236061004Y-88932922D01*
X236061005Y-88932924D01*
X236140024Y-89080758D01*
X236188687Y-89241177D01*
X236205117Y-89408000D01*
X236188687Y-89574823D01*
X236140024Y-89735242D01*
X236092832Y-89823532D01*
X236061004Y-89883078D01*
X235954659Y-90012659D01*
X235825078Y-90119004D01*
X235825076Y-90119005D01*
X235677242Y-90198024D01*
X235516823Y-90246687D01*
X235391804Y-90259000D01*
X234508196Y-90259000D01*
X234383177Y-90246687D01*
X234222758Y-90198024D01*
X234074924Y-90119005D01*
X234074922Y-90119004D01*
X233945341Y-90012659D01*
X233838996Y-89883078D01*
X233807168Y-89823532D01*
X233759976Y-89735242D01*
X233711313Y-89574823D01*
X233694883Y-89408000D01*
X233711313Y-89241177D01*
X233759976Y-89080758D01*
X233838995Y-88932924D01*
X233838996Y-88932922D01*
X233945341Y-88803341D01*
X234074922Y-88696996D01*
X234090094Y-88688886D01*
X234222758Y-88617976D01*
X234383177Y-88569313D01*
X234508196Y-88557000D01*
X235391804Y-88557000D01*
X235516823Y-88569313D01*
X235516823Y-88569313D01*
G37*
G36*
X222652298Y-86742037D02*
G01*
X222729635Y-86749654D01*
X222946600Y-86815470D01*
X222946602Y-86815471D01*
X223146555Y-86922347D01*
X223321818Y-87066182D01*
X223465653Y-87241445D01*
X223508839Y-87322242D01*
X223572530Y-87441400D01*
X223638346Y-87658365D01*
X223660569Y-87884000D01*
X223638346Y-88109635D01*
X223631262Y-88132989D01*
X223572529Y-88326602D01*
X223465653Y-88526555D01*
X223321818Y-88701818D01*
X223146555Y-88845653D01*
X222946602Y-88952529D01*
X222946600Y-88952530D01*
X222729635Y-89018346D01*
X222673271Y-89023897D01*
X222560545Y-89035000D01*
X222447455Y-89035000D01*
X222334729Y-89023897D01*
X222278365Y-89018346D01*
X222061400Y-88952530D01*
X222061398Y-88952529D01*
X221861445Y-88845653D01*
X221686182Y-88701818D01*
X221542347Y-88526555D01*
X221435471Y-88326602D01*
X221376739Y-88132989D01*
X221369654Y-88109635D01*
X221347431Y-87884000D01*
X221369654Y-87658365D01*
X221435470Y-87441400D01*
X221499161Y-87322242D01*
X221542347Y-87241445D01*
X221686182Y-87066182D01*
X221861445Y-86922347D01*
X222061398Y-86815471D01*
X222061400Y-86815470D01*
X222278365Y-86749654D01*
X222355702Y-86742037D01*
X222447455Y-86733000D01*
X222560545Y-86733000D01*
X222652298Y-86742037D01*
X222652298Y-86742037D01*
G37*
G36*
X213495000Y-89035000D02*
G01*
X211193000Y-89035000D01*
X211193000Y-86733000D01*
X213495000Y-86733000D01*
X213495000Y-89035000D01*
X213495000Y-89035000D01*
G37*
G36*
X185530442Y-86735518D02*
G01*
X185596627Y-86742037D01*
X185766466Y-86793557D01*
X185922991Y-86877222D01*
X185958729Y-86906552D01*
X186060186Y-86989814D01*
X186133226Y-87078815D01*
X186172778Y-87127009D01*
X186256443Y-87283534D01*
X186307963Y-87453373D01*
X186325359Y-87630000D01*
X186307963Y-87806627D01*
X186256443Y-87976466D01*
X186172778Y-88132991D01*
X186143448Y-88168729D01*
X186060186Y-88270186D01*
X185958729Y-88353448D01*
X185922991Y-88382778D01*
X185766466Y-88466443D01*
X185596627Y-88517963D01*
X185530442Y-88524482D01*
X185464260Y-88531000D01*
X185375740Y-88531000D01*
X185309558Y-88524482D01*
X185243373Y-88517963D01*
X185073534Y-88466443D01*
X184917009Y-88382778D01*
X184881271Y-88353448D01*
X184779814Y-88270186D01*
X184696552Y-88168729D01*
X184667222Y-88132991D01*
X184583557Y-87976466D01*
X184532037Y-87806627D01*
X184514641Y-87630000D01*
X184532037Y-87453373D01*
X184583557Y-87283534D01*
X184667222Y-87127009D01*
X184706774Y-87078815D01*
X184779814Y-86989814D01*
X184881271Y-86906552D01*
X184917009Y-86877222D01*
X185073534Y-86793557D01*
X185243373Y-86742037D01*
X185309558Y-86735518D01*
X185375740Y-86729000D01*
X185464260Y-86729000D01*
X185530442Y-86735518D01*
X185530442Y-86735518D01*
G37*
G36*
X251708228Y-86176703D02*
G01*
X251863100Y-86240853D01*
X252002481Y-86333985D01*
X252121015Y-86452519D01*
X252214147Y-86591900D01*
X252278297Y-86746772D01*
X252311000Y-86911184D01*
X252311000Y-87078816D01*
X252278297Y-87243228D01*
X252214147Y-87398100D01*
X252121015Y-87537481D01*
X252002481Y-87656015D01*
X251863100Y-87749147D01*
X251708228Y-87813297D01*
X251543816Y-87846000D01*
X251376184Y-87846000D01*
X251211772Y-87813297D01*
X251056900Y-87749147D01*
X250917519Y-87656015D01*
X250798985Y-87537481D01*
X250705853Y-87398100D01*
X250641703Y-87243228D01*
X250609000Y-87078816D01*
X250609000Y-86911184D01*
X250641703Y-86746772D01*
X250705853Y-86591900D01*
X250798985Y-86452519D01*
X250917519Y-86333985D01*
X251056900Y-86240853D01*
X251211772Y-86176703D01*
X251376184Y-86144000D01*
X251543816Y-86144000D01*
X251708228Y-86176703D01*
X251708228Y-86176703D01*
G37*
G36*
X241466823Y-86156313D02*
G01*
X241627242Y-86204976D01*
X241694361Y-86240852D01*
X241775078Y-86283996D01*
X241904659Y-86390341D01*
X242011004Y-86519922D01*
X242011005Y-86519924D01*
X242090024Y-86667758D01*
X242138687Y-86828177D01*
X242155117Y-86995000D01*
X242138687Y-87161823D01*
X242090024Y-87322242D01*
X242049477Y-87398100D01*
X242011004Y-87470078D01*
X241904659Y-87599659D01*
X241775078Y-87706004D01*
X241775076Y-87706005D01*
X241627242Y-87785024D01*
X241466823Y-87833687D01*
X241341804Y-87846000D01*
X241258196Y-87846000D01*
X241133177Y-87833687D01*
X240972758Y-87785024D01*
X240824924Y-87706005D01*
X240824922Y-87706004D01*
X240695341Y-87599659D01*
X240588996Y-87470078D01*
X240550523Y-87398100D01*
X240509976Y-87322242D01*
X240461313Y-87161823D01*
X240444883Y-86995000D01*
X240461313Y-86828177D01*
X240509976Y-86667758D01*
X240588995Y-86519924D01*
X240588996Y-86519922D01*
X240695341Y-86390341D01*
X240824922Y-86283996D01*
X240905639Y-86240852D01*
X240972758Y-86204976D01*
X241133177Y-86156313D01*
X241258196Y-86144000D01*
X241341804Y-86144000D01*
X241466823Y-86156313D01*
X241466823Y-86156313D01*
G37*
G36*
X227896823Y-86029313D02*
G01*
X228057242Y-86077976D01*
X228180764Y-86144000D01*
X228205078Y-86156996D01*
X228334659Y-86263341D01*
X228441004Y-86392922D01*
X228441005Y-86392924D01*
X228520024Y-86540758D01*
X228568687Y-86701177D01*
X228585117Y-86868000D01*
X228568687Y-87034823D01*
X228520024Y-87195242D01*
X228495328Y-87241445D01*
X228441004Y-87343078D01*
X228334659Y-87472659D01*
X228205078Y-87579004D01*
X228205076Y-87579005D01*
X228057242Y-87658024D01*
X227896823Y-87706687D01*
X227771804Y-87719000D01*
X226888196Y-87719000D01*
X226763177Y-87706687D01*
X226602758Y-87658024D01*
X226454924Y-87579005D01*
X226454922Y-87579004D01*
X226325341Y-87472659D01*
X226218996Y-87343078D01*
X226164672Y-87241445D01*
X226139976Y-87195242D01*
X226091313Y-87034823D01*
X226074883Y-86868000D01*
X226091313Y-86701177D01*
X226139976Y-86540758D01*
X226218995Y-86392924D01*
X226218996Y-86392922D01*
X226325341Y-86263341D01*
X226454922Y-86156996D01*
X226479236Y-86144000D01*
X226602758Y-86077976D01*
X226763177Y-86029313D01*
X226888196Y-86017000D01*
X227771804Y-86017000D01*
X227896823Y-86029313D01*
X227896823Y-86029313D01*
G37*
G36*
X235516823Y-86029313D02*
G01*
X235677242Y-86077976D01*
X235800764Y-86144000D01*
X235825078Y-86156996D01*
X235954659Y-86263341D01*
X236061004Y-86392922D01*
X236061005Y-86392924D01*
X236140024Y-86540758D01*
X236188687Y-86701177D01*
X236205117Y-86868000D01*
X236188687Y-87034823D01*
X236140024Y-87195242D01*
X236115328Y-87241445D01*
X236061004Y-87343078D01*
X235954659Y-87472659D01*
X235825078Y-87579004D01*
X235825076Y-87579005D01*
X235677242Y-87658024D01*
X235516823Y-87706687D01*
X235391804Y-87719000D01*
X234508196Y-87719000D01*
X234383177Y-87706687D01*
X234222758Y-87658024D01*
X234074924Y-87579005D01*
X234074922Y-87579004D01*
X233945341Y-87472659D01*
X233838996Y-87343078D01*
X233784672Y-87241445D01*
X233759976Y-87195242D01*
X233711313Y-87034823D01*
X233694883Y-86868000D01*
X233711313Y-86701177D01*
X233759976Y-86540758D01*
X233838995Y-86392924D01*
X233838996Y-86392922D01*
X233945341Y-86263341D01*
X234074922Y-86156996D01*
X234099236Y-86144000D01*
X234222758Y-86077976D01*
X234383177Y-86029313D01*
X234508196Y-86017000D01*
X235391804Y-86017000D01*
X235516823Y-86029313D01*
X235516823Y-86029313D01*
G37*
G36*
X185530442Y-84195518D02*
G01*
X185596627Y-84202037D01*
X185766466Y-84253557D01*
X185922991Y-84337222D01*
X185958729Y-84366552D01*
X186060186Y-84449814D01*
X186143448Y-84551271D01*
X186172778Y-84587009D01*
X186256443Y-84743534D01*
X186307963Y-84913373D01*
X186325359Y-85090000D01*
X186307963Y-85266627D01*
X186256443Y-85436466D01*
X186172778Y-85592991D01*
X186143448Y-85628729D01*
X186060186Y-85730186D01*
X185958729Y-85813448D01*
X185922991Y-85842778D01*
X185766466Y-85926443D01*
X185596627Y-85977963D01*
X185530442Y-85984482D01*
X185464260Y-85991000D01*
X185375740Y-85991000D01*
X185309558Y-85984482D01*
X185243373Y-85977963D01*
X185073534Y-85926443D01*
X184917009Y-85842778D01*
X184881271Y-85813448D01*
X184779814Y-85730186D01*
X184696552Y-85628729D01*
X184667222Y-85592991D01*
X184583557Y-85436466D01*
X184532037Y-85266627D01*
X184514641Y-85090000D01*
X184532037Y-84913373D01*
X184583557Y-84743534D01*
X184667222Y-84587009D01*
X184696552Y-84551271D01*
X184779814Y-84449814D01*
X184881271Y-84366552D01*
X184917009Y-84337222D01*
X185073534Y-84253557D01*
X185243373Y-84202037D01*
X185309558Y-84195518D01*
X185375740Y-84189000D01*
X185464260Y-84189000D01*
X185530442Y-84195518D01*
X185530442Y-84195518D01*
G37*
G36*
X241466823Y-82346313D02*
G01*
X241627242Y-82394976D01*
X241694361Y-82430852D01*
X241775078Y-82473996D01*
X241904659Y-82580341D01*
X242011004Y-82709922D01*
X242011005Y-82709924D01*
X242090024Y-82857758D01*
X242138687Y-83018177D01*
X242155117Y-83185000D01*
X242138687Y-83351823D01*
X242090024Y-83512242D01*
X242049477Y-83588100D01*
X242011004Y-83660078D01*
X241904659Y-83789659D01*
X241775078Y-83896004D01*
X241775076Y-83896005D01*
X241627242Y-83975024D01*
X241466823Y-84023687D01*
X241341804Y-84036000D01*
X241258196Y-84036000D01*
X241133177Y-84023687D01*
X240972758Y-83975024D01*
X240824924Y-83896005D01*
X240824922Y-83896004D01*
X240695341Y-83789659D01*
X240588996Y-83660078D01*
X240550523Y-83588100D01*
X240509976Y-83512242D01*
X240461313Y-83351823D01*
X240444883Y-83185000D01*
X240461313Y-83018177D01*
X240509976Y-82857758D01*
X240588995Y-82709924D01*
X240588996Y-82709922D01*
X240695341Y-82580341D01*
X240824922Y-82473996D01*
X240905639Y-82430852D01*
X240972758Y-82394976D01*
X241133177Y-82346313D01*
X241258196Y-82334000D01*
X241341804Y-82334000D01*
X241466823Y-82346313D01*
X241466823Y-82346313D01*
G37*
G36*
X251708228Y-82366703D02*
G01*
X251863100Y-82430853D01*
X252002481Y-82523985D01*
X252121015Y-82642519D01*
X252214147Y-82781900D01*
X252278297Y-82936772D01*
X252311000Y-83101184D01*
X252311000Y-83268816D01*
X252278297Y-83433228D01*
X252214147Y-83588100D01*
X252121015Y-83727481D01*
X252002481Y-83846015D01*
X251863100Y-83939147D01*
X251708228Y-84003297D01*
X251543816Y-84036000D01*
X251376184Y-84036000D01*
X251211772Y-84003297D01*
X251056900Y-83939147D01*
X250917519Y-83846015D01*
X250798985Y-83727481D01*
X250705853Y-83588100D01*
X250641703Y-83433228D01*
X250609000Y-83268816D01*
X250609000Y-83101184D01*
X250641703Y-82936772D01*
X250705853Y-82781900D01*
X250798985Y-82642519D01*
X250917519Y-82523985D01*
X251056900Y-82430853D01*
X251211772Y-82366703D01*
X251376184Y-82334000D01*
X251543816Y-82334000D01*
X251708228Y-82366703D01*
X251708228Y-82366703D01*
G37*
G36*
X213496626Y-74654037D02*
G01*
X213666465Y-74705557D01*
X213666467Y-74705558D01*
X213822989Y-74789221D01*
X213960186Y-74901814D01*
X214043448Y-75003271D01*
X214072778Y-75039009D01*
X214156443Y-75195534D01*
X214207963Y-75365373D01*
X214221000Y-75497742D01*
X214221000Y-75886257D01*
X214207963Y-76018626D01*
X214156443Y-76188466D01*
X214072778Y-76344991D01*
X214043448Y-76380729D01*
X213960186Y-76482186D01*
X213865250Y-76560097D01*
X213822991Y-76594778D01*
X213666466Y-76678443D01*
X213496627Y-76729963D01*
X213320000Y-76747359D01*
X213143374Y-76729963D01*
X212973535Y-76678443D01*
X212817010Y-76594778D01*
X212679815Y-76482185D01*
X212567222Y-76344991D01*
X212483557Y-76188466D01*
X212432037Y-76018627D01*
X212419000Y-75886258D01*
X212419000Y-75497743D01*
X212432037Y-75365374D01*
X212483557Y-75195535D01*
X212487045Y-75189009D01*
X212567221Y-75039011D01*
X212679814Y-74901814D01*
X212781271Y-74818552D01*
X212817009Y-74789222D01*
X212973534Y-74705557D01*
X213143373Y-74654037D01*
X213320000Y-74636641D01*
X213496626Y-74654037D01*
X213496626Y-74654037D01*
G37*
G36*
X211578600Y-74644989D02*
G01*
X211611652Y-74655015D01*
X211642103Y-74671292D01*
X211668799Y-74693201D01*
X211690708Y-74719897D01*
X211706985Y-74750348D01*
X211717011Y-74783400D01*
X211721000Y-74823903D01*
X211721000Y-76560097D01*
X211717011Y-76600600D01*
X211706985Y-76633652D01*
X211690708Y-76664103D01*
X211668799Y-76690799D01*
X211642103Y-76712708D01*
X211611652Y-76728985D01*
X211578600Y-76739011D01*
X211538097Y-76743000D01*
X210101903Y-76743000D01*
X210061400Y-76739011D01*
X210028348Y-76728985D01*
X209997897Y-76712708D01*
X209971201Y-76690799D01*
X209949292Y-76664103D01*
X209933015Y-76633652D01*
X209922989Y-76600600D01*
X209919000Y-76560097D01*
X209919000Y-74823903D01*
X209922989Y-74783400D01*
X209933015Y-74750348D01*
X209949292Y-74719897D01*
X209971201Y-74693201D01*
X209997897Y-74671292D01*
X210028348Y-74655015D01*
X210061400Y-74644989D01*
X210101903Y-74641000D01*
X211538097Y-74641000D01*
X211578600Y-74644989D01*
X211578600Y-74644989D01*
G37*
G36*
X223913000Y-76593000D02*
G01*
X222111000Y-76593000D01*
X222111000Y-74791000D01*
X223913000Y-74791000D01*
X223913000Y-76593000D01*
X223913000Y-76593000D01*
G37*
G36*
X225662442Y-74797518D02*
G01*
X225728627Y-74804037D01*
X225898466Y-74855557D01*
X226054991Y-74939222D01*
X226090729Y-74968552D01*
X226192186Y-75051814D01*
X226275448Y-75153271D01*
X226304778Y-75189009D01*
X226388443Y-75345534D01*
X226439963Y-75515373D01*
X226457359Y-75692000D01*
X226439963Y-75868627D01*
X226388443Y-76038466D01*
X226304778Y-76194991D01*
X226275448Y-76230729D01*
X226192186Y-76332186D01*
X226090729Y-76415448D01*
X226054991Y-76444778D01*
X225898466Y-76528443D01*
X225728627Y-76579963D01*
X225662443Y-76586481D01*
X225596260Y-76593000D01*
X225507740Y-76593000D01*
X225441557Y-76586481D01*
X225375373Y-76579963D01*
X225205534Y-76528443D01*
X225049009Y-76444778D01*
X225013271Y-76415448D01*
X224911814Y-76332186D01*
X224828552Y-76230729D01*
X224799222Y-76194991D01*
X224715557Y-76038466D01*
X224664037Y-75868627D01*
X224646641Y-75692000D01*
X224664037Y-75515373D01*
X224715557Y-75345534D01*
X224799222Y-75189009D01*
X224828552Y-75153271D01*
X224911814Y-75051814D01*
X225013271Y-74968552D01*
X225049009Y-74939222D01*
X225205534Y-74855557D01*
X225375373Y-74804037D01*
X225441558Y-74797518D01*
X225507740Y-74791000D01*
X225596260Y-74791000D01*
X225662442Y-74797518D01*
X225662442Y-74797518D01*
G37*
G36*
X200770442Y-74797518D02*
G01*
X200836627Y-74804037D01*
X201006466Y-74855557D01*
X201162991Y-74939222D01*
X201198729Y-74968552D01*
X201300186Y-75051814D01*
X201383448Y-75153271D01*
X201412778Y-75189009D01*
X201496443Y-75345534D01*
X201547963Y-75515373D01*
X201565359Y-75692000D01*
X201547963Y-75868627D01*
X201496443Y-76038466D01*
X201412778Y-76194991D01*
X201383448Y-76230729D01*
X201300186Y-76332186D01*
X201198729Y-76415448D01*
X201162991Y-76444778D01*
X201006466Y-76528443D01*
X200836627Y-76579963D01*
X200770443Y-76586481D01*
X200704260Y-76593000D01*
X200615740Y-76593000D01*
X200549557Y-76586481D01*
X200483373Y-76579963D01*
X200313534Y-76528443D01*
X200157009Y-76444778D01*
X200121271Y-76415448D01*
X200019814Y-76332186D01*
X199936552Y-76230729D01*
X199907222Y-76194991D01*
X199823557Y-76038466D01*
X199772037Y-75868627D01*
X199754641Y-75692000D01*
X199772037Y-75515373D01*
X199823557Y-75345534D01*
X199907222Y-75189009D01*
X199936552Y-75153271D01*
X200019814Y-75051814D01*
X200121271Y-74968552D01*
X200157009Y-74939222D01*
X200313534Y-74855557D01*
X200483373Y-74804037D01*
X200549558Y-74797518D01*
X200615740Y-74791000D01*
X200704260Y-74791000D01*
X200770442Y-74797518D01*
X200770442Y-74797518D01*
G37*
G36*
X199021000Y-76593000D02*
G01*
X197219000Y-76593000D01*
X197219000Y-74791000D01*
X199021000Y-74791000D01*
X199021000Y-76593000D01*
X199021000Y-76593000D01*
G37*
M02*
