G04 #@! TF.GenerationSoftware,KiCad,Pcbnew,(5.1.4)-1*
G04 #@! TF.CreationDate,2020-06-30T20:05:52+02:00*
G04 #@! TF.ProjectId,ReflowControllerREV1,5265666c-6f77-4436-9f6e-74726f6c6c65,rev?*
G04 #@! TF.SameCoordinates,Original*
G04 #@! TF.FileFunction,Legend,Bot*
G04 #@! TF.FilePolarity,Positive*
%FSLAX46Y46*%
G04 Gerber Fmt 4.6, Leading zero omitted, Abs format (unit mm)*
G04 Created by KiCad (PCBNEW (5.1.4)-1) date 2020-06-30 20:05:52*
%MOMM*%
%LPD*%
G04 APERTURE LIST*
%ADD10C,0.120000*%
%ADD11C,0.150000*%
G04 APERTURE END LIST*
D10*
X185420000Y-123250000D02*
X186530000Y-123250000D01*
X186530000Y-123250000D02*
X186530000Y-121920000D01*
X175330000Y-123250000D02*
X175330000Y-102810000D01*
X175330000Y-102810000D02*
X183960000Y-102810000D01*
X183960000Y-123250000D02*
X183960000Y-102810000D01*
X175330000Y-123250000D02*
X183960000Y-123250000D01*
X175330000Y-105410000D02*
X183960000Y-105410000D01*
X175330000Y-107950000D02*
X183960000Y-107950000D01*
X175330000Y-110490000D02*
X183960000Y-110490000D01*
X175330000Y-113030000D02*
X183960000Y-113030000D01*
X175330000Y-115570000D02*
X183960000Y-115570000D01*
X175330000Y-118110000D02*
X183960000Y-118110000D01*
X175330000Y-120650000D02*
X183960000Y-120650000D01*
X183960000Y-103780000D02*
X184370000Y-103780000D01*
X183960000Y-104500000D02*
X184370000Y-104500000D01*
X183960000Y-106320000D02*
X184370000Y-106320000D01*
X183960000Y-107040000D02*
X184370000Y-107040000D01*
X183960000Y-108860000D02*
X184370000Y-108860000D01*
X183960000Y-109580000D02*
X184370000Y-109580000D01*
X183960000Y-111400000D02*
X184370000Y-111400000D01*
X183960000Y-112120000D02*
X184370000Y-112120000D01*
X183960000Y-113940000D02*
X184370000Y-113940000D01*
X183960000Y-114660000D02*
X184370000Y-114660000D01*
X183960000Y-116480000D02*
X184370000Y-116480000D01*
X183960000Y-117200000D02*
X184370000Y-117200000D01*
X183960000Y-119020000D02*
X184370000Y-119020000D01*
X183960000Y-119740000D02*
X184370000Y-119740000D01*
X183960000Y-121560000D02*
X184310000Y-121560000D01*
X183960000Y-122280000D02*
X184310000Y-122280000D01*
X175330000Y-120768100D02*
X183960000Y-120768100D01*
X175330000Y-120886195D02*
X183960000Y-120886195D01*
X175330000Y-121004290D02*
X183960000Y-121004290D01*
X175330000Y-121122385D02*
X183960000Y-121122385D01*
X175330000Y-121240480D02*
X183960000Y-121240480D01*
X175330000Y-121358575D02*
X183960000Y-121358575D01*
X175330000Y-121476670D02*
X183960000Y-121476670D01*
X175330000Y-121594765D02*
X183960000Y-121594765D01*
X175330000Y-121712860D02*
X183960000Y-121712860D01*
X175330000Y-121830955D02*
X183960000Y-121830955D01*
X175330000Y-121949050D02*
X183960000Y-121949050D01*
X175330000Y-122067145D02*
X183960000Y-122067145D01*
X175330000Y-122185240D02*
X183960000Y-122185240D01*
X175330000Y-122303335D02*
X183960000Y-122303335D01*
X175330000Y-122421430D02*
X183960000Y-122421430D01*
X175330000Y-122539525D02*
X183960000Y-122539525D01*
X175330000Y-122657620D02*
X183960000Y-122657620D01*
X175330000Y-122775715D02*
X183960000Y-122775715D01*
X175330000Y-122893810D02*
X183960000Y-122893810D01*
X175330000Y-123011905D02*
X183960000Y-123011905D01*
X175330000Y-123130000D02*
X183960000Y-123130000D01*
X185420000Y-96580000D02*
X186530000Y-96580000D01*
X186530000Y-96580000D02*
X186530000Y-95250000D01*
X175330000Y-96580000D02*
X175330000Y-83760000D01*
X175330000Y-83760000D02*
X183960000Y-83760000D01*
X183960000Y-96580000D02*
X183960000Y-83760000D01*
X175330000Y-96580000D02*
X183960000Y-96580000D01*
X175330000Y-86360000D02*
X183960000Y-86360000D01*
X175330000Y-88900000D02*
X183960000Y-88900000D01*
X175330000Y-91440000D02*
X183960000Y-91440000D01*
X175330000Y-93980000D02*
X183960000Y-93980000D01*
X183960000Y-84730000D02*
X184370000Y-84730000D01*
X183960000Y-85450000D02*
X184370000Y-85450000D01*
X183960000Y-87270000D02*
X184370000Y-87270000D01*
X183960000Y-87990000D02*
X184370000Y-87990000D01*
X183960000Y-89810000D02*
X184370000Y-89810000D01*
X183960000Y-90530000D02*
X184370000Y-90530000D01*
X183960000Y-92350000D02*
X184370000Y-92350000D01*
X183960000Y-93070000D02*
X184370000Y-93070000D01*
X183960000Y-94890000D02*
X184310000Y-94890000D01*
X183960000Y-95610000D02*
X184310000Y-95610000D01*
X175330000Y-94098100D02*
X183960000Y-94098100D01*
X175330000Y-94216195D02*
X183960000Y-94216195D01*
X175330000Y-94334290D02*
X183960000Y-94334290D01*
X175330000Y-94452385D02*
X183960000Y-94452385D01*
X175330000Y-94570480D02*
X183960000Y-94570480D01*
X175330000Y-94688575D02*
X183960000Y-94688575D01*
X175330000Y-94806670D02*
X183960000Y-94806670D01*
X175330000Y-94924765D02*
X183960000Y-94924765D01*
X175330000Y-95042860D02*
X183960000Y-95042860D01*
X175330000Y-95160955D02*
X183960000Y-95160955D01*
X175330000Y-95279050D02*
X183960000Y-95279050D01*
X175330000Y-95397145D02*
X183960000Y-95397145D01*
X175330000Y-95515240D02*
X183960000Y-95515240D01*
X175330000Y-95633335D02*
X183960000Y-95633335D01*
X175330000Y-95751430D02*
X183960000Y-95751430D01*
X175330000Y-95869525D02*
X183960000Y-95869525D01*
X175330000Y-95987620D02*
X183960000Y-95987620D01*
X175330000Y-96105715D02*
X183960000Y-96105715D01*
X175330000Y-96223810D02*
X183960000Y-96223810D01*
X175330000Y-96341905D02*
X183960000Y-96341905D01*
X175330000Y-96460000D02*
X183960000Y-96460000D01*
X200906748Y-103938000D02*
X201429252Y-103938000D01*
X200906748Y-105358000D02*
X201429252Y-105358000D01*
X197746252Y-123900000D02*
X197223748Y-123900000D01*
X197746252Y-122480000D02*
X197223748Y-122480000D01*
X239395000Y-93860000D02*
X239395000Y-96400000D01*
X241935000Y-93860000D02*
X241935000Y-96400000D01*
X244475000Y-93860000D02*
X244475000Y-96400000D01*
X236815000Y-110930000D02*
X236815000Y-112130000D01*
X236815000Y-108530000D02*
X236815000Y-109730000D01*
X236815000Y-106130000D02*
X236815000Y-107330000D01*
X247055000Y-110930000D02*
X247055000Y-112130000D01*
X247055000Y-108530000D02*
X247055000Y-109730000D01*
X247055000Y-106130000D02*
X247055000Y-107330000D01*
X237455000Y-112290000D02*
X236815000Y-112290000D01*
X239855000Y-112290000D02*
X238655000Y-112290000D01*
X242255000Y-112290000D02*
X241055000Y-112290000D01*
X244656000Y-112290000D02*
X243455000Y-112290000D01*
X247055000Y-112290000D02*
X245855000Y-112290000D01*
X236815000Y-96400000D02*
X236815000Y-105890000D01*
X247055000Y-96400000D02*
X247055000Y-105890000D01*
X247055000Y-105890000D02*
X236815000Y-105890000D01*
X247055000Y-96400000D02*
X236815000Y-96400000D01*
X221830000Y-96110000D02*
X221830000Y-95010000D01*
X223640000Y-96110000D02*
X221830000Y-96110000D01*
X223640000Y-97610000D02*
X223640000Y-96110000D01*
X215050000Y-96110000D02*
X215050000Y-90985000D01*
X213240000Y-96110000D02*
X215050000Y-96110000D01*
X213240000Y-97610000D02*
X213240000Y-96110000D01*
D11*
X184483333Y-100798380D02*
X184483333Y-101512666D01*
X184530952Y-101655523D01*
X184626190Y-101750761D01*
X184769047Y-101798380D01*
X184864285Y-101798380D01*
X184102380Y-100798380D02*
X183435714Y-100798380D01*
X183864285Y-101798380D01*
X184737333Y-82002380D02*
X184737333Y-82716666D01*
X184784952Y-82859523D01*
X184880190Y-82954761D01*
X185023047Y-83002380D01*
X185118285Y-83002380D01*
X183832571Y-82002380D02*
X184023047Y-82002380D01*
X184118285Y-82050000D01*
X184165904Y-82097619D01*
X184261142Y-82240476D01*
X184308761Y-82430952D01*
X184308761Y-82811904D01*
X184261142Y-82907142D01*
X184213523Y-82954761D01*
X184118285Y-83002380D01*
X183927809Y-83002380D01*
X183832571Y-82954761D01*
X183784952Y-82907142D01*
X183737333Y-82811904D01*
X183737333Y-82573809D01*
X183784952Y-82478571D01*
X183832571Y-82430952D01*
X183927809Y-82383333D01*
X184118285Y-82383333D01*
X184213523Y-82430952D01*
X184261142Y-82478571D01*
X184308761Y-82573809D01*
X201810857Y-106750380D02*
X202144190Y-106274190D01*
X202382285Y-106750380D02*
X202382285Y-105750380D01*
X202001333Y-105750380D01*
X201906095Y-105798000D01*
X201858476Y-105845619D01*
X201810857Y-105940857D01*
X201810857Y-106083714D01*
X201858476Y-106178952D01*
X201906095Y-106226571D01*
X202001333Y-106274190D01*
X202382285Y-106274190D01*
X200858476Y-106750380D02*
X201429904Y-106750380D01*
X201144190Y-106750380D02*
X201144190Y-105750380D01*
X201239428Y-105893238D01*
X201334666Y-105988476D01*
X201429904Y-106036095D01*
X200477523Y-105845619D02*
X200429904Y-105798000D01*
X200334666Y-105750380D01*
X200096571Y-105750380D01*
X200001333Y-105798000D01*
X199953714Y-105845619D01*
X199906095Y-105940857D01*
X199906095Y-106036095D01*
X199953714Y-106178952D01*
X200525142Y-106750380D01*
X199906095Y-106750380D01*
X198127857Y-121992380D02*
X198461190Y-121516190D01*
X198699285Y-121992380D02*
X198699285Y-120992380D01*
X198318333Y-120992380D01*
X198223095Y-121040000D01*
X198175476Y-121087619D01*
X198127857Y-121182857D01*
X198127857Y-121325714D01*
X198175476Y-121420952D01*
X198223095Y-121468571D01*
X198318333Y-121516190D01*
X198699285Y-121516190D01*
X197175476Y-121992380D02*
X197746904Y-121992380D01*
X197461190Y-121992380D02*
X197461190Y-120992380D01*
X197556428Y-121135238D01*
X197651666Y-121230476D01*
X197746904Y-121278095D01*
X196318333Y-121325714D02*
X196318333Y-121992380D01*
X196556428Y-120944761D02*
X196794523Y-121659047D01*
X196175476Y-121659047D01*
X242030238Y-113837619D02*
X242125476Y-113790000D01*
X242220714Y-113694761D01*
X242363571Y-113551904D01*
X242458809Y-113504285D01*
X242554047Y-113504285D01*
X242506428Y-113742380D02*
X242601666Y-113694761D01*
X242696904Y-113599523D01*
X242744523Y-113409047D01*
X242744523Y-113075714D01*
X242696904Y-112885238D01*
X242601666Y-112790000D01*
X242506428Y-112742380D01*
X242315952Y-112742380D01*
X242220714Y-112790000D01*
X242125476Y-112885238D01*
X242077857Y-113075714D01*
X242077857Y-113409047D01*
X242125476Y-113599523D01*
X242220714Y-113694761D01*
X242315952Y-113742380D01*
X242506428Y-113742380D01*
X241696904Y-112837619D02*
X241649285Y-112790000D01*
X241554047Y-112742380D01*
X241315952Y-112742380D01*
X241220714Y-112790000D01*
X241173095Y-112837619D01*
X241125476Y-112932857D01*
X241125476Y-113028095D01*
X241173095Y-113170952D01*
X241744523Y-113742380D01*
X241125476Y-113742380D01*
X218916238Y-109005619D02*
X219011476Y-108958000D01*
X219106714Y-108862761D01*
X219249571Y-108719904D01*
X219344809Y-108672285D01*
X219440047Y-108672285D01*
X219392428Y-108910380D02*
X219487666Y-108862761D01*
X219582904Y-108767523D01*
X219630523Y-108577047D01*
X219630523Y-108243714D01*
X219582904Y-108053238D01*
X219487666Y-107958000D01*
X219392428Y-107910380D01*
X219201952Y-107910380D01*
X219106714Y-107958000D01*
X219011476Y-108053238D01*
X218963857Y-108243714D01*
X218963857Y-108577047D01*
X219011476Y-108767523D01*
X219106714Y-108862761D01*
X219201952Y-108910380D01*
X219392428Y-108910380D01*
X218011476Y-108910380D02*
X218582904Y-108910380D01*
X218297190Y-108910380D02*
X218297190Y-107910380D01*
X218392428Y-108053238D01*
X218487666Y-108148476D01*
X218582904Y-108196095D01*
M02*
