G04 #@! TF.GenerationSoftware,KiCad,Pcbnew,(5.1.4)-1*
G04 #@! TF.CreationDate,2020-06-30T20:05:52+02:00*
G04 #@! TF.ProjectId,ReflowControllerREV1,5265666c-6f77-4436-9f6e-74726f6c6c65,rev?*
G04 #@! TF.SameCoordinates,Original*
G04 #@! TF.FileFunction,Paste,Bot*
G04 #@! TF.FilePolarity,Positive*
%FSLAX46Y46*%
G04 Gerber Fmt 4.6, Leading zero omitted, Abs format (unit mm)*
G04 Created by KiCad (PCBNEW (5.1.4)-1) date 2020-06-30 20:05:52*
%MOMM*%
%LPD*%
G04 APERTURE LIST*
%ADD10C,0.100000*%
%ADD11C,1.150000*%
%ADD12R,5.250000X4.550000*%
%ADD13R,1.100000X4.600000*%
G04 APERTURE END LIST*
D10*
G36*
X202542505Y-103949204D02*
G01*
X202566773Y-103952804D01*
X202590572Y-103958765D01*
X202613671Y-103967030D01*
X202635850Y-103977520D01*
X202656893Y-103990132D01*
X202676599Y-104004747D01*
X202694777Y-104021223D01*
X202711253Y-104039401D01*
X202725868Y-104059107D01*
X202738480Y-104080150D01*
X202748970Y-104102329D01*
X202757235Y-104125428D01*
X202763196Y-104149227D01*
X202766796Y-104173495D01*
X202768000Y-104197999D01*
X202768000Y-105098001D01*
X202766796Y-105122505D01*
X202763196Y-105146773D01*
X202757235Y-105170572D01*
X202748970Y-105193671D01*
X202738480Y-105215850D01*
X202725868Y-105236893D01*
X202711253Y-105256599D01*
X202694777Y-105274777D01*
X202676599Y-105291253D01*
X202656893Y-105305868D01*
X202635850Y-105318480D01*
X202613671Y-105328970D01*
X202590572Y-105337235D01*
X202566773Y-105343196D01*
X202542505Y-105346796D01*
X202518001Y-105348000D01*
X201867999Y-105348000D01*
X201843495Y-105346796D01*
X201819227Y-105343196D01*
X201795428Y-105337235D01*
X201772329Y-105328970D01*
X201750150Y-105318480D01*
X201729107Y-105305868D01*
X201709401Y-105291253D01*
X201691223Y-105274777D01*
X201674747Y-105256599D01*
X201660132Y-105236893D01*
X201647520Y-105215850D01*
X201637030Y-105193671D01*
X201628765Y-105170572D01*
X201622804Y-105146773D01*
X201619204Y-105122505D01*
X201618000Y-105098001D01*
X201618000Y-104197999D01*
X201619204Y-104173495D01*
X201622804Y-104149227D01*
X201628765Y-104125428D01*
X201637030Y-104102329D01*
X201647520Y-104080150D01*
X201660132Y-104059107D01*
X201674747Y-104039401D01*
X201691223Y-104021223D01*
X201709401Y-104004747D01*
X201729107Y-103990132D01*
X201750150Y-103977520D01*
X201772329Y-103967030D01*
X201795428Y-103958765D01*
X201819227Y-103952804D01*
X201843495Y-103949204D01*
X201867999Y-103948000D01*
X202518001Y-103948000D01*
X202542505Y-103949204D01*
X202542505Y-103949204D01*
G37*
D11*
X202193000Y-104648000D03*
D10*
G36*
X200492505Y-103949204D02*
G01*
X200516773Y-103952804D01*
X200540572Y-103958765D01*
X200563671Y-103967030D01*
X200585850Y-103977520D01*
X200606893Y-103990132D01*
X200626599Y-104004747D01*
X200644777Y-104021223D01*
X200661253Y-104039401D01*
X200675868Y-104059107D01*
X200688480Y-104080150D01*
X200698970Y-104102329D01*
X200707235Y-104125428D01*
X200713196Y-104149227D01*
X200716796Y-104173495D01*
X200718000Y-104197999D01*
X200718000Y-105098001D01*
X200716796Y-105122505D01*
X200713196Y-105146773D01*
X200707235Y-105170572D01*
X200698970Y-105193671D01*
X200688480Y-105215850D01*
X200675868Y-105236893D01*
X200661253Y-105256599D01*
X200644777Y-105274777D01*
X200626599Y-105291253D01*
X200606893Y-105305868D01*
X200585850Y-105318480D01*
X200563671Y-105328970D01*
X200540572Y-105337235D01*
X200516773Y-105343196D01*
X200492505Y-105346796D01*
X200468001Y-105348000D01*
X199817999Y-105348000D01*
X199793495Y-105346796D01*
X199769227Y-105343196D01*
X199745428Y-105337235D01*
X199722329Y-105328970D01*
X199700150Y-105318480D01*
X199679107Y-105305868D01*
X199659401Y-105291253D01*
X199641223Y-105274777D01*
X199624747Y-105256599D01*
X199610132Y-105236893D01*
X199597520Y-105215850D01*
X199587030Y-105193671D01*
X199578765Y-105170572D01*
X199572804Y-105146773D01*
X199569204Y-105122505D01*
X199568000Y-105098001D01*
X199568000Y-104197999D01*
X199569204Y-104173495D01*
X199572804Y-104149227D01*
X199578765Y-104125428D01*
X199587030Y-104102329D01*
X199597520Y-104080150D01*
X199610132Y-104059107D01*
X199624747Y-104039401D01*
X199641223Y-104021223D01*
X199659401Y-104004747D01*
X199679107Y-103990132D01*
X199700150Y-103977520D01*
X199722329Y-103967030D01*
X199745428Y-103958765D01*
X199769227Y-103952804D01*
X199793495Y-103949204D01*
X199817999Y-103948000D01*
X200468001Y-103948000D01*
X200492505Y-103949204D01*
X200492505Y-103949204D01*
G37*
D11*
X200143000Y-104648000D03*
D10*
G36*
X196809505Y-122491204D02*
G01*
X196833773Y-122494804D01*
X196857572Y-122500765D01*
X196880671Y-122509030D01*
X196902850Y-122519520D01*
X196923893Y-122532132D01*
X196943599Y-122546747D01*
X196961777Y-122563223D01*
X196978253Y-122581401D01*
X196992868Y-122601107D01*
X197005480Y-122622150D01*
X197015970Y-122644329D01*
X197024235Y-122667428D01*
X197030196Y-122691227D01*
X197033796Y-122715495D01*
X197035000Y-122739999D01*
X197035000Y-123640001D01*
X197033796Y-123664505D01*
X197030196Y-123688773D01*
X197024235Y-123712572D01*
X197015970Y-123735671D01*
X197005480Y-123757850D01*
X196992868Y-123778893D01*
X196978253Y-123798599D01*
X196961777Y-123816777D01*
X196943599Y-123833253D01*
X196923893Y-123847868D01*
X196902850Y-123860480D01*
X196880671Y-123870970D01*
X196857572Y-123879235D01*
X196833773Y-123885196D01*
X196809505Y-123888796D01*
X196785001Y-123890000D01*
X196134999Y-123890000D01*
X196110495Y-123888796D01*
X196086227Y-123885196D01*
X196062428Y-123879235D01*
X196039329Y-123870970D01*
X196017150Y-123860480D01*
X195996107Y-123847868D01*
X195976401Y-123833253D01*
X195958223Y-123816777D01*
X195941747Y-123798599D01*
X195927132Y-123778893D01*
X195914520Y-123757850D01*
X195904030Y-123735671D01*
X195895765Y-123712572D01*
X195889804Y-123688773D01*
X195886204Y-123664505D01*
X195885000Y-123640001D01*
X195885000Y-122739999D01*
X195886204Y-122715495D01*
X195889804Y-122691227D01*
X195895765Y-122667428D01*
X195904030Y-122644329D01*
X195914520Y-122622150D01*
X195927132Y-122601107D01*
X195941747Y-122581401D01*
X195958223Y-122563223D01*
X195976401Y-122546747D01*
X195996107Y-122532132D01*
X196017150Y-122519520D01*
X196039329Y-122509030D01*
X196062428Y-122500765D01*
X196086227Y-122494804D01*
X196110495Y-122491204D01*
X196134999Y-122490000D01*
X196785001Y-122490000D01*
X196809505Y-122491204D01*
X196809505Y-122491204D01*
G37*
D11*
X196460000Y-123190000D03*
D10*
G36*
X198859505Y-122491204D02*
G01*
X198883773Y-122494804D01*
X198907572Y-122500765D01*
X198930671Y-122509030D01*
X198952850Y-122519520D01*
X198973893Y-122532132D01*
X198993599Y-122546747D01*
X199011777Y-122563223D01*
X199028253Y-122581401D01*
X199042868Y-122601107D01*
X199055480Y-122622150D01*
X199065970Y-122644329D01*
X199074235Y-122667428D01*
X199080196Y-122691227D01*
X199083796Y-122715495D01*
X199085000Y-122739999D01*
X199085000Y-123640001D01*
X199083796Y-123664505D01*
X199080196Y-123688773D01*
X199074235Y-123712572D01*
X199065970Y-123735671D01*
X199055480Y-123757850D01*
X199042868Y-123778893D01*
X199028253Y-123798599D01*
X199011777Y-123816777D01*
X198993599Y-123833253D01*
X198973893Y-123847868D01*
X198952850Y-123860480D01*
X198930671Y-123870970D01*
X198907572Y-123879235D01*
X198883773Y-123885196D01*
X198859505Y-123888796D01*
X198835001Y-123890000D01*
X198184999Y-123890000D01*
X198160495Y-123888796D01*
X198136227Y-123885196D01*
X198112428Y-123879235D01*
X198089329Y-123870970D01*
X198067150Y-123860480D01*
X198046107Y-123847868D01*
X198026401Y-123833253D01*
X198008223Y-123816777D01*
X197991747Y-123798599D01*
X197977132Y-123778893D01*
X197964520Y-123757850D01*
X197954030Y-123735671D01*
X197945765Y-123712572D01*
X197939804Y-123688773D01*
X197936204Y-123664505D01*
X197935000Y-123640001D01*
X197935000Y-122739999D01*
X197936204Y-122715495D01*
X197939804Y-122691227D01*
X197945765Y-122667428D01*
X197954030Y-122644329D01*
X197964520Y-122622150D01*
X197977132Y-122601107D01*
X197991747Y-122581401D01*
X198008223Y-122563223D01*
X198026401Y-122546747D01*
X198046107Y-122532132D01*
X198067150Y-122519520D01*
X198089329Y-122509030D01*
X198112428Y-122500765D01*
X198136227Y-122494804D01*
X198160495Y-122491204D01*
X198184999Y-122490000D01*
X198835001Y-122490000D01*
X198859505Y-122491204D01*
X198859505Y-122491204D01*
G37*
D11*
X198510000Y-123190000D03*
D12*
X221215000Y-100010000D03*
X215665000Y-104860000D03*
X215665000Y-100010000D03*
X221215000Y-104860000D03*
D13*
X220980000Y-93285000D03*
X218440000Y-93285000D03*
X215900000Y-93285000D03*
M02*
