G04 #@! TF.GenerationSoftware,KiCad,Pcbnew,5.1.4-e60b266~84~ubuntu18.04.1*
G04 #@! TF.CreationDate,2019-11-02T22:21:05+01:00*
G04 #@! TF.ProjectId,ReflowControllerREV1,5265666c-6f77-4436-9f6e-74726f6c6c65,rev?*
G04 #@! TF.SameCoordinates,Original*
G04 #@! TF.FileFunction,Copper,L2,Bot*
G04 #@! TF.FilePolarity,Positive*
%FSLAX46Y46*%
G04 Gerber Fmt 4.6, Leading zero omitted, Abs format (unit mm)*
G04 Created by KiCad (PCBNEW 5.1.4-e60b266~84~ubuntu18.04.1) date 2019-11-02 22:21:05*
%MOMM*%
%LPD*%
G04 APERTURE LIST*
%ADD10C,1.524000*%
%ADD11O,1.600000X1.600000*%
%ADD12C,1.600000*%
%ADD13C,3.000000*%
%ADD14R,3.000000X3.000000*%
%ADD15O,1.700000X1.700000*%
%ADD16R,1.700000X1.700000*%
%ADD17O,2.400000X1.600000*%
%ADD18R,2.400000X1.600000*%
%ADD19R,1.600000X1.600000*%
%ADD20O,2.200000X2.200000*%
%ADD21R,2.200000X2.200000*%
%ADD22O,1.700000X2.000000*%
%ADD23C,0.100000*%
%ADD24C,1.700000*%
%ADD25C,1.150000*%
%ADD26O,1.905000X2.000000*%
%ADD27R,1.905000X2.000000*%
%ADD28R,10.800000X9.400000*%
%ADD29R,1.100000X4.600000*%
%ADD30C,0.800000*%
%ADD31C,0.250000*%
%ADD32C,0.500000*%
%ADD33C,0.750000*%
%ADD34C,1.250000*%
%ADD35C,1.750000*%
%ADD36C,1.500000*%
%ADD37C,0.254000*%
G04 APERTURE END LIST*
D10*
X220677740Y-116288820D03*
X220677740Y-121368820D03*
X220677740Y-126448820D03*
X246077740Y-131528820D03*
X246077740Y-126448820D03*
D11*
X241300000Y-86995000D03*
D12*
X251460000Y-86995000D03*
D11*
X241300000Y-83185000D03*
D12*
X251460000Y-83185000D03*
D13*
X252095000Y-92075000D03*
D14*
X252095000Y-97155000D03*
D13*
X252095000Y-105410000D03*
D14*
X252095000Y-110490000D03*
D15*
X185420000Y-104140000D03*
X185420000Y-106680000D03*
X185420000Y-109220000D03*
X185420000Y-111760000D03*
X185420000Y-114300000D03*
X185420000Y-116840000D03*
X185420000Y-119380000D03*
D16*
X185420000Y-121920000D03*
D15*
X185420000Y-85090000D03*
X185420000Y-87630000D03*
X185420000Y-90170000D03*
X185420000Y-92710000D03*
D16*
X185420000Y-95250000D03*
D17*
X227330000Y-91948000D03*
X234950000Y-86868000D03*
X227330000Y-89408000D03*
X234950000Y-89408000D03*
X227330000Y-86868000D03*
D18*
X234950000Y-91948000D03*
D11*
X207264000Y-126492000D03*
X192024000Y-126492000D03*
X207264000Y-90932000D03*
X192024000Y-123952000D03*
X207264000Y-93472000D03*
X192024000Y-121412000D03*
X207264000Y-96012000D03*
X192024000Y-118872000D03*
X207264000Y-98552000D03*
X192024000Y-116332000D03*
X207264000Y-101092000D03*
X192024000Y-113792000D03*
X207264000Y-103632000D03*
X192024000Y-111252000D03*
X207264000Y-106172000D03*
X192024000Y-108712000D03*
X207264000Y-108712000D03*
X192024000Y-106172000D03*
X207264000Y-111252000D03*
X192024000Y-103632000D03*
X207264000Y-113792000D03*
X192024000Y-101092000D03*
X207264000Y-116332000D03*
X192024000Y-98552000D03*
X207264000Y-118872000D03*
X192024000Y-96012000D03*
X207264000Y-121412000D03*
X192024000Y-93472000D03*
X207264000Y-123952000D03*
D19*
X192024000Y-90932000D03*
D15*
X200660000Y-75692000D03*
D16*
X198120000Y-75692000D03*
D20*
X222504000Y-87884000D03*
D21*
X212344000Y-87884000D03*
D11*
X235204000Y-105664000D03*
X227584000Y-110744000D03*
X235204000Y-108204000D03*
X227584000Y-108204000D03*
X235204000Y-110744000D03*
D19*
X227584000Y-105664000D03*
D22*
X213320000Y-75692000D03*
D23*
G36*
X211444504Y-74693204D02*
G01*
X211468773Y-74696804D01*
X211492571Y-74702765D01*
X211515671Y-74711030D01*
X211537849Y-74721520D01*
X211558893Y-74734133D01*
X211578598Y-74748747D01*
X211596777Y-74765223D01*
X211613253Y-74783402D01*
X211627867Y-74803107D01*
X211640480Y-74824151D01*
X211650970Y-74846329D01*
X211659235Y-74869429D01*
X211665196Y-74893227D01*
X211668796Y-74917496D01*
X211670000Y-74942000D01*
X211670000Y-76442000D01*
X211668796Y-76466504D01*
X211665196Y-76490773D01*
X211659235Y-76514571D01*
X211650970Y-76537671D01*
X211640480Y-76559849D01*
X211627867Y-76580893D01*
X211613253Y-76600598D01*
X211596777Y-76618777D01*
X211578598Y-76635253D01*
X211558893Y-76649867D01*
X211537849Y-76662480D01*
X211515671Y-76672970D01*
X211492571Y-76681235D01*
X211468773Y-76687196D01*
X211444504Y-76690796D01*
X211420000Y-76692000D01*
X210220000Y-76692000D01*
X210195496Y-76690796D01*
X210171227Y-76687196D01*
X210147429Y-76681235D01*
X210124329Y-76672970D01*
X210102151Y-76662480D01*
X210081107Y-76649867D01*
X210061402Y-76635253D01*
X210043223Y-76618777D01*
X210026747Y-76600598D01*
X210012133Y-76580893D01*
X209999520Y-76559849D01*
X209989030Y-76537671D01*
X209980765Y-76514571D01*
X209974804Y-76490773D01*
X209971204Y-76466504D01*
X209970000Y-76442000D01*
X209970000Y-74942000D01*
X209971204Y-74917496D01*
X209974804Y-74893227D01*
X209980765Y-74869429D01*
X209989030Y-74846329D01*
X209999520Y-74824151D01*
X210012133Y-74803107D01*
X210026747Y-74783402D01*
X210043223Y-74765223D01*
X210061402Y-74748747D01*
X210081107Y-74734133D01*
X210102151Y-74721520D01*
X210124329Y-74711030D01*
X210147429Y-74702765D01*
X210171227Y-74696804D01*
X210195496Y-74693204D01*
X210220000Y-74692000D01*
X211420000Y-74692000D01*
X211444504Y-74693204D01*
X211444504Y-74693204D01*
G37*
D24*
X210820000Y-75692000D03*
D15*
X225552000Y-75692000D03*
D16*
X223012000Y-75692000D03*
D23*
G36*
X198859505Y-111696204D02*
G01*
X198883773Y-111699804D01*
X198907572Y-111705765D01*
X198930671Y-111714030D01*
X198952850Y-111724520D01*
X198973893Y-111737132D01*
X198993599Y-111751747D01*
X199011777Y-111768223D01*
X199028253Y-111786401D01*
X199042868Y-111806107D01*
X199055480Y-111827150D01*
X199065970Y-111849329D01*
X199074235Y-111872428D01*
X199080196Y-111896227D01*
X199083796Y-111920495D01*
X199085000Y-111944999D01*
X199085000Y-112845001D01*
X199083796Y-112869505D01*
X199080196Y-112893773D01*
X199074235Y-112917572D01*
X199065970Y-112940671D01*
X199055480Y-112962850D01*
X199042868Y-112983893D01*
X199028253Y-113003599D01*
X199011777Y-113021777D01*
X198993599Y-113038253D01*
X198973893Y-113052868D01*
X198952850Y-113065480D01*
X198930671Y-113075970D01*
X198907572Y-113084235D01*
X198883773Y-113090196D01*
X198859505Y-113093796D01*
X198835001Y-113095000D01*
X198184999Y-113095000D01*
X198160495Y-113093796D01*
X198136227Y-113090196D01*
X198112428Y-113084235D01*
X198089329Y-113075970D01*
X198067150Y-113065480D01*
X198046107Y-113052868D01*
X198026401Y-113038253D01*
X198008223Y-113021777D01*
X197991747Y-113003599D01*
X197977132Y-112983893D01*
X197964520Y-112962850D01*
X197954030Y-112940671D01*
X197945765Y-112917572D01*
X197939804Y-112893773D01*
X197936204Y-112869505D01*
X197935000Y-112845001D01*
X197935000Y-111944999D01*
X197936204Y-111920495D01*
X197939804Y-111896227D01*
X197945765Y-111872428D01*
X197954030Y-111849329D01*
X197964520Y-111827150D01*
X197977132Y-111806107D01*
X197991747Y-111786401D01*
X198008223Y-111768223D01*
X198026401Y-111751747D01*
X198046107Y-111737132D01*
X198067150Y-111724520D01*
X198089329Y-111714030D01*
X198112428Y-111705765D01*
X198136227Y-111699804D01*
X198160495Y-111696204D01*
X198184999Y-111695000D01*
X198835001Y-111695000D01*
X198859505Y-111696204D01*
X198859505Y-111696204D01*
G37*
D25*
X198510000Y-112395000D03*
D23*
G36*
X196809505Y-111696204D02*
G01*
X196833773Y-111699804D01*
X196857572Y-111705765D01*
X196880671Y-111714030D01*
X196902850Y-111724520D01*
X196923893Y-111737132D01*
X196943599Y-111751747D01*
X196961777Y-111768223D01*
X196978253Y-111786401D01*
X196992868Y-111806107D01*
X197005480Y-111827150D01*
X197015970Y-111849329D01*
X197024235Y-111872428D01*
X197030196Y-111896227D01*
X197033796Y-111920495D01*
X197035000Y-111944999D01*
X197035000Y-112845001D01*
X197033796Y-112869505D01*
X197030196Y-112893773D01*
X197024235Y-112917572D01*
X197015970Y-112940671D01*
X197005480Y-112962850D01*
X196992868Y-112983893D01*
X196978253Y-113003599D01*
X196961777Y-113021777D01*
X196943599Y-113038253D01*
X196923893Y-113052868D01*
X196902850Y-113065480D01*
X196880671Y-113075970D01*
X196857572Y-113084235D01*
X196833773Y-113090196D01*
X196809505Y-113093796D01*
X196785001Y-113095000D01*
X196134999Y-113095000D01*
X196110495Y-113093796D01*
X196086227Y-113090196D01*
X196062428Y-113084235D01*
X196039329Y-113075970D01*
X196017150Y-113065480D01*
X195996107Y-113052868D01*
X195976401Y-113038253D01*
X195958223Y-113021777D01*
X195941747Y-113003599D01*
X195927132Y-112983893D01*
X195914520Y-112962850D01*
X195904030Y-112940671D01*
X195895765Y-112917572D01*
X195889804Y-112893773D01*
X195886204Y-112869505D01*
X195885000Y-112845001D01*
X195885000Y-111944999D01*
X195886204Y-111920495D01*
X195889804Y-111896227D01*
X195895765Y-111872428D01*
X195904030Y-111849329D01*
X195914520Y-111827150D01*
X195927132Y-111806107D01*
X195941747Y-111786401D01*
X195958223Y-111768223D01*
X195976401Y-111751747D01*
X195996107Y-111737132D01*
X196017150Y-111724520D01*
X196039329Y-111714030D01*
X196062428Y-111705765D01*
X196086227Y-111699804D01*
X196110495Y-111696204D01*
X196134999Y-111695000D01*
X196785001Y-111695000D01*
X196809505Y-111696204D01*
X196809505Y-111696204D01*
G37*
D25*
X196460000Y-112395000D03*
D23*
G36*
X202542505Y-103949204D02*
G01*
X202566773Y-103952804D01*
X202590572Y-103958765D01*
X202613671Y-103967030D01*
X202635850Y-103977520D01*
X202656893Y-103990132D01*
X202676599Y-104004747D01*
X202694777Y-104021223D01*
X202711253Y-104039401D01*
X202725868Y-104059107D01*
X202738480Y-104080150D01*
X202748970Y-104102329D01*
X202757235Y-104125428D01*
X202763196Y-104149227D01*
X202766796Y-104173495D01*
X202768000Y-104197999D01*
X202768000Y-105098001D01*
X202766796Y-105122505D01*
X202763196Y-105146773D01*
X202757235Y-105170572D01*
X202748970Y-105193671D01*
X202738480Y-105215850D01*
X202725868Y-105236893D01*
X202711253Y-105256599D01*
X202694777Y-105274777D01*
X202676599Y-105291253D01*
X202656893Y-105305868D01*
X202635850Y-105318480D01*
X202613671Y-105328970D01*
X202590572Y-105337235D01*
X202566773Y-105343196D01*
X202542505Y-105346796D01*
X202518001Y-105348000D01*
X201867999Y-105348000D01*
X201843495Y-105346796D01*
X201819227Y-105343196D01*
X201795428Y-105337235D01*
X201772329Y-105328970D01*
X201750150Y-105318480D01*
X201729107Y-105305868D01*
X201709401Y-105291253D01*
X201691223Y-105274777D01*
X201674747Y-105256599D01*
X201660132Y-105236893D01*
X201647520Y-105215850D01*
X201637030Y-105193671D01*
X201628765Y-105170572D01*
X201622804Y-105146773D01*
X201619204Y-105122505D01*
X201618000Y-105098001D01*
X201618000Y-104197999D01*
X201619204Y-104173495D01*
X201622804Y-104149227D01*
X201628765Y-104125428D01*
X201637030Y-104102329D01*
X201647520Y-104080150D01*
X201660132Y-104059107D01*
X201674747Y-104039401D01*
X201691223Y-104021223D01*
X201709401Y-104004747D01*
X201729107Y-103990132D01*
X201750150Y-103977520D01*
X201772329Y-103967030D01*
X201795428Y-103958765D01*
X201819227Y-103952804D01*
X201843495Y-103949204D01*
X201867999Y-103948000D01*
X202518001Y-103948000D01*
X202542505Y-103949204D01*
X202542505Y-103949204D01*
G37*
D25*
X202193000Y-104648000D03*
D23*
G36*
X200492505Y-103949204D02*
G01*
X200516773Y-103952804D01*
X200540572Y-103958765D01*
X200563671Y-103967030D01*
X200585850Y-103977520D01*
X200606893Y-103990132D01*
X200626599Y-104004747D01*
X200644777Y-104021223D01*
X200661253Y-104039401D01*
X200675868Y-104059107D01*
X200688480Y-104080150D01*
X200698970Y-104102329D01*
X200707235Y-104125428D01*
X200713196Y-104149227D01*
X200716796Y-104173495D01*
X200718000Y-104197999D01*
X200718000Y-105098001D01*
X200716796Y-105122505D01*
X200713196Y-105146773D01*
X200707235Y-105170572D01*
X200698970Y-105193671D01*
X200688480Y-105215850D01*
X200675868Y-105236893D01*
X200661253Y-105256599D01*
X200644777Y-105274777D01*
X200626599Y-105291253D01*
X200606893Y-105305868D01*
X200585850Y-105318480D01*
X200563671Y-105328970D01*
X200540572Y-105337235D01*
X200516773Y-105343196D01*
X200492505Y-105346796D01*
X200468001Y-105348000D01*
X199817999Y-105348000D01*
X199793495Y-105346796D01*
X199769227Y-105343196D01*
X199745428Y-105337235D01*
X199722329Y-105328970D01*
X199700150Y-105318480D01*
X199679107Y-105305868D01*
X199659401Y-105291253D01*
X199641223Y-105274777D01*
X199624747Y-105256599D01*
X199610132Y-105236893D01*
X199597520Y-105215850D01*
X199587030Y-105193671D01*
X199578765Y-105170572D01*
X199572804Y-105146773D01*
X199569204Y-105122505D01*
X199568000Y-105098001D01*
X199568000Y-104197999D01*
X199569204Y-104173495D01*
X199572804Y-104149227D01*
X199578765Y-104125428D01*
X199587030Y-104102329D01*
X199597520Y-104080150D01*
X199610132Y-104059107D01*
X199624747Y-104039401D01*
X199641223Y-104021223D01*
X199659401Y-104004747D01*
X199679107Y-103990132D01*
X199700150Y-103977520D01*
X199722329Y-103967030D01*
X199745428Y-103958765D01*
X199769227Y-103952804D01*
X199793495Y-103949204D01*
X199817999Y-103948000D01*
X200468001Y-103948000D01*
X200492505Y-103949204D01*
X200492505Y-103949204D01*
G37*
D25*
X200143000Y-104648000D03*
D23*
G36*
X202034505Y-109537204D02*
G01*
X202058773Y-109540804D01*
X202082572Y-109546765D01*
X202105671Y-109555030D01*
X202127850Y-109565520D01*
X202148893Y-109578132D01*
X202168599Y-109592747D01*
X202186777Y-109609223D01*
X202203253Y-109627401D01*
X202217868Y-109647107D01*
X202230480Y-109668150D01*
X202240970Y-109690329D01*
X202249235Y-109713428D01*
X202255196Y-109737227D01*
X202258796Y-109761495D01*
X202260000Y-109785999D01*
X202260000Y-110686001D01*
X202258796Y-110710505D01*
X202255196Y-110734773D01*
X202249235Y-110758572D01*
X202240970Y-110781671D01*
X202230480Y-110803850D01*
X202217868Y-110824893D01*
X202203253Y-110844599D01*
X202186777Y-110862777D01*
X202168599Y-110879253D01*
X202148893Y-110893868D01*
X202127850Y-110906480D01*
X202105671Y-110916970D01*
X202082572Y-110925235D01*
X202058773Y-110931196D01*
X202034505Y-110934796D01*
X202010001Y-110936000D01*
X201359999Y-110936000D01*
X201335495Y-110934796D01*
X201311227Y-110931196D01*
X201287428Y-110925235D01*
X201264329Y-110916970D01*
X201242150Y-110906480D01*
X201221107Y-110893868D01*
X201201401Y-110879253D01*
X201183223Y-110862777D01*
X201166747Y-110844599D01*
X201152132Y-110824893D01*
X201139520Y-110803850D01*
X201129030Y-110781671D01*
X201120765Y-110758572D01*
X201114804Y-110734773D01*
X201111204Y-110710505D01*
X201110000Y-110686001D01*
X201110000Y-109785999D01*
X201111204Y-109761495D01*
X201114804Y-109737227D01*
X201120765Y-109713428D01*
X201129030Y-109690329D01*
X201139520Y-109668150D01*
X201152132Y-109647107D01*
X201166747Y-109627401D01*
X201183223Y-109609223D01*
X201201401Y-109592747D01*
X201221107Y-109578132D01*
X201242150Y-109565520D01*
X201264329Y-109555030D01*
X201287428Y-109546765D01*
X201311227Y-109540804D01*
X201335495Y-109537204D01*
X201359999Y-109536000D01*
X202010001Y-109536000D01*
X202034505Y-109537204D01*
X202034505Y-109537204D01*
G37*
D25*
X201685000Y-110236000D03*
D23*
G36*
X199984505Y-109537204D02*
G01*
X200008773Y-109540804D01*
X200032572Y-109546765D01*
X200055671Y-109555030D01*
X200077850Y-109565520D01*
X200098893Y-109578132D01*
X200118599Y-109592747D01*
X200136777Y-109609223D01*
X200153253Y-109627401D01*
X200167868Y-109647107D01*
X200180480Y-109668150D01*
X200190970Y-109690329D01*
X200199235Y-109713428D01*
X200205196Y-109737227D01*
X200208796Y-109761495D01*
X200210000Y-109785999D01*
X200210000Y-110686001D01*
X200208796Y-110710505D01*
X200205196Y-110734773D01*
X200199235Y-110758572D01*
X200190970Y-110781671D01*
X200180480Y-110803850D01*
X200167868Y-110824893D01*
X200153253Y-110844599D01*
X200136777Y-110862777D01*
X200118599Y-110879253D01*
X200098893Y-110893868D01*
X200077850Y-110906480D01*
X200055671Y-110916970D01*
X200032572Y-110925235D01*
X200008773Y-110931196D01*
X199984505Y-110934796D01*
X199960001Y-110936000D01*
X199309999Y-110936000D01*
X199285495Y-110934796D01*
X199261227Y-110931196D01*
X199237428Y-110925235D01*
X199214329Y-110916970D01*
X199192150Y-110906480D01*
X199171107Y-110893868D01*
X199151401Y-110879253D01*
X199133223Y-110862777D01*
X199116747Y-110844599D01*
X199102132Y-110824893D01*
X199089520Y-110803850D01*
X199079030Y-110781671D01*
X199070765Y-110758572D01*
X199064804Y-110734773D01*
X199061204Y-110710505D01*
X199060000Y-110686001D01*
X199060000Y-109785999D01*
X199061204Y-109761495D01*
X199064804Y-109737227D01*
X199070765Y-109713428D01*
X199079030Y-109690329D01*
X199089520Y-109668150D01*
X199102132Y-109647107D01*
X199116747Y-109627401D01*
X199133223Y-109609223D01*
X199151401Y-109592747D01*
X199171107Y-109578132D01*
X199192150Y-109565520D01*
X199214329Y-109555030D01*
X199237428Y-109546765D01*
X199261227Y-109540804D01*
X199285495Y-109537204D01*
X199309999Y-109536000D01*
X199960001Y-109536000D01*
X199984505Y-109537204D01*
X199984505Y-109537204D01*
G37*
D25*
X199635000Y-110236000D03*
D23*
G36*
X196809505Y-122491204D02*
G01*
X196833773Y-122494804D01*
X196857572Y-122500765D01*
X196880671Y-122509030D01*
X196902850Y-122519520D01*
X196923893Y-122532132D01*
X196943599Y-122546747D01*
X196961777Y-122563223D01*
X196978253Y-122581401D01*
X196992868Y-122601107D01*
X197005480Y-122622150D01*
X197015970Y-122644329D01*
X197024235Y-122667428D01*
X197030196Y-122691227D01*
X197033796Y-122715495D01*
X197035000Y-122739999D01*
X197035000Y-123640001D01*
X197033796Y-123664505D01*
X197030196Y-123688773D01*
X197024235Y-123712572D01*
X197015970Y-123735671D01*
X197005480Y-123757850D01*
X196992868Y-123778893D01*
X196978253Y-123798599D01*
X196961777Y-123816777D01*
X196943599Y-123833253D01*
X196923893Y-123847868D01*
X196902850Y-123860480D01*
X196880671Y-123870970D01*
X196857572Y-123879235D01*
X196833773Y-123885196D01*
X196809505Y-123888796D01*
X196785001Y-123890000D01*
X196134999Y-123890000D01*
X196110495Y-123888796D01*
X196086227Y-123885196D01*
X196062428Y-123879235D01*
X196039329Y-123870970D01*
X196017150Y-123860480D01*
X195996107Y-123847868D01*
X195976401Y-123833253D01*
X195958223Y-123816777D01*
X195941747Y-123798599D01*
X195927132Y-123778893D01*
X195914520Y-123757850D01*
X195904030Y-123735671D01*
X195895765Y-123712572D01*
X195889804Y-123688773D01*
X195886204Y-123664505D01*
X195885000Y-123640001D01*
X195885000Y-122739999D01*
X195886204Y-122715495D01*
X195889804Y-122691227D01*
X195895765Y-122667428D01*
X195904030Y-122644329D01*
X195914520Y-122622150D01*
X195927132Y-122601107D01*
X195941747Y-122581401D01*
X195958223Y-122563223D01*
X195976401Y-122546747D01*
X195996107Y-122532132D01*
X196017150Y-122519520D01*
X196039329Y-122509030D01*
X196062428Y-122500765D01*
X196086227Y-122494804D01*
X196110495Y-122491204D01*
X196134999Y-122490000D01*
X196785001Y-122490000D01*
X196809505Y-122491204D01*
X196809505Y-122491204D01*
G37*
D25*
X196460000Y-123190000D03*
D23*
G36*
X198859505Y-122491204D02*
G01*
X198883773Y-122494804D01*
X198907572Y-122500765D01*
X198930671Y-122509030D01*
X198952850Y-122519520D01*
X198973893Y-122532132D01*
X198993599Y-122546747D01*
X199011777Y-122563223D01*
X199028253Y-122581401D01*
X199042868Y-122601107D01*
X199055480Y-122622150D01*
X199065970Y-122644329D01*
X199074235Y-122667428D01*
X199080196Y-122691227D01*
X199083796Y-122715495D01*
X199085000Y-122739999D01*
X199085000Y-123640001D01*
X199083796Y-123664505D01*
X199080196Y-123688773D01*
X199074235Y-123712572D01*
X199065970Y-123735671D01*
X199055480Y-123757850D01*
X199042868Y-123778893D01*
X199028253Y-123798599D01*
X199011777Y-123816777D01*
X198993599Y-123833253D01*
X198973893Y-123847868D01*
X198952850Y-123860480D01*
X198930671Y-123870970D01*
X198907572Y-123879235D01*
X198883773Y-123885196D01*
X198859505Y-123888796D01*
X198835001Y-123890000D01*
X198184999Y-123890000D01*
X198160495Y-123888796D01*
X198136227Y-123885196D01*
X198112428Y-123879235D01*
X198089329Y-123870970D01*
X198067150Y-123860480D01*
X198046107Y-123847868D01*
X198026401Y-123833253D01*
X198008223Y-123816777D01*
X197991747Y-123798599D01*
X197977132Y-123778893D01*
X197964520Y-123757850D01*
X197954030Y-123735671D01*
X197945765Y-123712572D01*
X197939804Y-123688773D01*
X197936204Y-123664505D01*
X197935000Y-123640001D01*
X197935000Y-122739999D01*
X197936204Y-122715495D01*
X197939804Y-122691227D01*
X197945765Y-122667428D01*
X197954030Y-122644329D01*
X197964520Y-122622150D01*
X197977132Y-122601107D01*
X197991747Y-122581401D01*
X198008223Y-122563223D01*
X198026401Y-122546747D01*
X198046107Y-122532132D01*
X198067150Y-122519520D01*
X198089329Y-122509030D01*
X198112428Y-122500765D01*
X198136227Y-122494804D01*
X198160495Y-122491204D01*
X198184999Y-122490000D01*
X198835001Y-122490000D01*
X198859505Y-122491204D01*
X198859505Y-122491204D01*
G37*
D25*
X198510000Y-123190000D03*
D23*
G36*
X196054505Y-129356204D02*
G01*
X196078773Y-129359804D01*
X196102572Y-129365765D01*
X196125671Y-129374030D01*
X196147850Y-129384520D01*
X196168893Y-129397132D01*
X196188599Y-129411747D01*
X196206777Y-129428223D01*
X196223253Y-129446401D01*
X196237868Y-129466107D01*
X196250480Y-129487150D01*
X196260970Y-129509329D01*
X196269235Y-129532428D01*
X196275196Y-129556227D01*
X196278796Y-129580495D01*
X196280000Y-129604999D01*
X196280000Y-130255001D01*
X196278796Y-130279505D01*
X196275196Y-130303773D01*
X196269235Y-130327572D01*
X196260970Y-130350671D01*
X196250480Y-130372850D01*
X196237868Y-130393893D01*
X196223253Y-130413599D01*
X196206777Y-130431777D01*
X196188599Y-130448253D01*
X196168893Y-130462868D01*
X196147850Y-130475480D01*
X196125671Y-130485970D01*
X196102572Y-130494235D01*
X196078773Y-130500196D01*
X196054505Y-130503796D01*
X196030001Y-130505000D01*
X195129999Y-130505000D01*
X195105495Y-130503796D01*
X195081227Y-130500196D01*
X195057428Y-130494235D01*
X195034329Y-130485970D01*
X195012150Y-130475480D01*
X194991107Y-130462868D01*
X194971401Y-130448253D01*
X194953223Y-130431777D01*
X194936747Y-130413599D01*
X194922132Y-130393893D01*
X194909520Y-130372850D01*
X194899030Y-130350671D01*
X194890765Y-130327572D01*
X194884804Y-130303773D01*
X194881204Y-130279505D01*
X194880000Y-130255001D01*
X194880000Y-129604999D01*
X194881204Y-129580495D01*
X194884804Y-129556227D01*
X194890765Y-129532428D01*
X194899030Y-129509329D01*
X194909520Y-129487150D01*
X194922132Y-129466107D01*
X194936747Y-129446401D01*
X194953223Y-129428223D01*
X194971401Y-129411747D01*
X194991107Y-129397132D01*
X195012150Y-129384520D01*
X195034329Y-129374030D01*
X195057428Y-129365765D01*
X195081227Y-129359804D01*
X195105495Y-129356204D01*
X195129999Y-129355000D01*
X196030001Y-129355000D01*
X196054505Y-129356204D01*
X196054505Y-129356204D01*
G37*
D25*
X195580000Y-129930000D03*
D23*
G36*
X196054505Y-127306204D02*
G01*
X196078773Y-127309804D01*
X196102572Y-127315765D01*
X196125671Y-127324030D01*
X196147850Y-127334520D01*
X196168893Y-127347132D01*
X196188599Y-127361747D01*
X196206777Y-127378223D01*
X196223253Y-127396401D01*
X196237868Y-127416107D01*
X196250480Y-127437150D01*
X196260970Y-127459329D01*
X196269235Y-127482428D01*
X196275196Y-127506227D01*
X196278796Y-127530495D01*
X196280000Y-127554999D01*
X196280000Y-128205001D01*
X196278796Y-128229505D01*
X196275196Y-128253773D01*
X196269235Y-128277572D01*
X196260970Y-128300671D01*
X196250480Y-128322850D01*
X196237868Y-128343893D01*
X196223253Y-128363599D01*
X196206777Y-128381777D01*
X196188599Y-128398253D01*
X196168893Y-128412868D01*
X196147850Y-128425480D01*
X196125671Y-128435970D01*
X196102572Y-128444235D01*
X196078773Y-128450196D01*
X196054505Y-128453796D01*
X196030001Y-128455000D01*
X195129999Y-128455000D01*
X195105495Y-128453796D01*
X195081227Y-128450196D01*
X195057428Y-128444235D01*
X195034329Y-128435970D01*
X195012150Y-128425480D01*
X194991107Y-128412868D01*
X194971401Y-128398253D01*
X194953223Y-128381777D01*
X194936747Y-128363599D01*
X194922132Y-128343893D01*
X194909520Y-128322850D01*
X194899030Y-128300671D01*
X194890765Y-128277572D01*
X194884804Y-128253773D01*
X194881204Y-128229505D01*
X194880000Y-128205001D01*
X194880000Y-127554999D01*
X194881204Y-127530495D01*
X194884804Y-127506227D01*
X194890765Y-127482428D01*
X194899030Y-127459329D01*
X194909520Y-127437150D01*
X194922132Y-127416107D01*
X194936747Y-127396401D01*
X194953223Y-127378223D01*
X194971401Y-127361747D01*
X194991107Y-127347132D01*
X195012150Y-127334520D01*
X195034329Y-127324030D01*
X195057428Y-127315765D01*
X195081227Y-127309804D01*
X195105495Y-127306204D01*
X195129999Y-127305000D01*
X196030001Y-127305000D01*
X196054505Y-127306204D01*
X196054505Y-127306204D01*
G37*
D25*
X195580000Y-127880000D03*
D23*
G36*
X202034505Y-114617204D02*
G01*
X202058773Y-114620804D01*
X202082572Y-114626765D01*
X202105671Y-114635030D01*
X202127850Y-114645520D01*
X202148893Y-114658132D01*
X202168599Y-114672747D01*
X202186777Y-114689223D01*
X202203253Y-114707401D01*
X202217868Y-114727107D01*
X202230480Y-114748150D01*
X202240970Y-114770329D01*
X202249235Y-114793428D01*
X202255196Y-114817227D01*
X202258796Y-114841495D01*
X202260000Y-114865999D01*
X202260000Y-115766001D01*
X202258796Y-115790505D01*
X202255196Y-115814773D01*
X202249235Y-115838572D01*
X202240970Y-115861671D01*
X202230480Y-115883850D01*
X202217868Y-115904893D01*
X202203253Y-115924599D01*
X202186777Y-115942777D01*
X202168599Y-115959253D01*
X202148893Y-115973868D01*
X202127850Y-115986480D01*
X202105671Y-115996970D01*
X202082572Y-116005235D01*
X202058773Y-116011196D01*
X202034505Y-116014796D01*
X202010001Y-116016000D01*
X201359999Y-116016000D01*
X201335495Y-116014796D01*
X201311227Y-116011196D01*
X201287428Y-116005235D01*
X201264329Y-115996970D01*
X201242150Y-115986480D01*
X201221107Y-115973868D01*
X201201401Y-115959253D01*
X201183223Y-115942777D01*
X201166747Y-115924599D01*
X201152132Y-115904893D01*
X201139520Y-115883850D01*
X201129030Y-115861671D01*
X201120765Y-115838572D01*
X201114804Y-115814773D01*
X201111204Y-115790505D01*
X201110000Y-115766001D01*
X201110000Y-114865999D01*
X201111204Y-114841495D01*
X201114804Y-114817227D01*
X201120765Y-114793428D01*
X201129030Y-114770329D01*
X201139520Y-114748150D01*
X201152132Y-114727107D01*
X201166747Y-114707401D01*
X201183223Y-114689223D01*
X201201401Y-114672747D01*
X201221107Y-114658132D01*
X201242150Y-114645520D01*
X201264329Y-114635030D01*
X201287428Y-114626765D01*
X201311227Y-114620804D01*
X201335495Y-114617204D01*
X201359999Y-114616000D01*
X202010001Y-114616000D01*
X202034505Y-114617204D01*
X202034505Y-114617204D01*
G37*
D25*
X201685000Y-115316000D03*
D23*
G36*
X199984505Y-114617204D02*
G01*
X200008773Y-114620804D01*
X200032572Y-114626765D01*
X200055671Y-114635030D01*
X200077850Y-114645520D01*
X200098893Y-114658132D01*
X200118599Y-114672747D01*
X200136777Y-114689223D01*
X200153253Y-114707401D01*
X200167868Y-114727107D01*
X200180480Y-114748150D01*
X200190970Y-114770329D01*
X200199235Y-114793428D01*
X200205196Y-114817227D01*
X200208796Y-114841495D01*
X200210000Y-114865999D01*
X200210000Y-115766001D01*
X200208796Y-115790505D01*
X200205196Y-115814773D01*
X200199235Y-115838572D01*
X200190970Y-115861671D01*
X200180480Y-115883850D01*
X200167868Y-115904893D01*
X200153253Y-115924599D01*
X200136777Y-115942777D01*
X200118599Y-115959253D01*
X200098893Y-115973868D01*
X200077850Y-115986480D01*
X200055671Y-115996970D01*
X200032572Y-116005235D01*
X200008773Y-116011196D01*
X199984505Y-116014796D01*
X199960001Y-116016000D01*
X199309999Y-116016000D01*
X199285495Y-116014796D01*
X199261227Y-116011196D01*
X199237428Y-116005235D01*
X199214329Y-115996970D01*
X199192150Y-115986480D01*
X199171107Y-115973868D01*
X199151401Y-115959253D01*
X199133223Y-115942777D01*
X199116747Y-115924599D01*
X199102132Y-115904893D01*
X199089520Y-115883850D01*
X199079030Y-115861671D01*
X199070765Y-115838572D01*
X199064804Y-115814773D01*
X199061204Y-115790505D01*
X199060000Y-115766001D01*
X199060000Y-114865999D01*
X199061204Y-114841495D01*
X199064804Y-114817227D01*
X199070765Y-114793428D01*
X199079030Y-114770329D01*
X199089520Y-114748150D01*
X199102132Y-114727107D01*
X199116747Y-114707401D01*
X199133223Y-114689223D01*
X199151401Y-114672747D01*
X199171107Y-114658132D01*
X199192150Y-114645520D01*
X199214329Y-114635030D01*
X199237428Y-114626765D01*
X199261227Y-114620804D01*
X199285495Y-114617204D01*
X199309999Y-114616000D01*
X199960001Y-114616000D01*
X199984505Y-114617204D01*
X199984505Y-114617204D01*
G37*
D25*
X199635000Y-115316000D03*
D26*
X239395000Y-92710000D03*
X241935000Y-92710000D03*
D27*
X244475000Y-92710000D03*
D28*
X218440000Y-102435000D03*
D29*
X220980000Y-93285000D03*
X218440000Y-93285000D03*
X215900000Y-93285000D03*
D30*
X201676000Y-119380000D03*
X217932000Y-91440000D03*
X200660000Y-116840000D03*
X199847200Y-113284000D03*
X201061628Y-114350492D03*
X198120000Y-106045000D03*
X196850000Y-101600000D03*
X198501000Y-123190000D03*
X188468000Y-106299000D03*
X200660000Y-92075000D03*
X207010000Y-83185000D03*
X225044000Y-82296000D03*
X216916000Y-80264000D03*
X208280000Y-83185000D03*
X201295000Y-106045000D03*
X195897500Y-119697500D03*
X199635000Y-115316000D03*
X196215000Y-112395000D03*
X215900000Y-91440000D03*
X208915000Y-81280000D03*
D31*
X200660000Y-116341000D02*
X201685000Y-115316000D01*
X200660000Y-116840000D02*
X200660000Y-116341000D01*
X201061628Y-110859372D02*
X201061628Y-111358372D01*
X201685000Y-110236000D02*
X201061628Y-110859372D01*
X201061628Y-111358372D02*
X200660000Y-111760000D01*
X201061628Y-114692628D02*
X201061628Y-114350492D01*
X201685000Y-115316000D02*
X201061628Y-114692628D01*
X201061628Y-114350492D02*
X201061628Y-114350492D01*
D32*
X198120000Y-102870000D02*
X196850000Y-101600000D01*
X198120000Y-106045000D02*
X198120000Y-102870000D01*
D31*
X191897000Y-106299000D02*
X192024000Y-106172000D01*
X188468000Y-106299000D02*
X191897000Y-106299000D01*
X196124999Y-104611001D02*
X196124999Y-95340001D01*
X192024000Y-108712000D02*
X196124999Y-104611001D01*
X196124999Y-95340001D02*
X199390000Y-92075000D01*
X199390000Y-92075000D02*
X200660000Y-92075000D01*
X200660000Y-92075000D02*
X200660000Y-92075000D01*
X194065010Y-114290990D02*
X192823999Y-115532001D01*
X203093010Y-111231990D02*
X200034010Y-114290990D01*
X203093010Y-87101990D02*
X203093010Y-111231990D01*
X192823999Y-115532001D02*
X192024000Y-116332000D01*
X200034010Y-114290990D02*
X194065010Y-114290990D01*
X207010000Y-83185000D02*
X203093010Y-87101990D01*
D32*
X225044000Y-82296000D02*
X225044000Y-81280000D01*
X224028000Y-80264000D02*
X216916000Y-80264000D01*
X225044000Y-81280000D02*
X224028000Y-80264000D01*
X186269999Y-86780001D02*
X185420000Y-87630000D01*
X186720001Y-86329999D02*
X186269999Y-86780001D01*
X186720001Y-84581997D02*
X186720001Y-86329999D01*
X197060008Y-74241990D02*
X186720001Y-84581997D01*
X213858481Y-74241990D02*
X197060008Y-74241990D01*
X216916000Y-77299509D02*
X213858481Y-74241990D01*
X216916000Y-80264000D02*
X216916000Y-77299509D01*
D31*
X192823999Y-118072001D02*
X192024000Y-118872000D01*
X200517189Y-118072001D02*
X192823999Y-118072001D01*
X203543020Y-115046170D02*
X200517189Y-118072001D01*
X203543020Y-103147978D02*
X203543020Y-115046170D01*
X207013997Y-99677001D02*
X203543020Y-103147978D01*
X207804001Y-99677001D02*
X207013997Y-99677001D01*
X208679999Y-98801003D02*
X207804001Y-99677001D01*
X208679999Y-83584999D02*
X208679999Y-98801003D01*
X208280000Y-83185000D02*
X208679999Y-83584999D01*
X186269999Y-110069999D02*
X185420000Y-109220000D01*
X198793999Y-110069999D02*
X186269999Y-110069999D01*
X198960000Y-110236000D02*
X198793999Y-110069999D01*
X199635000Y-110236000D02*
X198960000Y-110236000D01*
X202193000Y-107678000D02*
X202193000Y-104648000D01*
X199635000Y-110236000D02*
X202193000Y-107678000D01*
D33*
X212344000Y-86034000D02*
X210820000Y-84510000D01*
X212344000Y-87884000D02*
X212344000Y-86034000D01*
X210820000Y-84510000D02*
X210820000Y-75692000D01*
D34*
X212214999Y-90363001D02*
X212344000Y-90234000D01*
X212344000Y-90234000D02*
X212344000Y-87884000D01*
D35*
X219496819Y-115526821D02*
X210553300Y-106583302D01*
X220677740Y-116288820D02*
X219915741Y-115526821D01*
X219915741Y-115526821D02*
X219496819Y-115526821D01*
X212344000Y-90734000D02*
X212344000Y-87884000D01*
X210553300Y-92524700D02*
X212344000Y-90734000D01*
X210553300Y-106583302D02*
X210553300Y-92524700D01*
D31*
X201295000Y-105800000D02*
X200143000Y-104648000D01*
X201295000Y-106045000D02*
X201295000Y-105800000D01*
D35*
X241935000Y-95460000D02*
X241935000Y-92710000D01*
X243630000Y-97155000D02*
X241935000Y-95460000D01*
X252095000Y-97155000D02*
X243630000Y-97155000D01*
D33*
X213320000Y-78700000D02*
X213320000Y-75692000D01*
X220980000Y-93285000D02*
X220980000Y-86360000D01*
X221404001Y-86784001D02*
X220726000Y-86106000D01*
X222504000Y-87884000D02*
X221404001Y-86784001D01*
X220980000Y-86360000D02*
X220726000Y-86106000D01*
X220726000Y-86106000D02*
X213320000Y-78700000D01*
D36*
X236003999Y-109944001D02*
X236511999Y-109944001D01*
X235204000Y-110744000D02*
X236003999Y-109944001D01*
X239395000Y-107061000D02*
X239395000Y-92710000D01*
X236511999Y-109944001D02*
X239395000Y-107061000D01*
D35*
X252095000Y-87630000D02*
X251460000Y-86995000D01*
X252095000Y-92075000D02*
X252095000Y-87630000D01*
X253594999Y-93574999D02*
X252095000Y-92075000D01*
X254670001Y-94650001D02*
X253594999Y-93574999D01*
X254670001Y-102834999D02*
X254670001Y-94650001D01*
X252095000Y-105410000D02*
X254670001Y-102834999D01*
X253594999Y-106909999D02*
X252095000Y-105410000D01*
X254670001Y-107985001D02*
X253594999Y-106909999D01*
X254670001Y-122936559D02*
X254670001Y-107985001D01*
X246077740Y-131528820D02*
X254670001Y-122936559D01*
X244475000Y-90170000D02*
X251460000Y-83185000D01*
X244475000Y-92710000D02*
X244475000Y-90170000D01*
D31*
X186269999Y-120229999D02*
X185420000Y-119380000D01*
X188595000Y-122555000D02*
X186269999Y-120229999D01*
X195825000Y-122555000D02*
X188595000Y-122555000D01*
X196460000Y-123190000D02*
X195825000Y-122555000D01*
X195580000Y-124070000D02*
X196460000Y-123190000D01*
X195580000Y-127880000D02*
X195580000Y-124070000D01*
X186269999Y-117689999D02*
X185420000Y-116840000D01*
X188866999Y-120286999D02*
X188866999Y-120286999D01*
X188866999Y-120286999D02*
X186269999Y-117689999D01*
X194742316Y-120286999D02*
X188866999Y-120286999D01*
X195331815Y-119697500D02*
X194742316Y-120286999D01*
X195897500Y-119697500D02*
X195331815Y-119697500D01*
X199011628Y-115939372D02*
X199635000Y-115316000D01*
X197493999Y-117457001D02*
X199011628Y-115939372D01*
X188577001Y-117457001D02*
X197493999Y-117457001D01*
X185420000Y-114300000D02*
X188577001Y-117457001D01*
X199635000Y-115316000D02*
X199635000Y-115316000D01*
X186055000Y-112395000D02*
X185420000Y-111760000D01*
X196460000Y-112395000D02*
X196215000Y-112395000D01*
X196215000Y-112395000D02*
X186055000Y-112395000D01*
X193155370Y-121412000D02*
X192024000Y-121412000D01*
X199191190Y-121412000D02*
X193155370Y-121412000D01*
X200535010Y-120068180D02*
X199191190Y-121412000D01*
X200535010Y-118941800D02*
X200535010Y-120068180D01*
X201729811Y-117746999D02*
X200535010Y-118941800D01*
X207804001Y-117746999D02*
X201729811Y-117746999D01*
X209130009Y-116420991D02*
X207804001Y-117746999D01*
X209130009Y-82962007D02*
X209130009Y-116420991D01*
X208915000Y-82746998D02*
X209130009Y-82962007D01*
X208915000Y-81280000D02*
X208915000Y-82746998D01*
D37*
G36*
X221523928Y-76542000D02*
G01*
X221536188Y-76666482D01*
X221572498Y-76786180D01*
X221631463Y-76896494D01*
X221710815Y-76993185D01*
X221807506Y-77072537D01*
X221917820Y-77131502D01*
X222037518Y-77167812D01*
X222162000Y-77180072D01*
X223862000Y-77180072D01*
X223986482Y-77167812D01*
X224106180Y-77131502D01*
X224216494Y-77072537D01*
X224313185Y-76993185D01*
X224392537Y-76896494D01*
X224451502Y-76786180D01*
X224472393Y-76717313D01*
X224496866Y-76747134D01*
X224722986Y-76932706D01*
X224980966Y-77070599D01*
X225260889Y-77155513D01*
X225479050Y-77177000D01*
X225624950Y-77177000D01*
X225843111Y-77155513D01*
X226123034Y-77070599D01*
X226381014Y-76932706D01*
X226607134Y-76747134D01*
X226792706Y-76521014D01*
X226930599Y-76263034D01*
X227015513Y-75983111D01*
X227044185Y-75692000D01*
X227015513Y-75400889D01*
X226930599Y-75120966D01*
X226896409Y-75057000D01*
X228473000Y-75057000D01*
X228473000Y-85640872D01*
X228396483Y-85590834D01*
X228134514Y-85485350D01*
X227857000Y-85433000D01*
X227457000Y-85433000D01*
X227457000Y-86741000D01*
X227477000Y-86741000D01*
X227477000Y-86995000D01*
X227457000Y-86995000D01*
X227457000Y-87015000D01*
X227203000Y-87015000D01*
X227203000Y-86995000D01*
X225660085Y-86995000D01*
X225538096Y-87217039D01*
X225555633Y-87299818D01*
X225666285Y-87559646D01*
X225825500Y-87792895D01*
X226027161Y-87990601D01*
X226256741Y-88140735D01*
X226128899Y-88209068D01*
X225910392Y-88388392D01*
X225731068Y-88606899D01*
X225597818Y-88856192D01*
X225515764Y-89126691D01*
X225488057Y-89408000D01*
X225515764Y-89689309D01*
X225597818Y-89959808D01*
X225731068Y-90209101D01*
X225910392Y-90427608D01*
X226128899Y-90606932D01*
X226261858Y-90678000D01*
X226128899Y-90749068D01*
X225910392Y-90928392D01*
X225731068Y-91146899D01*
X225597818Y-91396192D01*
X225515764Y-91666691D01*
X225488057Y-91948000D01*
X225515764Y-92229309D01*
X225597818Y-92499808D01*
X225731068Y-92749101D01*
X225910392Y-92967608D01*
X226128899Y-93146932D01*
X226378192Y-93280182D01*
X226648691Y-93362236D01*
X226859508Y-93383000D01*
X227800492Y-93383000D01*
X228011309Y-93362236D01*
X228281808Y-93280182D01*
X228473000Y-93177988D01*
X228473000Y-104234693D01*
X228384000Y-104225928D01*
X226784000Y-104225928D01*
X226659518Y-104238188D01*
X226539820Y-104274498D01*
X226429506Y-104333463D01*
X226332815Y-104412815D01*
X226253463Y-104509506D01*
X226194498Y-104619820D01*
X226158188Y-104739518D01*
X226145928Y-104864000D01*
X226145928Y-106464000D01*
X226158188Y-106588482D01*
X226194498Y-106708180D01*
X226253463Y-106818494D01*
X226332815Y-106915185D01*
X226429506Y-106994537D01*
X226539820Y-107053502D01*
X226659518Y-107089812D01*
X226684080Y-107092231D01*
X226520481Y-107240586D01*
X226352963Y-107466580D01*
X226232754Y-107720913D01*
X226192096Y-107854961D01*
X226314085Y-108077000D01*
X227457000Y-108077000D01*
X227457000Y-108057000D01*
X227711000Y-108057000D01*
X227711000Y-108077000D01*
X227731000Y-108077000D01*
X227731000Y-108331000D01*
X227711000Y-108331000D01*
X227711000Y-108351000D01*
X227457000Y-108351000D01*
X227457000Y-108331000D01*
X226314085Y-108331000D01*
X226192096Y-108553039D01*
X226232754Y-108687087D01*
X226352963Y-108941420D01*
X226520481Y-109167414D01*
X226728869Y-109356385D01*
X226920682Y-109471421D01*
X226782899Y-109545068D01*
X226564392Y-109724392D01*
X226385068Y-109942899D01*
X226251818Y-110192192D01*
X226169764Y-110462691D01*
X226142057Y-110744000D01*
X226169764Y-111025309D01*
X226251818Y-111295808D01*
X226385068Y-111545101D01*
X226564392Y-111763608D01*
X226782899Y-111942932D01*
X227032192Y-112076182D01*
X227302691Y-112158236D01*
X227513508Y-112179000D01*
X227654492Y-112179000D01*
X227865309Y-112158236D01*
X228135808Y-112076182D01*
X228385101Y-111942932D01*
X228473000Y-111870795D01*
X228473000Y-133223000D01*
X184277000Y-133223000D01*
X184277000Y-129921626D01*
X184752447Y-129921626D01*
X184752447Y-130428374D01*
X184851309Y-130925386D01*
X185045234Y-131393561D01*
X185326768Y-131814907D01*
X185685093Y-132173232D01*
X186106439Y-132454766D01*
X186574614Y-132648691D01*
X187071626Y-132747553D01*
X187578374Y-132747553D01*
X188075386Y-132648691D01*
X188543561Y-132454766D01*
X188964907Y-132173232D01*
X189323232Y-131814907D01*
X189604766Y-131393561D01*
X189798691Y-130925386D01*
X189882311Y-130505000D01*
X194241928Y-130505000D01*
X194254188Y-130629482D01*
X194290498Y-130749180D01*
X194349463Y-130859494D01*
X194428815Y-130956185D01*
X194525506Y-131035537D01*
X194635820Y-131094502D01*
X194755518Y-131130812D01*
X194880000Y-131143072D01*
X195294250Y-131140000D01*
X195453000Y-130981250D01*
X195453000Y-130057000D01*
X195707000Y-130057000D01*
X195707000Y-130981250D01*
X195865750Y-131140000D01*
X196280000Y-131143072D01*
X196404482Y-131130812D01*
X196524180Y-131094502D01*
X196634494Y-131035537D01*
X196731185Y-130956185D01*
X196810537Y-130859494D01*
X196869502Y-130749180D01*
X196905812Y-130629482D01*
X196918072Y-130505000D01*
X196915000Y-130215750D01*
X196756250Y-130057000D01*
X195707000Y-130057000D01*
X195453000Y-130057000D01*
X194403750Y-130057000D01*
X194245000Y-130215750D01*
X194241928Y-130505000D01*
X189882311Y-130505000D01*
X189897553Y-130428374D01*
X189897553Y-129921626D01*
X189798691Y-129424614D01*
X189604766Y-128956439D01*
X189323232Y-128535093D01*
X188964907Y-128176768D01*
X188543561Y-127895234D01*
X188075386Y-127701309D01*
X187578374Y-127602447D01*
X187071626Y-127602447D01*
X186574614Y-127701309D01*
X186106439Y-127895234D01*
X185685093Y-128176768D01*
X185326768Y-128535093D01*
X185045234Y-128956439D01*
X184851309Y-129424614D01*
X184752447Y-129921626D01*
X184277000Y-129921626D01*
X184277000Y-123333407D01*
X184325820Y-123359502D01*
X184445518Y-123395812D01*
X184570000Y-123408072D01*
X186270000Y-123408072D01*
X186394482Y-123395812D01*
X186514180Y-123359502D01*
X186624494Y-123300537D01*
X186721185Y-123221185D01*
X186800537Y-123124494D01*
X186859502Y-123014180D01*
X186895812Y-122894482D01*
X186908072Y-122770000D01*
X186908072Y-121942874D01*
X188031200Y-123066002D01*
X188054999Y-123095001D01*
X188083997Y-123118799D01*
X188170723Y-123189974D01*
X188302753Y-123260546D01*
X188446014Y-123304003D01*
X188557667Y-123315000D01*
X188557677Y-123315000D01*
X188595000Y-123318676D01*
X188632323Y-123315000D01*
X190737354Y-123315000D01*
X190691818Y-123400192D01*
X190609764Y-123670691D01*
X190582057Y-123952000D01*
X190609764Y-124233309D01*
X190691818Y-124503808D01*
X190825068Y-124753101D01*
X191004392Y-124971608D01*
X191222899Y-125150932D01*
X191355858Y-125222000D01*
X191222899Y-125293068D01*
X191004392Y-125472392D01*
X190825068Y-125690899D01*
X190691818Y-125940192D01*
X190609764Y-126210691D01*
X190582057Y-126492000D01*
X190609764Y-126773309D01*
X190691818Y-127043808D01*
X190825068Y-127293101D01*
X191004392Y-127511608D01*
X191222899Y-127690932D01*
X191472192Y-127824182D01*
X191742691Y-127906236D01*
X191953508Y-127927000D01*
X192094492Y-127927000D01*
X192305309Y-127906236D01*
X192575808Y-127824182D01*
X192825101Y-127690932D01*
X193043608Y-127511608D01*
X193222932Y-127293101D01*
X193356182Y-127043808D01*
X193438236Y-126773309D01*
X193465943Y-126492000D01*
X193438236Y-126210691D01*
X193356182Y-125940192D01*
X193222932Y-125690899D01*
X193043608Y-125472392D01*
X192825101Y-125293068D01*
X192692142Y-125222000D01*
X192825101Y-125150932D01*
X193043608Y-124971608D01*
X193222932Y-124753101D01*
X193356182Y-124503808D01*
X193438236Y-124233309D01*
X193465943Y-123952000D01*
X193438236Y-123670691D01*
X193356182Y-123400192D01*
X193310646Y-123315000D01*
X195246928Y-123315000D01*
X195246928Y-123328271D01*
X195068998Y-123506201D01*
X195040000Y-123529999D01*
X195016202Y-123558997D01*
X195016201Y-123558998D01*
X194945026Y-123645724D01*
X194874454Y-123777754D01*
X194830998Y-123921015D01*
X194816324Y-124070000D01*
X194820001Y-124107332D01*
X194820000Y-126725473D01*
X194790149Y-126734528D01*
X194636613Y-126816595D01*
X194502038Y-126927038D01*
X194391595Y-127061613D01*
X194309528Y-127215149D01*
X194258992Y-127381745D01*
X194241928Y-127554999D01*
X194241928Y-128205001D01*
X194258992Y-128378255D01*
X194309528Y-128544851D01*
X194391595Y-128698387D01*
X194502038Y-128832962D01*
X194508594Y-128838342D01*
X194428815Y-128903815D01*
X194349463Y-129000506D01*
X194290498Y-129110820D01*
X194254188Y-129230518D01*
X194241928Y-129355000D01*
X194245000Y-129644250D01*
X194403750Y-129803000D01*
X195453000Y-129803000D01*
X195453000Y-129783000D01*
X195707000Y-129783000D01*
X195707000Y-129803000D01*
X196756250Y-129803000D01*
X196915000Y-129644250D01*
X196918072Y-129355000D01*
X196905812Y-129230518D01*
X196869502Y-129110820D01*
X196810537Y-129000506D01*
X196731185Y-128903815D01*
X196651406Y-128838342D01*
X196657962Y-128832962D01*
X196768405Y-128698387D01*
X196850472Y-128544851D01*
X196901008Y-128378255D01*
X196918072Y-128205001D01*
X196918072Y-127554999D01*
X196901008Y-127381745D01*
X196850472Y-127215149D01*
X196768405Y-127061613D01*
X196657962Y-126927038D01*
X196523387Y-126816595D01*
X196369851Y-126734528D01*
X196340000Y-126725473D01*
X196340000Y-124528072D01*
X196785001Y-124528072D01*
X196958255Y-124511008D01*
X197124851Y-124460472D01*
X197278387Y-124378405D01*
X197412962Y-124267962D01*
X197485000Y-124180184D01*
X197557038Y-124267962D01*
X197691613Y-124378405D01*
X197845149Y-124460472D01*
X198011745Y-124511008D01*
X198184999Y-124528072D01*
X198835001Y-124528072D01*
X199008255Y-124511008D01*
X199174851Y-124460472D01*
X199328387Y-124378405D01*
X199462962Y-124267962D01*
X199573405Y-124133387D01*
X199655472Y-123979851D01*
X199706008Y-123813255D01*
X199723072Y-123640001D01*
X199723072Y-122739999D01*
X199706008Y-122566745D01*
X199655472Y-122400149D01*
X199573405Y-122246613D01*
X199470662Y-122121421D01*
X199483437Y-122117546D01*
X199615466Y-122046974D01*
X199731191Y-121952001D01*
X199754993Y-121922998D01*
X201046018Y-120631975D01*
X201075011Y-120608181D01*
X201098805Y-120579188D01*
X201098809Y-120579184D01*
X201169983Y-120492457D01*
X201169984Y-120492456D01*
X201240556Y-120360427D01*
X201284013Y-120217166D01*
X201295010Y-120105513D01*
X201295010Y-120105504D01*
X201298686Y-120068181D01*
X201295010Y-120030858D01*
X201295010Y-119256601D01*
X202044613Y-118506999D01*
X205875151Y-118506999D01*
X205849764Y-118590691D01*
X205822057Y-118872000D01*
X205849764Y-119153309D01*
X205931818Y-119423808D01*
X206065068Y-119673101D01*
X206244392Y-119891608D01*
X206462899Y-120070932D01*
X206595858Y-120142000D01*
X206462899Y-120213068D01*
X206244392Y-120392392D01*
X206065068Y-120610899D01*
X205931818Y-120860192D01*
X205849764Y-121130691D01*
X205822057Y-121412000D01*
X205849764Y-121693309D01*
X205931818Y-121963808D01*
X206065068Y-122213101D01*
X206244392Y-122431608D01*
X206462899Y-122610932D01*
X206595858Y-122682000D01*
X206462899Y-122753068D01*
X206244392Y-122932392D01*
X206065068Y-123150899D01*
X205931818Y-123400192D01*
X205849764Y-123670691D01*
X205822057Y-123952000D01*
X205849764Y-124233309D01*
X205931818Y-124503808D01*
X206065068Y-124753101D01*
X206244392Y-124971608D01*
X206462899Y-125150932D01*
X206595858Y-125222000D01*
X206462899Y-125293068D01*
X206244392Y-125472392D01*
X206065068Y-125690899D01*
X205931818Y-125940192D01*
X205849764Y-126210691D01*
X205822057Y-126492000D01*
X205849764Y-126773309D01*
X205931818Y-127043808D01*
X206065068Y-127293101D01*
X206244392Y-127511608D01*
X206462899Y-127690932D01*
X206712192Y-127824182D01*
X206982691Y-127906236D01*
X207193508Y-127927000D01*
X207334492Y-127927000D01*
X207545309Y-127906236D01*
X207815808Y-127824182D01*
X208065101Y-127690932D01*
X208283608Y-127511608D01*
X208363396Y-127414385D01*
X219891780Y-127414385D01*
X219958760Y-127654476D01*
X220207788Y-127771576D01*
X220474875Y-127837843D01*
X220749757Y-127850730D01*
X221021873Y-127809742D01*
X221280763Y-127716456D01*
X221396720Y-127654476D01*
X221463700Y-127414385D01*
X220677740Y-126628425D01*
X219891780Y-127414385D01*
X208363396Y-127414385D01*
X208462932Y-127293101D01*
X208596182Y-127043808D01*
X208678236Y-126773309D01*
X208703102Y-126520837D01*
X219275830Y-126520837D01*
X219316818Y-126792953D01*
X219410104Y-127051843D01*
X219472084Y-127167800D01*
X219712175Y-127234780D01*
X220498135Y-126448820D01*
X220857345Y-126448820D01*
X221643305Y-127234780D01*
X221883396Y-127167800D01*
X222000496Y-126918772D01*
X222066763Y-126651685D01*
X222079650Y-126376803D01*
X222038662Y-126104687D01*
X221945376Y-125845797D01*
X221883396Y-125729840D01*
X221643305Y-125662860D01*
X220857345Y-126448820D01*
X220498135Y-126448820D01*
X219712175Y-125662860D01*
X219472084Y-125729840D01*
X219354984Y-125978868D01*
X219288717Y-126245955D01*
X219275830Y-126520837D01*
X208703102Y-126520837D01*
X208705943Y-126492000D01*
X208678236Y-126210691D01*
X208596182Y-125940192D01*
X208462932Y-125690899D01*
X208292524Y-125483255D01*
X219891780Y-125483255D01*
X220677740Y-126269215D01*
X221463700Y-125483255D01*
X221396720Y-125243164D01*
X221147692Y-125126064D01*
X220880605Y-125059797D01*
X220605723Y-125046910D01*
X220333607Y-125087898D01*
X220074717Y-125181184D01*
X219958760Y-125243164D01*
X219891780Y-125483255D01*
X208292524Y-125483255D01*
X208283608Y-125472392D01*
X208065101Y-125293068D01*
X207932142Y-125222000D01*
X208065101Y-125150932D01*
X208283608Y-124971608D01*
X208462932Y-124753101D01*
X208596182Y-124503808D01*
X208678236Y-124233309D01*
X208705943Y-123952000D01*
X208678236Y-123670691D01*
X208596182Y-123400192D01*
X208462932Y-123150899D01*
X208283608Y-122932392D01*
X208065101Y-122753068D01*
X207932142Y-122682000D01*
X208065101Y-122610932D01*
X208283608Y-122431608D01*
X208462932Y-122213101D01*
X208596182Y-121963808D01*
X208678236Y-121693309D01*
X208705943Y-121412000D01*
X208688139Y-121231228D01*
X219280740Y-121231228D01*
X219280740Y-121506412D01*
X219334426Y-121776310D01*
X219439735Y-122030547D01*
X219592620Y-122259355D01*
X219787205Y-122453940D01*
X220016013Y-122606825D01*
X220270250Y-122712134D01*
X220540148Y-122765820D01*
X220815332Y-122765820D01*
X221085230Y-122712134D01*
X221339467Y-122606825D01*
X221568275Y-122453940D01*
X221762860Y-122259355D01*
X221915745Y-122030547D01*
X222021054Y-121776310D01*
X222074740Y-121506412D01*
X222074740Y-121231228D01*
X222021054Y-120961330D01*
X221915745Y-120707093D01*
X221762860Y-120478285D01*
X221568275Y-120283700D01*
X221339467Y-120130815D01*
X221085230Y-120025506D01*
X220815332Y-119971820D01*
X220540148Y-119971820D01*
X220270250Y-120025506D01*
X220016013Y-120130815D01*
X219787205Y-120283700D01*
X219592620Y-120478285D01*
X219439735Y-120707093D01*
X219334426Y-120961330D01*
X219280740Y-121231228D01*
X208688139Y-121231228D01*
X208678236Y-121130691D01*
X208596182Y-120860192D01*
X208462932Y-120610899D01*
X208283608Y-120392392D01*
X208065101Y-120213068D01*
X207932142Y-120142000D01*
X208065101Y-120070932D01*
X208283608Y-119891608D01*
X208462932Y-119673101D01*
X208596182Y-119423808D01*
X208678236Y-119153309D01*
X208705943Y-118872000D01*
X208678236Y-118590691D01*
X208596182Y-118320192D01*
X208494968Y-118130834D01*
X209641017Y-116984786D01*
X209670010Y-116960992D01*
X209693804Y-116931999D01*
X209693808Y-116931995D01*
X209764982Y-116845268D01*
X209795371Y-116788415D01*
X209835555Y-116713238D01*
X209879012Y-116569977D01*
X209890009Y-116458324D01*
X209890009Y-116458315D01*
X209893685Y-116420992D01*
X209890009Y-116383669D01*
X209890009Y-108055473D01*
X218376640Y-116542105D01*
X218423922Y-116599718D01*
X218481535Y-116647000D01*
X218481539Y-116647004D01*
X218531949Y-116688374D01*
X218653849Y-116788415D01*
X218916171Y-116928629D01*
X219200807Y-117014972D01*
X219275819Y-117022360D01*
X219662461Y-117409002D01*
X219834771Y-117550413D01*
X220097091Y-117690627D01*
X220381727Y-117776971D01*
X220677739Y-117806125D01*
X220973751Y-117776971D01*
X221258387Y-117690627D01*
X221520709Y-117550413D01*
X221750637Y-117361717D01*
X221939333Y-117131789D01*
X222079547Y-116869467D01*
X222165891Y-116584831D01*
X222195045Y-116288819D01*
X222165891Y-115992807D01*
X222079547Y-115708171D01*
X221939333Y-115445851D01*
X221797922Y-115273541D01*
X221035923Y-114511541D01*
X220988638Y-114453924D01*
X220758711Y-114265227D01*
X220496389Y-114125013D01*
X220211753Y-114038670D01*
X220136743Y-114031282D01*
X213878532Y-107773072D01*
X223840000Y-107773072D01*
X223964482Y-107760812D01*
X224084180Y-107724502D01*
X224194494Y-107665537D01*
X224291185Y-107586185D01*
X224370537Y-107489494D01*
X224429502Y-107379180D01*
X224465812Y-107259482D01*
X224478072Y-107135000D01*
X224478072Y-97735000D01*
X224465812Y-97610518D01*
X224429502Y-97490820D01*
X224370537Y-97380506D01*
X224291185Y-97283815D01*
X224194494Y-97204463D01*
X224084180Y-97145498D01*
X223964482Y-97109188D01*
X223840000Y-97096928D01*
X213040000Y-97096928D01*
X212915518Y-97109188D01*
X212795820Y-97145498D01*
X212685506Y-97204463D01*
X212588815Y-97283815D01*
X212509463Y-97380506D01*
X212450498Y-97490820D01*
X212414188Y-97610518D01*
X212401928Y-97735000D01*
X212401928Y-106296468D01*
X212063300Y-105957840D01*
X212063300Y-93150162D01*
X213359280Y-91854182D01*
X213416897Y-91806897D01*
X213605594Y-91576970D01*
X213745808Y-91314648D01*
X213832151Y-91030012D01*
X213836584Y-90985000D01*
X214711928Y-90985000D01*
X214711928Y-95585000D01*
X214724188Y-95709482D01*
X214760498Y-95829180D01*
X214819463Y-95939494D01*
X214898815Y-96036185D01*
X214995506Y-96115537D01*
X215105820Y-96174502D01*
X215225518Y-96210812D01*
X215350000Y-96223072D01*
X216450000Y-96223072D01*
X216574482Y-96210812D01*
X216694180Y-96174502D01*
X216804494Y-96115537D01*
X216901185Y-96036185D01*
X216980537Y-95939494D01*
X217039502Y-95829180D01*
X217075812Y-95709482D01*
X217088072Y-95585000D01*
X217251928Y-95585000D01*
X217264188Y-95709482D01*
X217300498Y-95829180D01*
X217359463Y-95939494D01*
X217438815Y-96036185D01*
X217535506Y-96115537D01*
X217645820Y-96174502D01*
X217765518Y-96210812D01*
X217890000Y-96223072D01*
X218154250Y-96220000D01*
X218313000Y-96061250D01*
X218313000Y-93412000D01*
X218567000Y-93412000D01*
X218567000Y-96061250D01*
X218725750Y-96220000D01*
X218990000Y-96223072D01*
X219114482Y-96210812D01*
X219234180Y-96174502D01*
X219344494Y-96115537D01*
X219441185Y-96036185D01*
X219520537Y-95939494D01*
X219579502Y-95829180D01*
X219615812Y-95709482D01*
X219628072Y-95585000D01*
X219625000Y-93570750D01*
X219466250Y-93412000D01*
X218567000Y-93412000D01*
X218313000Y-93412000D01*
X217413750Y-93412000D01*
X217255000Y-93570750D01*
X217251928Y-95585000D01*
X217088072Y-95585000D01*
X217088072Y-90985000D01*
X217251928Y-90985000D01*
X217255000Y-92999250D01*
X217413750Y-93158000D01*
X218313000Y-93158000D01*
X218313000Y-90508750D01*
X218567000Y-90508750D01*
X218567000Y-93158000D01*
X219466250Y-93158000D01*
X219625000Y-92999250D01*
X219628072Y-90985000D01*
X219615812Y-90860518D01*
X219579502Y-90740820D01*
X219520537Y-90630506D01*
X219441185Y-90533815D01*
X219344494Y-90454463D01*
X219234180Y-90395498D01*
X219114482Y-90359188D01*
X218990000Y-90346928D01*
X218725750Y-90350000D01*
X218567000Y-90508750D01*
X218313000Y-90508750D01*
X218154250Y-90350000D01*
X217890000Y-90346928D01*
X217765518Y-90359188D01*
X217645820Y-90395498D01*
X217535506Y-90454463D01*
X217438815Y-90533815D01*
X217359463Y-90630506D01*
X217300498Y-90740820D01*
X217264188Y-90860518D01*
X217251928Y-90985000D01*
X217088072Y-90985000D01*
X217075812Y-90860518D01*
X217039502Y-90740820D01*
X216980537Y-90630506D01*
X216901185Y-90533815D01*
X216804494Y-90454463D01*
X216694180Y-90395498D01*
X216574482Y-90359188D01*
X216450000Y-90346928D01*
X215350000Y-90346928D01*
X215225518Y-90359188D01*
X215105820Y-90395498D01*
X214995506Y-90454463D01*
X214898815Y-90533815D01*
X214819463Y-90630506D01*
X214760498Y-90740820D01*
X214724188Y-90860518D01*
X214711928Y-90985000D01*
X213836584Y-90985000D01*
X213854000Y-90808178D01*
X213854000Y-90808172D01*
X213861305Y-90734001D01*
X213854000Y-90659830D01*
X213854000Y-89468985D01*
X213895185Y-89435185D01*
X213974537Y-89338494D01*
X214033502Y-89228180D01*
X214069812Y-89108482D01*
X214082072Y-88984000D01*
X214082072Y-86784000D01*
X214069812Y-86659518D01*
X214033502Y-86539820D01*
X213974537Y-86429506D01*
X213895185Y-86332815D01*
X213798494Y-86253463D01*
X213688180Y-86194498D01*
X213568482Y-86158188D01*
X213444000Y-86145928D01*
X213354000Y-86145928D01*
X213354000Y-86083597D01*
X213358885Y-86033999D01*
X213354000Y-85984401D01*
X213354000Y-85984392D01*
X213339385Y-85836006D01*
X213281632Y-85645620D01*
X213187847Y-85470160D01*
X213061633Y-85316367D01*
X213023099Y-85284744D01*
X211830000Y-84091645D01*
X211830000Y-77224976D01*
X211913386Y-77180405D01*
X212047962Y-77069962D01*
X212158405Y-76935386D01*
X212212777Y-76833663D01*
X212264866Y-76897134D01*
X212310001Y-76934175D01*
X212310000Y-78650392D01*
X212305114Y-78700000D01*
X212320419Y-78855386D01*
X212324615Y-78897993D01*
X212382368Y-79088379D01*
X212476153Y-79263840D01*
X212602367Y-79417633D01*
X212640906Y-79449261D01*
X219970001Y-86778357D01*
X219970000Y-90544556D01*
X219899463Y-90630506D01*
X219840498Y-90740820D01*
X219804188Y-90860518D01*
X219791928Y-90985000D01*
X219791928Y-95585000D01*
X219804188Y-95709482D01*
X219840498Y-95829180D01*
X219899463Y-95939494D01*
X219978815Y-96036185D01*
X220075506Y-96115537D01*
X220185820Y-96174502D01*
X220305518Y-96210812D01*
X220430000Y-96223072D01*
X221530000Y-96223072D01*
X221654482Y-96210812D01*
X221774180Y-96174502D01*
X221884494Y-96115537D01*
X221981185Y-96036185D01*
X222060537Y-95939494D01*
X222119502Y-95829180D01*
X222155812Y-95709482D01*
X222168072Y-95585000D01*
X222168072Y-90985000D01*
X222155812Y-90860518D01*
X222119502Y-90740820D01*
X222060537Y-90630506D01*
X221990000Y-90544556D01*
X221990000Y-89541149D01*
X222163881Y-89593895D01*
X222418775Y-89619000D01*
X222589225Y-89619000D01*
X222844119Y-89593895D01*
X223171168Y-89494686D01*
X223472578Y-89333579D01*
X223736766Y-89116766D01*
X223953579Y-88852578D01*
X224114686Y-88551168D01*
X224213895Y-88224119D01*
X224247394Y-87884000D01*
X224213895Y-87543881D01*
X224114686Y-87216832D01*
X223953579Y-86915422D01*
X223736766Y-86651234D01*
X223575591Y-86518961D01*
X225538096Y-86518961D01*
X225660085Y-86741000D01*
X227203000Y-86741000D01*
X227203000Y-85433000D01*
X226803000Y-85433000D01*
X226525486Y-85485350D01*
X226263517Y-85590834D01*
X226027161Y-85745399D01*
X225825500Y-85943105D01*
X225666285Y-86176354D01*
X225555633Y-86436182D01*
X225538096Y-86518961D01*
X223575591Y-86518961D01*
X223472578Y-86434421D01*
X223171168Y-86273314D01*
X222844119Y-86174105D01*
X222589225Y-86149000D01*
X222418775Y-86149000D01*
X222217208Y-86168853D01*
X222083100Y-86034745D01*
X222083095Y-86034741D01*
X221729263Y-85680908D01*
X221697633Y-85642367D01*
X221659092Y-85610738D01*
X221475261Y-85426906D01*
X221475256Y-85426900D01*
X217281314Y-81232958D01*
X217406256Y-81181205D01*
X217454454Y-81149000D01*
X223661422Y-81149000D01*
X224159001Y-81646579D01*
X224159001Y-81757545D01*
X224126795Y-81805744D01*
X224048774Y-81994102D01*
X224009000Y-82194061D01*
X224009000Y-82397939D01*
X224048774Y-82597898D01*
X224126795Y-82786256D01*
X224240063Y-82955774D01*
X224384226Y-83099937D01*
X224553744Y-83213205D01*
X224742102Y-83291226D01*
X224942061Y-83331000D01*
X225145939Y-83331000D01*
X225345898Y-83291226D01*
X225534256Y-83213205D01*
X225703774Y-83099937D01*
X225847937Y-82955774D01*
X225961205Y-82786256D01*
X226039226Y-82597898D01*
X226079000Y-82397939D01*
X226079000Y-82194061D01*
X226039226Y-81994102D01*
X225961205Y-81805744D01*
X225929000Y-81757546D01*
X225929000Y-81323469D01*
X225933281Y-81280000D01*
X225929000Y-81236531D01*
X225929000Y-81236523D01*
X225916195Y-81106510D01*
X225865589Y-80939687D01*
X225783411Y-80785941D01*
X225672817Y-80651183D01*
X225639049Y-80623470D01*
X224684534Y-79668956D01*
X224656817Y-79635183D01*
X224522059Y-79524589D01*
X224368313Y-79442411D01*
X224201490Y-79391805D01*
X224071477Y-79379000D01*
X224071469Y-79379000D01*
X224028000Y-79374719D01*
X223984531Y-79379000D01*
X217801000Y-79379000D01*
X217801000Y-77342978D01*
X217805281Y-77299509D01*
X217801000Y-77256040D01*
X217801000Y-77256032D01*
X217788195Y-77126019D01*
X217737589Y-76959196D01*
X217655411Y-76805450D01*
X217544817Y-76670692D01*
X217511049Y-76642979D01*
X215925069Y-75057000D01*
X221523928Y-75057000D01*
X221523928Y-76542000D01*
X221523928Y-76542000D01*
G37*
X221523928Y-76542000D02*
X221536188Y-76666482D01*
X221572498Y-76786180D01*
X221631463Y-76896494D01*
X221710815Y-76993185D01*
X221807506Y-77072537D01*
X221917820Y-77131502D01*
X222037518Y-77167812D01*
X222162000Y-77180072D01*
X223862000Y-77180072D01*
X223986482Y-77167812D01*
X224106180Y-77131502D01*
X224216494Y-77072537D01*
X224313185Y-76993185D01*
X224392537Y-76896494D01*
X224451502Y-76786180D01*
X224472393Y-76717313D01*
X224496866Y-76747134D01*
X224722986Y-76932706D01*
X224980966Y-77070599D01*
X225260889Y-77155513D01*
X225479050Y-77177000D01*
X225624950Y-77177000D01*
X225843111Y-77155513D01*
X226123034Y-77070599D01*
X226381014Y-76932706D01*
X226607134Y-76747134D01*
X226792706Y-76521014D01*
X226930599Y-76263034D01*
X227015513Y-75983111D01*
X227044185Y-75692000D01*
X227015513Y-75400889D01*
X226930599Y-75120966D01*
X226896409Y-75057000D01*
X228473000Y-75057000D01*
X228473000Y-85640872D01*
X228396483Y-85590834D01*
X228134514Y-85485350D01*
X227857000Y-85433000D01*
X227457000Y-85433000D01*
X227457000Y-86741000D01*
X227477000Y-86741000D01*
X227477000Y-86995000D01*
X227457000Y-86995000D01*
X227457000Y-87015000D01*
X227203000Y-87015000D01*
X227203000Y-86995000D01*
X225660085Y-86995000D01*
X225538096Y-87217039D01*
X225555633Y-87299818D01*
X225666285Y-87559646D01*
X225825500Y-87792895D01*
X226027161Y-87990601D01*
X226256741Y-88140735D01*
X226128899Y-88209068D01*
X225910392Y-88388392D01*
X225731068Y-88606899D01*
X225597818Y-88856192D01*
X225515764Y-89126691D01*
X225488057Y-89408000D01*
X225515764Y-89689309D01*
X225597818Y-89959808D01*
X225731068Y-90209101D01*
X225910392Y-90427608D01*
X226128899Y-90606932D01*
X226261858Y-90678000D01*
X226128899Y-90749068D01*
X225910392Y-90928392D01*
X225731068Y-91146899D01*
X225597818Y-91396192D01*
X225515764Y-91666691D01*
X225488057Y-91948000D01*
X225515764Y-92229309D01*
X225597818Y-92499808D01*
X225731068Y-92749101D01*
X225910392Y-92967608D01*
X226128899Y-93146932D01*
X226378192Y-93280182D01*
X226648691Y-93362236D01*
X226859508Y-93383000D01*
X227800492Y-93383000D01*
X228011309Y-93362236D01*
X228281808Y-93280182D01*
X228473000Y-93177988D01*
X228473000Y-104234693D01*
X228384000Y-104225928D01*
X226784000Y-104225928D01*
X226659518Y-104238188D01*
X226539820Y-104274498D01*
X226429506Y-104333463D01*
X226332815Y-104412815D01*
X226253463Y-104509506D01*
X226194498Y-104619820D01*
X226158188Y-104739518D01*
X226145928Y-104864000D01*
X226145928Y-106464000D01*
X226158188Y-106588482D01*
X226194498Y-106708180D01*
X226253463Y-106818494D01*
X226332815Y-106915185D01*
X226429506Y-106994537D01*
X226539820Y-107053502D01*
X226659518Y-107089812D01*
X226684080Y-107092231D01*
X226520481Y-107240586D01*
X226352963Y-107466580D01*
X226232754Y-107720913D01*
X226192096Y-107854961D01*
X226314085Y-108077000D01*
X227457000Y-108077000D01*
X227457000Y-108057000D01*
X227711000Y-108057000D01*
X227711000Y-108077000D01*
X227731000Y-108077000D01*
X227731000Y-108331000D01*
X227711000Y-108331000D01*
X227711000Y-108351000D01*
X227457000Y-108351000D01*
X227457000Y-108331000D01*
X226314085Y-108331000D01*
X226192096Y-108553039D01*
X226232754Y-108687087D01*
X226352963Y-108941420D01*
X226520481Y-109167414D01*
X226728869Y-109356385D01*
X226920682Y-109471421D01*
X226782899Y-109545068D01*
X226564392Y-109724392D01*
X226385068Y-109942899D01*
X226251818Y-110192192D01*
X226169764Y-110462691D01*
X226142057Y-110744000D01*
X226169764Y-111025309D01*
X226251818Y-111295808D01*
X226385068Y-111545101D01*
X226564392Y-111763608D01*
X226782899Y-111942932D01*
X227032192Y-112076182D01*
X227302691Y-112158236D01*
X227513508Y-112179000D01*
X227654492Y-112179000D01*
X227865309Y-112158236D01*
X228135808Y-112076182D01*
X228385101Y-111942932D01*
X228473000Y-111870795D01*
X228473000Y-133223000D01*
X184277000Y-133223000D01*
X184277000Y-129921626D01*
X184752447Y-129921626D01*
X184752447Y-130428374D01*
X184851309Y-130925386D01*
X185045234Y-131393561D01*
X185326768Y-131814907D01*
X185685093Y-132173232D01*
X186106439Y-132454766D01*
X186574614Y-132648691D01*
X187071626Y-132747553D01*
X187578374Y-132747553D01*
X188075386Y-132648691D01*
X188543561Y-132454766D01*
X188964907Y-132173232D01*
X189323232Y-131814907D01*
X189604766Y-131393561D01*
X189798691Y-130925386D01*
X189882311Y-130505000D01*
X194241928Y-130505000D01*
X194254188Y-130629482D01*
X194290498Y-130749180D01*
X194349463Y-130859494D01*
X194428815Y-130956185D01*
X194525506Y-131035537D01*
X194635820Y-131094502D01*
X194755518Y-131130812D01*
X194880000Y-131143072D01*
X195294250Y-131140000D01*
X195453000Y-130981250D01*
X195453000Y-130057000D01*
X195707000Y-130057000D01*
X195707000Y-130981250D01*
X195865750Y-131140000D01*
X196280000Y-131143072D01*
X196404482Y-131130812D01*
X196524180Y-131094502D01*
X196634494Y-131035537D01*
X196731185Y-130956185D01*
X196810537Y-130859494D01*
X196869502Y-130749180D01*
X196905812Y-130629482D01*
X196918072Y-130505000D01*
X196915000Y-130215750D01*
X196756250Y-130057000D01*
X195707000Y-130057000D01*
X195453000Y-130057000D01*
X194403750Y-130057000D01*
X194245000Y-130215750D01*
X194241928Y-130505000D01*
X189882311Y-130505000D01*
X189897553Y-130428374D01*
X189897553Y-129921626D01*
X189798691Y-129424614D01*
X189604766Y-128956439D01*
X189323232Y-128535093D01*
X188964907Y-128176768D01*
X188543561Y-127895234D01*
X188075386Y-127701309D01*
X187578374Y-127602447D01*
X187071626Y-127602447D01*
X186574614Y-127701309D01*
X186106439Y-127895234D01*
X185685093Y-128176768D01*
X185326768Y-128535093D01*
X185045234Y-128956439D01*
X184851309Y-129424614D01*
X184752447Y-129921626D01*
X184277000Y-129921626D01*
X184277000Y-123333407D01*
X184325820Y-123359502D01*
X184445518Y-123395812D01*
X184570000Y-123408072D01*
X186270000Y-123408072D01*
X186394482Y-123395812D01*
X186514180Y-123359502D01*
X186624494Y-123300537D01*
X186721185Y-123221185D01*
X186800537Y-123124494D01*
X186859502Y-123014180D01*
X186895812Y-122894482D01*
X186908072Y-122770000D01*
X186908072Y-121942874D01*
X188031200Y-123066002D01*
X188054999Y-123095001D01*
X188083997Y-123118799D01*
X188170723Y-123189974D01*
X188302753Y-123260546D01*
X188446014Y-123304003D01*
X188557667Y-123315000D01*
X188557677Y-123315000D01*
X188595000Y-123318676D01*
X188632323Y-123315000D01*
X190737354Y-123315000D01*
X190691818Y-123400192D01*
X190609764Y-123670691D01*
X190582057Y-123952000D01*
X190609764Y-124233309D01*
X190691818Y-124503808D01*
X190825068Y-124753101D01*
X191004392Y-124971608D01*
X191222899Y-125150932D01*
X191355858Y-125222000D01*
X191222899Y-125293068D01*
X191004392Y-125472392D01*
X190825068Y-125690899D01*
X190691818Y-125940192D01*
X190609764Y-126210691D01*
X190582057Y-126492000D01*
X190609764Y-126773309D01*
X190691818Y-127043808D01*
X190825068Y-127293101D01*
X191004392Y-127511608D01*
X191222899Y-127690932D01*
X191472192Y-127824182D01*
X191742691Y-127906236D01*
X191953508Y-127927000D01*
X192094492Y-127927000D01*
X192305309Y-127906236D01*
X192575808Y-127824182D01*
X192825101Y-127690932D01*
X193043608Y-127511608D01*
X193222932Y-127293101D01*
X193356182Y-127043808D01*
X193438236Y-126773309D01*
X193465943Y-126492000D01*
X193438236Y-126210691D01*
X193356182Y-125940192D01*
X193222932Y-125690899D01*
X193043608Y-125472392D01*
X192825101Y-125293068D01*
X192692142Y-125222000D01*
X192825101Y-125150932D01*
X193043608Y-124971608D01*
X193222932Y-124753101D01*
X193356182Y-124503808D01*
X193438236Y-124233309D01*
X193465943Y-123952000D01*
X193438236Y-123670691D01*
X193356182Y-123400192D01*
X193310646Y-123315000D01*
X195246928Y-123315000D01*
X195246928Y-123328271D01*
X195068998Y-123506201D01*
X195040000Y-123529999D01*
X195016202Y-123558997D01*
X195016201Y-123558998D01*
X194945026Y-123645724D01*
X194874454Y-123777754D01*
X194830998Y-123921015D01*
X194816324Y-124070000D01*
X194820001Y-124107332D01*
X194820000Y-126725473D01*
X194790149Y-126734528D01*
X194636613Y-126816595D01*
X194502038Y-126927038D01*
X194391595Y-127061613D01*
X194309528Y-127215149D01*
X194258992Y-127381745D01*
X194241928Y-127554999D01*
X194241928Y-128205001D01*
X194258992Y-128378255D01*
X194309528Y-128544851D01*
X194391595Y-128698387D01*
X194502038Y-128832962D01*
X194508594Y-128838342D01*
X194428815Y-128903815D01*
X194349463Y-129000506D01*
X194290498Y-129110820D01*
X194254188Y-129230518D01*
X194241928Y-129355000D01*
X194245000Y-129644250D01*
X194403750Y-129803000D01*
X195453000Y-129803000D01*
X195453000Y-129783000D01*
X195707000Y-129783000D01*
X195707000Y-129803000D01*
X196756250Y-129803000D01*
X196915000Y-129644250D01*
X196918072Y-129355000D01*
X196905812Y-129230518D01*
X196869502Y-129110820D01*
X196810537Y-129000506D01*
X196731185Y-128903815D01*
X196651406Y-128838342D01*
X196657962Y-128832962D01*
X196768405Y-128698387D01*
X196850472Y-128544851D01*
X196901008Y-128378255D01*
X196918072Y-128205001D01*
X196918072Y-127554999D01*
X196901008Y-127381745D01*
X196850472Y-127215149D01*
X196768405Y-127061613D01*
X196657962Y-126927038D01*
X196523387Y-126816595D01*
X196369851Y-126734528D01*
X196340000Y-126725473D01*
X196340000Y-124528072D01*
X196785001Y-124528072D01*
X196958255Y-124511008D01*
X197124851Y-124460472D01*
X197278387Y-124378405D01*
X197412962Y-124267962D01*
X197485000Y-124180184D01*
X197557038Y-124267962D01*
X197691613Y-124378405D01*
X197845149Y-124460472D01*
X198011745Y-124511008D01*
X198184999Y-124528072D01*
X198835001Y-124528072D01*
X199008255Y-124511008D01*
X199174851Y-124460472D01*
X199328387Y-124378405D01*
X199462962Y-124267962D01*
X199573405Y-124133387D01*
X199655472Y-123979851D01*
X199706008Y-123813255D01*
X199723072Y-123640001D01*
X199723072Y-122739999D01*
X199706008Y-122566745D01*
X199655472Y-122400149D01*
X199573405Y-122246613D01*
X199470662Y-122121421D01*
X199483437Y-122117546D01*
X199615466Y-122046974D01*
X199731191Y-121952001D01*
X199754993Y-121922998D01*
X201046018Y-120631975D01*
X201075011Y-120608181D01*
X201098805Y-120579188D01*
X201098809Y-120579184D01*
X201169983Y-120492457D01*
X201169984Y-120492456D01*
X201240556Y-120360427D01*
X201284013Y-120217166D01*
X201295010Y-120105513D01*
X201295010Y-120105504D01*
X201298686Y-120068181D01*
X201295010Y-120030858D01*
X201295010Y-119256601D01*
X202044613Y-118506999D01*
X205875151Y-118506999D01*
X205849764Y-118590691D01*
X205822057Y-118872000D01*
X205849764Y-119153309D01*
X205931818Y-119423808D01*
X206065068Y-119673101D01*
X206244392Y-119891608D01*
X206462899Y-120070932D01*
X206595858Y-120142000D01*
X206462899Y-120213068D01*
X206244392Y-120392392D01*
X206065068Y-120610899D01*
X205931818Y-120860192D01*
X205849764Y-121130691D01*
X205822057Y-121412000D01*
X205849764Y-121693309D01*
X205931818Y-121963808D01*
X206065068Y-122213101D01*
X206244392Y-122431608D01*
X206462899Y-122610932D01*
X206595858Y-122682000D01*
X206462899Y-122753068D01*
X206244392Y-122932392D01*
X206065068Y-123150899D01*
X205931818Y-123400192D01*
X205849764Y-123670691D01*
X205822057Y-123952000D01*
X205849764Y-124233309D01*
X205931818Y-124503808D01*
X206065068Y-124753101D01*
X206244392Y-124971608D01*
X206462899Y-125150932D01*
X206595858Y-125222000D01*
X206462899Y-125293068D01*
X206244392Y-125472392D01*
X206065068Y-125690899D01*
X205931818Y-125940192D01*
X205849764Y-126210691D01*
X205822057Y-126492000D01*
X205849764Y-126773309D01*
X205931818Y-127043808D01*
X206065068Y-127293101D01*
X206244392Y-127511608D01*
X206462899Y-127690932D01*
X206712192Y-127824182D01*
X206982691Y-127906236D01*
X207193508Y-127927000D01*
X207334492Y-127927000D01*
X207545309Y-127906236D01*
X207815808Y-127824182D01*
X208065101Y-127690932D01*
X208283608Y-127511608D01*
X208363396Y-127414385D01*
X219891780Y-127414385D01*
X219958760Y-127654476D01*
X220207788Y-127771576D01*
X220474875Y-127837843D01*
X220749757Y-127850730D01*
X221021873Y-127809742D01*
X221280763Y-127716456D01*
X221396720Y-127654476D01*
X221463700Y-127414385D01*
X220677740Y-126628425D01*
X219891780Y-127414385D01*
X208363396Y-127414385D01*
X208462932Y-127293101D01*
X208596182Y-127043808D01*
X208678236Y-126773309D01*
X208703102Y-126520837D01*
X219275830Y-126520837D01*
X219316818Y-126792953D01*
X219410104Y-127051843D01*
X219472084Y-127167800D01*
X219712175Y-127234780D01*
X220498135Y-126448820D01*
X220857345Y-126448820D01*
X221643305Y-127234780D01*
X221883396Y-127167800D01*
X222000496Y-126918772D01*
X222066763Y-126651685D01*
X222079650Y-126376803D01*
X222038662Y-126104687D01*
X221945376Y-125845797D01*
X221883396Y-125729840D01*
X221643305Y-125662860D01*
X220857345Y-126448820D01*
X220498135Y-126448820D01*
X219712175Y-125662860D01*
X219472084Y-125729840D01*
X219354984Y-125978868D01*
X219288717Y-126245955D01*
X219275830Y-126520837D01*
X208703102Y-126520837D01*
X208705943Y-126492000D01*
X208678236Y-126210691D01*
X208596182Y-125940192D01*
X208462932Y-125690899D01*
X208292524Y-125483255D01*
X219891780Y-125483255D01*
X220677740Y-126269215D01*
X221463700Y-125483255D01*
X221396720Y-125243164D01*
X221147692Y-125126064D01*
X220880605Y-125059797D01*
X220605723Y-125046910D01*
X220333607Y-125087898D01*
X220074717Y-125181184D01*
X219958760Y-125243164D01*
X219891780Y-125483255D01*
X208292524Y-125483255D01*
X208283608Y-125472392D01*
X208065101Y-125293068D01*
X207932142Y-125222000D01*
X208065101Y-125150932D01*
X208283608Y-124971608D01*
X208462932Y-124753101D01*
X208596182Y-124503808D01*
X208678236Y-124233309D01*
X208705943Y-123952000D01*
X208678236Y-123670691D01*
X208596182Y-123400192D01*
X208462932Y-123150899D01*
X208283608Y-122932392D01*
X208065101Y-122753068D01*
X207932142Y-122682000D01*
X208065101Y-122610932D01*
X208283608Y-122431608D01*
X208462932Y-122213101D01*
X208596182Y-121963808D01*
X208678236Y-121693309D01*
X208705943Y-121412000D01*
X208688139Y-121231228D01*
X219280740Y-121231228D01*
X219280740Y-121506412D01*
X219334426Y-121776310D01*
X219439735Y-122030547D01*
X219592620Y-122259355D01*
X219787205Y-122453940D01*
X220016013Y-122606825D01*
X220270250Y-122712134D01*
X220540148Y-122765820D01*
X220815332Y-122765820D01*
X221085230Y-122712134D01*
X221339467Y-122606825D01*
X221568275Y-122453940D01*
X221762860Y-122259355D01*
X221915745Y-122030547D01*
X222021054Y-121776310D01*
X222074740Y-121506412D01*
X222074740Y-121231228D01*
X222021054Y-120961330D01*
X221915745Y-120707093D01*
X221762860Y-120478285D01*
X221568275Y-120283700D01*
X221339467Y-120130815D01*
X221085230Y-120025506D01*
X220815332Y-119971820D01*
X220540148Y-119971820D01*
X220270250Y-120025506D01*
X220016013Y-120130815D01*
X219787205Y-120283700D01*
X219592620Y-120478285D01*
X219439735Y-120707093D01*
X219334426Y-120961330D01*
X219280740Y-121231228D01*
X208688139Y-121231228D01*
X208678236Y-121130691D01*
X208596182Y-120860192D01*
X208462932Y-120610899D01*
X208283608Y-120392392D01*
X208065101Y-120213068D01*
X207932142Y-120142000D01*
X208065101Y-120070932D01*
X208283608Y-119891608D01*
X208462932Y-119673101D01*
X208596182Y-119423808D01*
X208678236Y-119153309D01*
X208705943Y-118872000D01*
X208678236Y-118590691D01*
X208596182Y-118320192D01*
X208494968Y-118130834D01*
X209641017Y-116984786D01*
X209670010Y-116960992D01*
X209693804Y-116931999D01*
X209693808Y-116931995D01*
X209764982Y-116845268D01*
X209795371Y-116788415D01*
X209835555Y-116713238D01*
X209879012Y-116569977D01*
X209890009Y-116458324D01*
X209890009Y-116458315D01*
X209893685Y-116420992D01*
X209890009Y-116383669D01*
X209890009Y-108055473D01*
X218376640Y-116542105D01*
X218423922Y-116599718D01*
X218481535Y-116647000D01*
X218481539Y-116647004D01*
X218531949Y-116688374D01*
X218653849Y-116788415D01*
X218916171Y-116928629D01*
X219200807Y-117014972D01*
X219275819Y-117022360D01*
X219662461Y-117409002D01*
X219834771Y-117550413D01*
X220097091Y-117690627D01*
X220381727Y-117776971D01*
X220677739Y-117806125D01*
X220973751Y-117776971D01*
X221258387Y-117690627D01*
X221520709Y-117550413D01*
X221750637Y-117361717D01*
X221939333Y-117131789D01*
X222079547Y-116869467D01*
X222165891Y-116584831D01*
X222195045Y-116288819D01*
X222165891Y-115992807D01*
X222079547Y-115708171D01*
X221939333Y-115445851D01*
X221797922Y-115273541D01*
X221035923Y-114511541D01*
X220988638Y-114453924D01*
X220758711Y-114265227D01*
X220496389Y-114125013D01*
X220211753Y-114038670D01*
X220136743Y-114031282D01*
X213878532Y-107773072D01*
X223840000Y-107773072D01*
X223964482Y-107760812D01*
X224084180Y-107724502D01*
X224194494Y-107665537D01*
X224291185Y-107586185D01*
X224370537Y-107489494D01*
X224429502Y-107379180D01*
X224465812Y-107259482D01*
X224478072Y-107135000D01*
X224478072Y-97735000D01*
X224465812Y-97610518D01*
X224429502Y-97490820D01*
X224370537Y-97380506D01*
X224291185Y-97283815D01*
X224194494Y-97204463D01*
X224084180Y-97145498D01*
X223964482Y-97109188D01*
X223840000Y-97096928D01*
X213040000Y-97096928D01*
X212915518Y-97109188D01*
X212795820Y-97145498D01*
X212685506Y-97204463D01*
X212588815Y-97283815D01*
X212509463Y-97380506D01*
X212450498Y-97490820D01*
X212414188Y-97610518D01*
X212401928Y-97735000D01*
X212401928Y-106296468D01*
X212063300Y-105957840D01*
X212063300Y-93150162D01*
X213359280Y-91854182D01*
X213416897Y-91806897D01*
X213605594Y-91576970D01*
X213745808Y-91314648D01*
X213832151Y-91030012D01*
X213836584Y-90985000D01*
X214711928Y-90985000D01*
X214711928Y-95585000D01*
X214724188Y-95709482D01*
X214760498Y-95829180D01*
X214819463Y-95939494D01*
X214898815Y-96036185D01*
X214995506Y-96115537D01*
X215105820Y-96174502D01*
X215225518Y-96210812D01*
X215350000Y-96223072D01*
X216450000Y-96223072D01*
X216574482Y-96210812D01*
X216694180Y-96174502D01*
X216804494Y-96115537D01*
X216901185Y-96036185D01*
X216980537Y-95939494D01*
X217039502Y-95829180D01*
X217075812Y-95709482D01*
X217088072Y-95585000D01*
X217251928Y-95585000D01*
X217264188Y-95709482D01*
X217300498Y-95829180D01*
X217359463Y-95939494D01*
X217438815Y-96036185D01*
X217535506Y-96115537D01*
X217645820Y-96174502D01*
X217765518Y-96210812D01*
X217890000Y-96223072D01*
X218154250Y-96220000D01*
X218313000Y-96061250D01*
X218313000Y-93412000D01*
X218567000Y-93412000D01*
X218567000Y-96061250D01*
X218725750Y-96220000D01*
X218990000Y-96223072D01*
X219114482Y-96210812D01*
X219234180Y-96174502D01*
X219344494Y-96115537D01*
X219441185Y-96036185D01*
X219520537Y-95939494D01*
X219579502Y-95829180D01*
X219615812Y-95709482D01*
X219628072Y-95585000D01*
X219625000Y-93570750D01*
X219466250Y-93412000D01*
X218567000Y-93412000D01*
X218313000Y-93412000D01*
X217413750Y-93412000D01*
X217255000Y-93570750D01*
X217251928Y-95585000D01*
X217088072Y-95585000D01*
X217088072Y-90985000D01*
X217251928Y-90985000D01*
X217255000Y-92999250D01*
X217413750Y-93158000D01*
X218313000Y-93158000D01*
X218313000Y-90508750D01*
X218567000Y-90508750D01*
X218567000Y-93158000D01*
X219466250Y-93158000D01*
X219625000Y-92999250D01*
X219628072Y-90985000D01*
X219615812Y-90860518D01*
X219579502Y-90740820D01*
X219520537Y-90630506D01*
X219441185Y-90533815D01*
X219344494Y-90454463D01*
X219234180Y-90395498D01*
X219114482Y-90359188D01*
X218990000Y-90346928D01*
X218725750Y-90350000D01*
X218567000Y-90508750D01*
X218313000Y-90508750D01*
X218154250Y-90350000D01*
X217890000Y-90346928D01*
X217765518Y-90359188D01*
X217645820Y-90395498D01*
X217535506Y-90454463D01*
X217438815Y-90533815D01*
X217359463Y-90630506D01*
X217300498Y-90740820D01*
X217264188Y-90860518D01*
X217251928Y-90985000D01*
X217088072Y-90985000D01*
X217075812Y-90860518D01*
X217039502Y-90740820D01*
X216980537Y-90630506D01*
X216901185Y-90533815D01*
X216804494Y-90454463D01*
X216694180Y-90395498D01*
X216574482Y-90359188D01*
X216450000Y-90346928D01*
X215350000Y-90346928D01*
X215225518Y-90359188D01*
X215105820Y-90395498D01*
X214995506Y-90454463D01*
X214898815Y-90533815D01*
X214819463Y-90630506D01*
X214760498Y-90740820D01*
X214724188Y-90860518D01*
X214711928Y-90985000D01*
X213836584Y-90985000D01*
X213854000Y-90808178D01*
X213854000Y-90808172D01*
X213861305Y-90734001D01*
X213854000Y-90659830D01*
X213854000Y-89468985D01*
X213895185Y-89435185D01*
X213974537Y-89338494D01*
X214033502Y-89228180D01*
X214069812Y-89108482D01*
X214082072Y-88984000D01*
X214082072Y-86784000D01*
X214069812Y-86659518D01*
X214033502Y-86539820D01*
X213974537Y-86429506D01*
X213895185Y-86332815D01*
X213798494Y-86253463D01*
X213688180Y-86194498D01*
X213568482Y-86158188D01*
X213444000Y-86145928D01*
X213354000Y-86145928D01*
X213354000Y-86083597D01*
X213358885Y-86033999D01*
X213354000Y-85984401D01*
X213354000Y-85984392D01*
X213339385Y-85836006D01*
X213281632Y-85645620D01*
X213187847Y-85470160D01*
X213061633Y-85316367D01*
X213023099Y-85284744D01*
X211830000Y-84091645D01*
X211830000Y-77224976D01*
X211913386Y-77180405D01*
X212047962Y-77069962D01*
X212158405Y-76935386D01*
X212212777Y-76833663D01*
X212264866Y-76897134D01*
X212310001Y-76934175D01*
X212310000Y-78650392D01*
X212305114Y-78700000D01*
X212320419Y-78855386D01*
X212324615Y-78897993D01*
X212382368Y-79088379D01*
X212476153Y-79263840D01*
X212602367Y-79417633D01*
X212640906Y-79449261D01*
X219970001Y-86778357D01*
X219970000Y-90544556D01*
X219899463Y-90630506D01*
X219840498Y-90740820D01*
X219804188Y-90860518D01*
X219791928Y-90985000D01*
X219791928Y-95585000D01*
X219804188Y-95709482D01*
X219840498Y-95829180D01*
X219899463Y-95939494D01*
X219978815Y-96036185D01*
X220075506Y-96115537D01*
X220185820Y-96174502D01*
X220305518Y-96210812D01*
X220430000Y-96223072D01*
X221530000Y-96223072D01*
X221654482Y-96210812D01*
X221774180Y-96174502D01*
X221884494Y-96115537D01*
X221981185Y-96036185D01*
X222060537Y-95939494D01*
X222119502Y-95829180D01*
X222155812Y-95709482D01*
X222168072Y-95585000D01*
X222168072Y-90985000D01*
X222155812Y-90860518D01*
X222119502Y-90740820D01*
X222060537Y-90630506D01*
X221990000Y-90544556D01*
X221990000Y-89541149D01*
X222163881Y-89593895D01*
X222418775Y-89619000D01*
X222589225Y-89619000D01*
X222844119Y-89593895D01*
X223171168Y-89494686D01*
X223472578Y-89333579D01*
X223736766Y-89116766D01*
X223953579Y-88852578D01*
X224114686Y-88551168D01*
X224213895Y-88224119D01*
X224247394Y-87884000D01*
X224213895Y-87543881D01*
X224114686Y-87216832D01*
X223953579Y-86915422D01*
X223736766Y-86651234D01*
X223575591Y-86518961D01*
X225538096Y-86518961D01*
X225660085Y-86741000D01*
X227203000Y-86741000D01*
X227203000Y-85433000D01*
X226803000Y-85433000D01*
X226525486Y-85485350D01*
X226263517Y-85590834D01*
X226027161Y-85745399D01*
X225825500Y-85943105D01*
X225666285Y-86176354D01*
X225555633Y-86436182D01*
X225538096Y-86518961D01*
X223575591Y-86518961D01*
X223472578Y-86434421D01*
X223171168Y-86273314D01*
X222844119Y-86174105D01*
X222589225Y-86149000D01*
X222418775Y-86149000D01*
X222217208Y-86168853D01*
X222083100Y-86034745D01*
X222083095Y-86034741D01*
X221729263Y-85680908D01*
X221697633Y-85642367D01*
X221659092Y-85610738D01*
X221475261Y-85426906D01*
X221475256Y-85426900D01*
X217281314Y-81232958D01*
X217406256Y-81181205D01*
X217454454Y-81149000D01*
X223661422Y-81149000D01*
X224159001Y-81646579D01*
X224159001Y-81757545D01*
X224126795Y-81805744D01*
X224048774Y-81994102D01*
X224009000Y-82194061D01*
X224009000Y-82397939D01*
X224048774Y-82597898D01*
X224126795Y-82786256D01*
X224240063Y-82955774D01*
X224384226Y-83099937D01*
X224553744Y-83213205D01*
X224742102Y-83291226D01*
X224942061Y-83331000D01*
X225145939Y-83331000D01*
X225345898Y-83291226D01*
X225534256Y-83213205D01*
X225703774Y-83099937D01*
X225847937Y-82955774D01*
X225961205Y-82786256D01*
X226039226Y-82597898D01*
X226079000Y-82397939D01*
X226079000Y-82194061D01*
X226039226Y-81994102D01*
X225961205Y-81805744D01*
X225929000Y-81757546D01*
X225929000Y-81323469D01*
X225933281Y-81280000D01*
X225929000Y-81236531D01*
X225929000Y-81236523D01*
X225916195Y-81106510D01*
X225865589Y-80939687D01*
X225783411Y-80785941D01*
X225672817Y-80651183D01*
X225639049Y-80623470D01*
X224684534Y-79668956D01*
X224656817Y-79635183D01*
X224522059Y-79524589D01*
X224368313Y-79442411D01*
X224201490Y-79391805D01*
X224071477Y-79379000D01*
X224071469Y-79379000D01*
X224028000Y-79374719D01*
X223984531Y-79379000D01*
X217801000Y-79379000D01*
X217801000Y-77342978D01*
X217805281Y-77299509D01*
X217801000Y-77256040D01*
X217801000Y-77256032D01*
X217788195Y-77126019D01*
X217737589Y-76959196D01*
X217655411Y-76805450D01*
X217544817Y-76670692D01*
X217511049Y-76642979D01*
X215925069Y-75057000D01*
X221523928Y-75057000D01*
X221523928Y-76542000D01*
G36*
X200658815Y-116467185D02*
G01*
X200755506Y-116546537D01*
X200865820Y-116605502D01*
X200898863Y-116615526D01*
X200202388Y-117312001D01*
X198713800Y-117312001D01*
X199371730Y-116654072D01*
X199960001Y-116654072D01*
X200133255Y-116637008D01*
X200299851Y-116586472D01*
X200453387Y-116504405D01*
X200587962Y-116393962D01*
X200593342Y-116387406D01*
X200658815Y-116467185D01*
X200658815Y-116467185D01*
G37*
X200658815Y-116467185D02*
X200755506Y-116546537D01*
X200865820Y-116605502D01*
X200898863Y-116615526D01*
X200202388Y-117312001D01*
X198713800Y-117312001D01*
X199371730Y-116654072D01*
X199960001Y-116654072D01*
X200133255Y-116637008D01*
X200299851Y-116586472D01*
X200453387Y-116504405D01*
X200587962Y-116393962D01*
X200593342Y-116387406D01*
X200658815Y-116467185D01*
G36*
X202783021Y-114252348D02*
G01*
X202711185Y-114164815D01*
X202614494Y-114085463D01*
X202504180Y-114026498D01*
X202384482Y-113990188D01*
X202260000Y-113977928D01*
X201970750Y-113981000D01*
X201812000Y-114139750D01*
X201812000Y-115189000D01*
X201832000Y-115189000D01*
X201832000Y-115443000D01*
X201812000Y-115443000D01*
X201812000Y-115463000D01*
X201558000Y-115463000D01*
X201558000Y-115443000D01*
X201538000Y-115443000D01*
X201538000Y-115189000D01*
X201558000Y-115189000D01*
X201558000Y-114139750D01*
X201409026Y-113990776D01*
X202783021Y-112616781D01*
X202783021Y-114252348D01*
X202783021Y-114252348D01*
G37*
X202783021Y-114252348D02*
X202711185Y-114164815D01*
X202614494Y-114085463D01*
X202504180Y-114026498D01*
X202384482Y-113990188D01*
X202260000Y-113977928D01*
X201970750Y-113981000D01*
X201812000Y-114139750D01*
X201812000Y-115189000D01*
X201832000Y-115189000D01*
X201832000Y-115443000D01*
X201812000Y-115443000D01*
X201812000Y-115463000D01*
X201558000Y-115463000D01*
X201558000Y-115443000D01*
X201538000Y-115443000D01*
X201538000Y-115189000D01*
X201558000Y-115189000D01*
X201558000Y-114139750D01*
X201409026Y-113990776D01*
X202783021Y-112616781D01*
X202783021Y-114252348D01*
G36*
X200658815Y-111387185D02*
G01*
X200755506Y-111466537D01*
X200865820Y-111525502D01*
X200985518Y-111561812D01*
X201110000Y-111574072D01*
X201399250Y-111571000D01*
X201557998Y-111412252D01*
X201557998Y-111571000D01*
X201679198Y-111571000D01*
X199719209Y-113530990D01*
X199548655Y-113530990D01*
X199615537Y-113449494D01*
X199674502Y-113339180D01*
X199710812Y-113219482D01*
X199723072Y-113095000D01*
X199720000Y-112680750D01*
X199561250Y-112522000D01*
X198637000Y-112522000D01*
X198637000Y-112542000D01*
X198383000Y-112542000D01*
X198383000Y-112522000D01*
X198363000Y-112522000D01*
X198363000Y-112268000D01*
X198383000Y-112268000D01*
X198383000Y-112248000D01*
X198637000Y-112248000D01*
X198637000Y-112268000D01*
X199561250Y-112268000D01*
X199720000Y-112109250D01*
X199723072Y-111695000D01*
X199711162Y-111574072D01*
X199960001Y-111574072D01*
X200133255Y-111557008D01*
X200299851Y-111506472D01*
X200453387Y-111424405D01*
X200587962Y-111313962D01*
X200593342Y-111307406D01*
X200658815Y-111387185D01*
X200658815Y-111387185D01*
G37*
X200658815Y-111387185D02*
X200755506Y-111466537D01*
X200865820Y-111525502D01*
X200985518Y-111561812D01*
X201110000Y-111574072D01*
X201399250Y-111571000D01*
X201557998Y-111412252D01*
X201557998Y-111571000D01*
X201679198Y-111571000D01*
X199719209Y-113530990D01*
X199548655Y-113530990D01*
X199615537Y-113449494D01*
X199674502Y-113339180D01*
X199710812Y-113219482D01*
X199723072Y-113095000D01*
X199720000Y-112680750D01*
X199561250Y-112522000D01*
X198637000Y-112522000D01*
X198637000Y-112542000D01*
X198383000Y-112542000D01*
X198383000Y-112522000D01*
X198363000Y-112522000D01*
X198363000Y-112268000D01*
X198383000Y-112268000D01*
X198383000Y-112248000D01*
X198637000Y-112248000D01*
X198637000Y-112268000D01*
X199561250Y-112268000D01*
X199720000Y-112109250D01*
X199723072Y-111695000D01*
X199711162Y-111574072D01*
X199960001Y-111574072D01*
X200133255Y-111557008D01*
X200299851Y-111506472D01*
X200453387Y-111424405D01*
X200587962Y-111313962D01*
X200593342Y-111307406D01*
X200658815Y-111387185D01*
G36*
X201812000Y-110109000D02*
G01*
X201832000Y-110109000D01*
X201832000Y-110363000D01*
X201812000Y-110363000D01*
X201812000Y-110383000D01*
X201558000Y-110383000D01*
X201558000Y-110363000D01*
X201538000Y-110363000D01*
X201538000Y-110109000D01*
X201558000Y-110109000D01*
X201558000Y-110089000D01*
X201812000Y-110089000D01*
X201812000Y-110109000D01*
X201812000Y-110109000D01*
G37*
X201812000Y-110109000D02*
X201832000Y-110109000D01*
X201832000Y-110363000D01*
X201812000Y-110363000D01*
X201812000Y-110383000D01*
X201558000Y-110383000D01*
X201558000Y-110363000D01*
X201538000Y-110363000D01*
X201538000Y-110109000D01*
X201558000Y-110109000D01*
X201558000Y-110089000D01*
X201812000Y-110089000D01*
X201812000Y-110109000D01*
G36*
X209331928Y-76442000D02*
G01*
X209348992Y-76615254D01*
X209399528Y-76781850D01*
X209481595Y-76935386D01*
X209592038Y-77069962D01*
X209726614Y-77180405D01*
X209810001Y-77224976D01*
X209810000Y-80756512D01*
X209718937Y-80620226D01*
X209574774Y-80476063D01*
X209405256Y-80362795D01*
X209216898Y-80284774D01*
X209016939Y-80245000D01*
X208813061Y-80245000D01*
X208613102Y-80284774D01*
X208424744Y-80362795D01*
X208255226Y-80476063D01*
X208111063Y-80620226D01*
X207997795Y-80789744D01*
X207919774Y-80978102D01*
X207880000Y-81178061D01*
X207880000Y-81381939D01*
X207919774Y-81581898D01*
X207997795Y-81770256D01*
X208111063Y-81939774D01*
X208155000Y-81983711D01*
X208155001Y-82154587D01*
X207978102Y-82189774D01*
X207789744Y-82267795D01*
X207645000Y-82364510D01*
X207500256Y-82267795D01*
X207311898Y-82189774D01*
X207111939Y-82150000D01*
X206908061Y-82150000D01*
X206708102Y-82189774D01*
X206519744Y-82267795D01*
X206350226Y-82381063D01*
X206206063Y-82525226D01*
X206092795Y-82694744D01*
X206014774Y-82883102D01*
X205975000Y-83083061D01*
X205975000Y-83145197D01*
X202582013Y-86538186D01*
X202553009Y-86561989D01*
X202507121Y-86617904D01*
X202458036Y-86677714D01*
X202438491Y-86714280D01*
X202387464Y-86809744D01*
X202344007Y-86953005D01*
X202333010Y-87064658D01*
X202333010Y-87064668D01*
X202329334Y-87101990D01*
X202333010Y-87139312D01*
X202333011Y-103309928D01*
X201867999Y-103309928D01*
X201694745Y-103326992D01*
X201528149Y-103377528D01*
X201374613Y-103459595D01*
X201240038Y-103570038D01*
X201168000Y-103657816D01*
X201095962Y-103570038D01*
X200961387Y-103459595D01*
X200807851Y-103377528D01*
X200641255Y-103326992D01*
X200468001Y-103309928D01*
X199817999Y-103309928D01*
X199644745Y-103326992D01*
X199478149Y-103377528D01*
X199324613Y-103459595D01*
X199190038Y-103570038D01*
X199079595Y-103704613D01*
X199005000Y-103844170D01*
X199005000Y-102913465D01*
X199009281Y-102869999D01*
X199005000Y-102826533D01*
X199005000Y-102826523D01*
X198992195Y-102696510D01*
X198941589Y-102529687D01*
X198859411Y-102375941D01*
X198796938Y-102299818D01*
X198776532Y-102274953D01*
X198776530Y-102274951D01*
X198748817Y-102241183D01*
X198715049Y-102213470D01*
X197856535Y-101354957D01*
X197845226Y-101298102D01*
X197767205Y-101109744D01*
X197653937Y-100940226D01*
X197509774Y-100796063D01*
X197340256Y-100682795D01*
X197151898Y-100604774D01*
X196951939Y-100565000D01*
X196884999Y-100565000D01*
X196884999Y-95654802D01*
X199704802Y-92835000D01*
X199956289Y-92835000D01*
X200000226Y-92878937D01*
X200169744Y-92992205D01*
X200358102Y-93070226D01*
X200558061Y-93110000D01*
X200761939Y-93110000D01*
X200961898Y-93070226D01*
X201150256Y-92992205D01*
X201319774Y-92878937D01*
X201463937Y-92734774D01*
X201577205Y-92565256D01*
X201655226Y-92376898D01*
X201695000Y-92176939D01*
X201695000Y-91973061D01*
X201655226Y-91773102D01*
X201577205Y-91584744D01*
X201463937Y-91415226D01*
X201319774Y-91271063D01*
X201150256Y-91157795D01*
X200961898Y-91079774D01*
X200761939Y-91040000D01*
X200558061Y-91040000D01*
X200358102Y-91079774D01*
X200169744Y-91157795D01*
X200000226Y-91271063D01*
X199956289Y-91315000D01*
X199427325Y-91315000D01*
X199390000Y-91311324D01*
X199352675Y-91315000D01*
X199352667Y-91315000D01*
X199241014Y-91325997D01*
X199097753Y-91369454D01*
X198965724Y-91440026D01*
X198849999Y-91534999D01*
X198826201Y-91563997D01*
X195613997Y-94776202D01*
X195584999Y-94800000D01*
X195561201Y-94828998D01*
X195561200Y-94828999D01*
X195490025Y-94915725D01*
X195419453Y-95047755D01*
X195375997Y-95191016D01*
X195361323Y-95340001D01*
X195365000Y-95377333D01*
X195364999Y-104296198D01*
X193463402Y-106197796D01*
X193465943Y-106172000D01*
X193438236Y-105890691D01*
X193356182Y-105620192D01*
X193222932Y-105370899D01*
X193043608Y-105152392D01*
X192825101Y-104973068D01*
X192692142Y-104902000D01*
X192825101Y-104830932D01*
X193043608Y-104651608D01*
X193222932Y-104433101D01*
X193356182Y-104183808D01*
X193438236Y-103913309D01*
X193465943Y-103632000D01*
X193438236Y-103350691D01*
X193356182Y-103080192D01*
X193222932Y-102830899D01*
X193043608Y-102612392D01*
X192825101Y-102433068D01*
X192692142Y-102362000D01*
X192825101Y-102290932D01*
X193043608Y-102111608D01*
X193222932Y-101893101D01*
X193356182Y-101643808D01*
X193438236Y-101373309D01*
X193465943Y-101092000D01*
X193438236Y-100810691D01*
X193356182Y-100540192D01*
X193222932Y-100290899D01*
X193043608Y-100072392D01*
X192825101Y-99893068D01*
X192687318Y-99819421D01*
X192879131Y-99704385D01*
X193087519Y-99515414D01*
X193255037Y-99289420D01*
X193375246Y-99035087D01*
X193415904Y-98901039D01*
X193293915Y-98679000D01*
X192151000Y-98679000D01*
X192151000Y-98699000D01*
X191897000Y-98699000D01*
X191897000Y-98679000D01*
X190754085Y-98679000D01*
X190632096Y-98901039D01*
X190672754Y-99035087D01*
X190792963Y-99289420D01*
X190960481Y-99515414D01*
X191168869Y-99704385D01*
X191360682Y-99819421D01*
X191222899Y-99893068D01*
X191004392Y-100072392D01*
X190825068Y-100290899D01*
X190691818Y-100540192D01*
X190609764Y-100810691D01*
X190582057Y-101092000D01*
X190609764Y-101373309D01*
X190691818Y-101643808D01*
X190825068Y-101893101D01*
X191004392Y-102111608D01*
X191222899Y-102290932D01*
X191355858Y-102362000D01*
X191222899Y-102433068D01*
X191004392Y-102612392D01*
X190825068Y-102830899D01*
X190691818Y-103080192D01*
X190609764Y-103350691D01*
X190582057Y-103632000D01*
X190609764Y-103913309D01*
X190691818Y-104183808D01*
X190825068Y-104433101D01*
X191004392Y-104651608D01*
X191222899Y-104830932D01*
X191355858Y-104902000D01*
X191222899Y-104973068D01*
X191004392Y-105152392D01*
X190825068Y-105370899D01*
X190735216Y-105539000D01*
X189171711Y-105539000D01*
X189127774Y-105495063D01*
X188958256Y-105381795D01*
X188769898Y-105303774D01*
X188569939Y-105264000D01*
X188366061Y-105264000D01*
X188166102Y-105303774D01*
X187977744Y-105381795D01*
X187808226Y-105495063D01*
X187664063Y-105639226D01*
X187550795Y-105808744D01*
X187472774Y-105997102D01*
X187433000Y-106197061D01*
X187433000Y-106400939D01*
X187472774Y-106600898D01*
X187550795Y-106789256D01*
X187664063Y-106958774D01*
X187808226Y-107102937D01*
X187977744Y-107216205D01*
X188166102Y-107294226D01*
X188366061Y-107334000D01*
X188569939Y-107334000D01*
X188769898Y-107294226D01*
X188958256Y-107216205D01*
X189127774Y-107102937D01*
X189171711Y-107059000D01*
X190895563Y-107059000D01*
X191004392Y-107191608D01*
X191222899Y-107370932D01*
X191355858Y-107442000D01*
X191222899Y-107513068D01*
X191004392Y-107692392D01*
X190825068Y-107910899D01*
X190691818Y-108160192D01*
X190609764Y-108430691D01*
X190582057Y-108712000D01*
X190609764Y-108993309D01*
X190691818Y-109263808D01*
X190716508Y-109309999D01*
X186903321Y-109309999D01*
X186912185Y-109220000D01*
X186883513Y-108928889D01*
X186798599Y-108648966D01*
X186660706Y-108390986D01*
X186475134Y-108164866D01*
X186249014Y-107979294D01*
X186194209Y-107950000D01*
X186249014Y-107920706D01*
X186475134Y-107735134D01*
X186660706Y-107509014D01*
X186798599Y-107251034D01*
X186883513Y-106971111D01*
X186912185Y-106680000D01*
X186883513Y-106388889D01*
X186798599Y-106108966D01*
X186660706Y-105850986D01*
X186475134Y-105624866D01*
X186249014Y-105439294D01*
X186184477Y-105404799D01*
X186301355Y-105335178D01*
X186517588Y-105140269D01*
X186691641Y-104906920D01*
X186816825Y-104644099D01*
X186861476Y-104496890D01*
X186740155Y-104267000D01*
X185547000Y-104267000D01*
X185547000Y-104287000D01*
X185293000Y-104287000D01*
X185293000Y-104267000D01*
X185273000Y-104267000D01*
X185273000Y-104013000D01*
X185293000Y-104013000D01*
X185293000Y-102819186D01*
X185547000Y-102819186D01*
X185547000Y-104013000D01*
X186740155Y-104013000D01*
X186861476Y-103783110D01*
X186816825Y-103635901D01*
X186691641Y-103373080D01*
X186517588Y-103139731D01*
X186301355Y-102944822D01*
X186051252Y-102795843D01*
X185776891Y-102698519D01*
X185547000Y-102819186D01*
X185293000Y-102819186D01*
X185063109Y-102698519D01*
X184788748Y-102795843D01*
X184538645Y-102944822D01*
X184322412Y-103139731D01*
X184277000Y-103200614D01*
X184277000Y-96663407D01*
X184325820Y-96689502D01*
X184445518Y-96725812D01*
X184570000Y-96738072D01*
X186270000Y-96738072D01*
X186394482Y-96725812D01*
X186514180Y-96689502D01*
X186624494Y-96630537D01*
X186721185Y-96551185D01*
X186800537Y-96454494D01*
X186859502Y-96344180D01*
X186895812Y-96224482D01*
X186908072Y-96100000D01*
X186908072Y-94400000D01*
X186895812Y-94275518D01*
X186859502Y-94155820D01*
X186800537Y-94045506D01*
X186721185Y-93948815D01*
X186624494Y-93869463D01*
X186514180Y-93810498D01*
X186445313Y-93789607D01*
X186475134Y-93765134D01*
X186660706Y-93539014D01*
X186696525Y-93472000D01*
X190582057Y-93472000D01*
X190609764Y-93753309D01*
X190691818Y-94023808D01*
X190825068Y-94273101D01*
X191004392Y-94491608D01*
X191222899Y-94670932D01*
X191355858Y-94742000D01*
X191222899Y-94813068D01*
X191004392Y-94992392D01*
X190825068Y-95210899D01*
X190691818Y-95460192D01*
X190609764Y-95730691D01*
X190582057Y-96012000D01*
X190609764Y-96293309D01*
X190691818Y-96563808D01*
X190825068Y-96813101D01*
X191004392Y-97031608D01*
X191222899Y-97210932D01*
X191360682Y-97284579D01*
X191168869Y-97399615D01*
X190960481Y-97588586D01*
X190792963Y-97814580D01*
X190672754Y-98068913D01*
X190632096Y-98202961D01*
X190754085Y-98425000D01*
X191897000Y-98425000D01*
X191897000Y-98405000D01*
X192151000Y-98405000D01*
X192151000Y-98425000D01*
X193293915Y-98425000D01*
X193415904Y-98202961D01*
X193375246Y-98068913D01*
X193255037Y-97814580D01*
X193087519Y-97588586D01*
X192879131Y-97399615D01*
X192687318Y-97284579D01*
X192825101Y-97210932D01*
X193043608Y-97031608D01*
X193222932Y-96813101D01*
X193356182Y-96563808D01*
X193438236Y-96293309D01*
X193465943Y-96012000D01*
X193438236Y-95730691D01*
X193356182Y-95460192D01*
X193222932Y-95210899D01*
X193043608Y-94992392D01*
X192825101Y-94813068D01*
X192692142Y-94742000D01*
X192825101Y-94670932D01*
X193043608Y-94491608D01*
X193222932Y-94273101D01*
X193356182Y-94023808D01*
X193438236Y-93753309D01*
X193465943Y-93472000D01*
X193438236Y-93190691D01*
X193356182Y-92920192D01*
X193222932Y-92670899D01*
X193043608Y-92452392D01*
X192930518Y-92359581D01*
X192948482Y-92357812D01*
X193068180Y-92321502D01*
X193178494Y-92262537D01*
X193275185Y-92183185D01*
X193354537Y-92086494D01*
X193413502Y-91976180D01*
X193449812Y-91856482D01*
X193462072Y-91732000D01*
X193462072Y-90132000D01*
X193449812Y-90007518D01*
X193413502Y-89887820D01*
X193354537Y-89777506D01*
X193275185Y-89680815D01*
X193178494Y-89601463D01*
X193068180Y-89542498D01*
X192948482Y-89506188D01*
X192824000Y-89493928D01*
X191224000Y-89493928D01*
X191099518Y-89506188D01*
X190979820Y-89542498D01*
X190869506Y-89601463D01*
X190772815Y-89680815D01*
X190693463Y-89777506D01*
X190634498Y-89887820D01*
X190598188Y-90007518D01*
X190585928Y-90132000D01*
X190585928Y-91732000D01*
X190598188Y-91856482D01*
X190634498Y-91976180D01*
X190693463Y-92086494D01*
X190772815Y-92183185D01*
X190869506Y-92262537D01*
X190979820Y-92321502D01*
X191099518Y-92357812D01*
X191117482Y-92359581D01*
X191004392Y-92452392D01*
X190825068Y-92670899D01*
X190691818Y-92920192D01*
X190609764Y-93190691D01*
X190582057Y-93472000D01*
X186696525Y-93472000D01*
X186798599Y-93281034D01*
X186883513Y-93001111D01*
X186912185Y-92710000D01*
X186883513Y-92418889D01*
X186798599Y-92138966D01*
X186660706Y-91880986D01*
X186475134Y-91654866D01*
X186249014Y-91469294D01*
X186194209Y-91440000D01*
X186249014Y-91410706D01*
X186475134Y-91225134D01*
X186660706Y-90999014D01*
X186798599Y-90741034D01*
X186883513Y-90461111D01*
X186912185Y-90170000D01*
X186883513Y-89878889D01*
X186798599Y-89598966D01*
X186660706Y-89340986D01*
X186475134Y-89114866D01*
X186249014Y-88929294D01*
X186194209Y-88900000D01*
X186249014Y-88870706D01*
X186475134Y-88685134D01*
X186660706Y-88459014D01*
X186798599Y-88201034D01*
X186883513Y-87921111D01*
X186912185Y-87630000D01*
X186890612Y-87410967D01*
X186926531Y-87375048D01*
X186926536Y-87375042D01*
X187315045Y-86986533D01*
X187348818Y-86958816D01*
X187459412Y-86824058D01*
X187541590Y-86670312D01*
X187592196Y-86503489D01*
X187605001Y-86373476D01*
X187605001Y-86373468D01*
X187609282Y-86329999D01*
X187605001Y-86286530D01*
X187605001Y-84948575D01*
X196631928Y-75921649D01*
X196631928Y-76542000D01*
X196644188Y-76666482D01*
X196680498Y-76786180D01*
X196739463Y-76896494D01*
X196818815Y-76993185D01*
X196915506Y-77072537D01*
X197025820Y-77131502D01*
X197145518Y-77167812D01*
X197270000Y-77180072D01*
X198970000Y-77180072D01*
X199094482Y-77167812D01*
X199214180Y-77131502D01*
X199324494Y-77072537D01*
X199421185Y-76993185D01*
X199500537Y-76896494D01*
X199559502Y-76786180D01*
X199583966Y-76705534D01*
X199659731Y-76789588D01*
X199893080Y-76963641D01*
X200155901Y-77088825D01*
X200303110Y-77133476D01*
X200533000Y-77012155D01*
X200533000Y-75819000D01*
X200787000Y-75819000D01*
X200787000Y-77012155D01*
X201016890Y-77133476D01*
X201164099Y-77088825D01*
X201426920Y-76963641D01*
X201660269Y-76789588D01*
X201855178Y-76573355D01*
X202004157Y-76323252D01*
X202101481Y-76048891D01*
X201980814Y-75819000D01*
X200787000Y-75819000D01*
X200533000Y-75819000D01*
X200513000Y-75819000D01*
X200513000Y-75565000D01*
X200533000Y-75565000D01*
X200533000Y-75545000D01*
X200787000Y-75545000D01*
X200787000Y-75565000D01*
X201980814Y-75565000D01*
X202101481Y-75335109D01*
X202027655Y-75126990D01*
X209331928Y-75126990D01*
X209331928Y-76442000D01*
X209331928Y-76442000D01*
G37*
X209331928Y-76442000D02*
X209348992Y-76615254D01*
X209399528Y-76781850D01*
X209481595Y-76935386D01*
X209592038Y-77069962D01*
X209726614Y-77180405D01*
X209810001Y-77224976D01*
X209810000Y-80756512D01*
X209718937Y-80620226D01*
X209574774Y-80476063D01*
X209405256Y-80362795D01*
X209216898Y-80284774D01*
X209016939Y-80245000D01*
X208813061Y-80245000D01*
X208613102Y-80284774D01*
X208424744Y-80362795D01*
X208255226Y-80476063D01*
X208111063Y-80620226D01*
X207997795Y-80789744D01*
X207919774Y-80978102D01*
X207880000Y-81178061D01*
X207880000Y-81381939D01*
X207919774Y-81581898D01*
X207997795Y-81770256D01*
X208111063Y-81939774D01*
X208155000Y-81983711D01*
X208155001Y-82154587D01*
X207978102Y-82189774D01*
X207789744Y-82267795D01*
X207645000Y-82364510D01*
X207500256Y-82267795D01*
X207311898Y-82189774D01*
X207111939Y-82150000D01*
X206908061Y-82150000D01*
X206708102Y-82189774D01*
X206519744Y-82267795D01*
X206350226Y-82381063D01*
X206206063Y-82525226D01*
X206092795Y-82694744D01*
X206014774Y-82883102D01*
X205975000Y-83083061D01*
X205975000Y-83145197D01*
X202582013Y-86538186D01*
X202553009Y-86561989D01*
X202507121Y-86617904D01*
X202458036Y-86677714D01*
X202438491Y-86714280D01*
X202387464Y-86809744D01*
X202344007Y-86953005D01*
X202333010Y-87064658D01*
X202333010Y-87064668D01*
X202329334Y-87101990D01*
X202333010Y-87139312D01*
X202333011Y-103309928D01*
X201867999Y-103309928D01*
X201694745Y-103326992D01*
X201528149Y-103377528D01*
X201374613Y-103459595D01*
X201240038Y-103570038D01*
X201168000Y-103657816D01*
X201095962Y-103570038D01*
X200961387Y-103459595D01*
X200807851Y-103377528D01*
X200641255Y-103326992D01*
X200468001Y-103309928D01*
X199817999Y-103309928D01*
X199644745Y-103326992D01*
X199478149Y-103377528D01*
X199324613Y-103459595D01*
X199190038Y-103570038D01*
X199079595Y-103704613D01*
X199005000Y-103844170D01*
X199005000Y-102913465D01*
X199009281Y-102869999D01*
X199005000Y-102826533D01*
X199005000Y-102826523D01*
X198992195Y-102696510D01*
X198941589Y-102529687D01*
X198859411Y-102375941D01*
X198796938Y-102299818D01*
X198776532Y-102274953D01*
X198776530Y-102274951D01*
X198748817Y-102241183D01*
X198715049Y-102213470D01*
X197856535Y-101354957D01*
X197845226Y-101298102D01*
X197767205Y-101109744D01*
X197653937Y-100940226D01*
X197509774Y-100796063D01*
X197340256Y-100682795D01*
X197151898Y-100604774D01*
X196951939Y-100565000D01*
X196884999Y-100565000D01*
X196884999Y-95654802D01*
X199704802Y-92835000D01*
X199956289Y-92835000D01*
X200000226Y-92878937D01*
X200169744Y-92992205D01*
X200358102Y-93070226D01*
X200558061Y-93110000D01*
X200761939Y-93110000D01*
X200961898Y-93070226D01*
X201150256Y-92992205D01*
X201319774Y-92878937D01*
X201463937Y-92734774D01*
X201577205Y-92565256D01*
X201655226Y-92376898D01*
X201695000Y-92176939D01*
X201695000Y-91973061D01*
X201655226Y-91773102D01*
X201577205Y-91584744D01*
X201463937Y-91415226D01*
X201319774Y-91271063D01*
X201150256Y-91157795D01*
X200961898Y-91079774D01*
X200761939Y-91040000D01*
X200558061Y-91040000D01*
X200358102Y-91079774D01*
X200169744Y-91157795D01*
X200000226Y-91271063D01*
X199956289Y-91315000D01*
X199427325Y-91315000D01*
X199390000Y-91311324D01*
X199352675Y-91315000D01*
X199352667Y-91315000D01*
X199241014Y-91325997D01*
X199097753Y-91369454D01*
X198965724Y-91440026D01*
X198849999Y-91534999D01*
X198826201Y-91563997D01*
X195613997Y-94776202D01*
X195584999Y-94800000D01*
X195561201Y-94828998D01*
X195561200Y-94828999D01*
X195490025Y-94915725D01*
X195419453Y-95047755D01*
X195375997Y-95191016D01*
X195361323Y-95340001D01*
X195365000Y-95377333D01*
X195364999Y-104296198D01*
X193463402Y-106197796D01*
X193465943Y-106172000D01*
X193438236Y-105890691D01*
X193356182Y-105620192D01*
X193222932Y-105370899D01*
X193043608Y-105152392D01*
X192825101Y-104973068D01*
X192692142Y-104902000D01*
X192825101Y-104830932D01*
X193043608Y-104651608D01*
X193222932Y-104433101D01*
X193356182Y-104183808D01*
X193438236Y-103913309D01*
X193465943Y-103632000D01*
X193438236Y-103350691D01*
X193356182Y-103080192D01*
X193222932Y-102830899D01*
X193043608Y-102612392D01*
X192825101Y-102433068D01*
X192692142Y-102362000D01*
X192825101Y-102290932D01*
X193043608Y-102111608D01*
X193222932Y-101893101D01*
X193356182Y-101643808D01*
X193438236Y-101373309D01*
X193465943Y-101092000D01*
X193438236Y-100810691D01*
X193356182Y-100540192D01*
X193222932Y-100290899D01*
X193043608Y-100072392D01*
X192825101Y-99893068D01*
X192687318Y-99819421D01*
X192879131Y-99704385D01*
X193087519Y-99515414D01*
X193255037Y-99289420D01*
X193375246Y-99035087D01*
X193415904Y-98901039D01*
X193293915Y-98679000D01*
X192151000Y-98679000D01*
X192151000Y-98699000D01*
X191897000Y-98699000D01*
X191897000Y-98679000D01*
X190754085Y-98679000D01*
X190632096Y-98901039D01*
X190672754Y-99035087D01*
X190792963Y-99289420D01*
X190960481Y-99515414D01*
X191168869Y-99704385D01*
X191360682Y-99819421D01*
X191222899Y-99893068D01*
X191004392Y-100072392D01*
X190825068Y-100290899D01*
X190691818Y-100540192D01*
X190609764Y-100810691D01*
X190582057Y-101092000D01*
X190609764Y-101373309D01*
X190691818Y-101643808D01*
X190825068Y-101893101D01*
X191004392Y-102111608D01*
X191222899Y-102290932D01*
X191355858Y-102362000D01*
X191222899Y-102433068D01*
X191004392Y-102612392D01*
X190825068Y-102830899D01*
X190691818Y-103080192D01*
X190609764Y-103350691D01*
X190582057Y-103632000D01*
X190609764Y-103913309D01*
X190691818Y-104183808D01*
X190825068Y-104433101D01*
X191004392Y-104651608D01*
X191222899Y-104830932D01*
X191355858Y-104902000D01*
X191222899Y-104973068D01*
X191004392Y-105152392D01*
X190825068Y-105370899D01*
X190735216Y-105539000D01*
X189171711Y-105539000D01*
X189127774Y-105495063D01*
X188958256Y-105381795D01*
X188769898Y-105303774D01*
X188569939Y-105264000D01*
X188366061Y-105264000D01*
X188166102Y-105303774D01*
X187977744Y-105381795D01*
X187808226Y-105495063D01*
X187664063Y-105639226D01*
X187550795Y-105808744D01*
X187472774Y-105997102D01*
X187433000Y-106197061D01*
X187433000Y-106400939D01*
X187472774Y-106600898D01*
X187550795Y-106789256D01*
X187664063Y-106958774D01*
X187808226Y-107102937D01*
X187977744Y-107216205D01*
X188166102Y-107294226D01*
X188366061Y-107334000D01*
X188569939Y-107334000D01*
X188769898Y-107294226D01*
X188958256Y-107216205D01*
X189127774Y-107102937D01*
X189171711Y-107059000D01*
X190895563Y-107059000D01*
X191004392Y-107191608D01*
X191222899Y-107370932D01*
X191355858Y-107442000D01*
X191222899Y-107513068D01*
X191004392Y-107692392D01*
X190825068Y-107910899D01*
X190691818Y-108160192D01*
X190609764Y-108430691D01*
X190582057Y-108712000D01*
X190609764Y-108993309D01*
X190691818Y-109263808D01*
X190716508Y-109309999D01*
X186903321Y-109309999D01*
X186912185Y-109220000D01*
X186883513Y-108928889D01*
X186798599Y-108648966D01*
X186660706Y-108390986D01*
X186475134Y-108164866D01*
X186249014Y-107979294D01*
X186194209Y-107950000D01*
X186249014Y-107920706D01*
X186475134Y-107735134D01*
X186660706Y-107509014D01*
X186798599Y-107251034D01*
X186883513Y-106971111D01*
X186912185Y-106680000D01*
X186883513Y-106388889D01*
X186798599Y-106108966D01*
X186660706Y-105850986D01*
X186475134Y-105624866D01*
X186249014Y-105439294D01*
X186184477Y-105404799D01*
X186301355Y-105335178D01*
X186517588Y-105140269D01*
X186691641Y-104906920D01*
X186816825Y-104644099D01*
X186861476Y-104496890D01*
X186740155Y-104267000D01*
X185547000Y-104267000D01*
X185547000Y-104287000D01*
X185293000Y-104287000D01*
X185293000Y-104267000D01*
X185273000Y-104267000D01*
X185273000Y-104013000D01*
X185293000Y-104013000D01*
X185293000Y-102819186D01*
X185547000Y-102819186D01*
X185547000Y-104013000D01*
X186740155Y-104013000D01*
X186861476Y-103783110D01*
X186816825Y-103635901D01*
X186691641Y-103373080D01*
X186517588Y-103139731D01*
X186301355Y-102944822D01*
X186051252Y-102795843D01*
X185776891Y-102698519D01*
X185547000Y-102819186D01*
X185293000Y-102819186D01*
X185063109Y-102698519D01*
X184788748Y-102795843D01*
X184538645Y-102944822D01*
X184322412Y-103139731D01*
X184277000Y-103200614D01*
X184277000Y-96663407D01*
X184325820Y-96689502D01*
X184445518Y-96725812D01*
X184570000Y-96738072D01*
X186270000Y-96738072D01*
X186394482Y-96725812D01*
X186514180Y-96689502D01*
X186624494Y-96630537D01*
X186721185Y-96551185D01*
X186800537Y-96454494D01*
X186859502Y-96344180D01*
X186895812Y-96224482D01*
X186908072Y-96100000D01*
X186908072Y-94400000D01*
X186895812Y-94275518D01*
X186859502Y-94155820D01*
X186800537Y-94045506D01*
X186721185Y-93948815D01*
X186624494Y-93869463D01*
X186514180Y-93810498D01*
X186445313Y-93789607D01*
X186475134Y-93765134D01*
X186660706Y-93539014D01*
X186696525Y-93472000D01*
X190582057Y-93472000D01*
X190609764Y-93753309D01*
X190691818Y-94023808D01*
X190825068Y-94273101D01*
X191004392Y-94491608D01*
X191222899Y-94670932D01*
X191355858Y-94742000D01*
X191222899Y-94813068D01*
X191004392Y-94992392D01*
X190825068Y-95210899D01*
X190691818Y-95460192D01*
X190609764Y-95730691D01*
X190582057Y-96012000D01*
X190609764Y-96293309D01*
X190691818Y-96563808D01*
X190825068Y-96813101D01*
X191004392Y-97031608D01*
X191222899Y-97210932D01*
X191360682Y-97284579D01*
X191168869Y-97399615D01*
X190960481Y-97588586D01*
X190792963Y-97814580D01*
X190672754Y-98068913D01*
X190632096Y-98202961D01*
X190754085Y-98425000D01*
X191897000Y-98425000D01*
X191897000Y-98405000D01*
X192151000Y-98405000D01*
X192151000Y-98425000D01*
X193293915Y-98425000D01*
X193415904Y-98202961D01*
X193375246Y-98068913D01*
X193255037Y-97814580D01*
X193087519Y-97588586D01*
X192879131Y-97399615D01*
X192687318Y-97284579D01*
X192825101Y-97210932D01*
X193043608Y-97031608D01*
X193222932Y-96813101D01*
X193356182Y-96563808D01*
X193438236Y-96293309D01*
X193465943Y-96012000D01*
X193438236Y-95730691D01*
X193356182Y-95460192D01*
X193222932Y-95210899D01*
X193043608Y-94992392D01*
X192825101Y-94813068D01*
X192692142Y-94742000D01*
X192825101Y-94670932D01*
X193043608Y-94491608D01*
X193222932Y-94273101D01*
X193356182Y-94023808D01*
X193438236Y-93753309D01*
X193465943Y-93472000D01*
X193438236Y-93190691D01*
X193356182Y-92920192D01*
X193222932Y-92670899D01*
X193043608Y-92452392D01*
X192930518Y-92359581D01*
X192948482Y-92357812D01*
X193068180Y-92321502D01*
X193178494Y-92262537D01*
X193275185Y-92183185D01*
X193354537Y-92086494D01*
X193413502Y-91976180D01*
X193449812Y-91856482D01*
X193462072Y-91732000D01*
X193462072Y-90132000D01*
X193449812Y-90007518D01*
X193413502Y-89887820D01*
X193354537Y-89777506D01*
X193275185Y-89680815D01*
X193178494Y-89601463D01*
X193068180Y-89542498D01*
X192948482Y-89506188D01*
X192824000Y-89493928D01*
X191224000Y-89493928D01*
X191099518Y-89506188D01*
X190979820Y-89542498D01*
X190869506Y-89601463D01*
X190772815Y-89680815D01*
X190693463Y-89777506D01*
X190634498Y-89887820D01*
X190598188Y-90007518D01*
X190585928Y-90132000D01*
X190585928Y-91732000D01*
X190598188Y-91856482D01*
X190634498Y-91976180D01*
X190693463Y-92086494D01*
X190772815Y-92183185D01*
X190869506Y-92262537D01*
X190979820Y-92321502D01*
X191099518Y-92357812D01*
X191117482Y-92359581D01*
X191004392Y-92452392D01*
X190825068Y-92670899D01*
X190691818Y-92920192D01*
X190609764Y-93190691D01*
X190582057Y-93472000D01*
X186696525Y-93472000D01*
X186798599Y-93281034D01*
X186883513Y-93001111D01*
X186912185Y-92710000D01*
X186883513Y-92418889D01*
X186798599Y-92138966D01*
X186660706Y-91880986D01*
X186475134Y-91654866D01*
X186249014Y-91469294D01*
X186194209Y-91440000D01*
X186249014Y-91410706D01*
X186475134Y-91225134D01*
X186660706Y-90999014D01*
X186798599Y-90741034D01*
X186883513Y-90461111D01*
X186912185Y-90170000D01*
X186883513Y-89878889D01*
X186798599Y-89598966D01*
X186660706Y-89340986D01*
X186475134Y-89114866D01*
X186249014Y-88929294D01*
X186194209Y-88900000D01*
X186249014Y-88870706D01*
X186475134Y-88685134D01*
X186660706Y-88459014D01*
X186798599Y-88201034D01*
X186883513Y-87921111D01*
X186912185Y-87630000D01*
X186890612Y-87410967D01*
X186926531Y-87375048D01*
X186926536Y-87375042D01*
X187315045Y-86986533D01*
X187348818Y-86958816D01*
X187459412Y-86824058D01*
X187541590Y-86670312D01*
X187592196Y-86503489D01*
X187605001Y-86373476D01*
X187605001Y-86373468D01*
X187609282Y-86329999D01*
X187605001Y-86286530D01*
X187605001Y-84948575D01*
X196631928Y-75921649D01*
X196631928Y-76542000D01*
X196644188Y-76666482D01*
X196680498Y-76786180D01*
X196739463Y-76896494D01*
X196818815Y-76993185D01*
X196915506Y-77072537D01*
X197025820Y-77131502D01*
X197145518Y-77167812D01*
X197270000Y-77180072D01*
X198970000Y-77180072D01*
X199094482Y-77167812D01*
X199214180Y-77131502D01*
X199324494Y-77072537D01*
X199421185Y-76993185D01*
X199500537Y-76896494D01*
X199559502Y-76786180D01*
X199583966Y-76705534D01*
X199659731Y-76789588D01*
X199893080Y-76963641D01*
X200155901Y-77088825D01*
X200303110Y-77133476D01*
X200533000Y-77012155D01*
X200533000Y-75819000D01*
X200787000Y-75819000D01*
X200787000Y-77012155D01*
X201016890Y-77133476D01*
X201164099Y-77088825D01*
X201426920Y-76963641D01*
X201660269Y-76789588D01*
X201855178Y-76573355D01*
X202004157Y-76323252D01*
X202101481Y-76048891D01*
X201980814Y-75819000D01*
X200787000Y-75819000D01*
X200533000Y-75819000D01*
X200513000Y-75819000D01*
X200513000Y-75565000D01*
X200533000Y-75565000D01*
X200533000Y-75545000D01*
X200787000Y-75545000D01*
X200787000Y-75565000D01*
X201980814Y-75565000D01*
X202101481Y-75335109D01*
X202027655Y-75126990D01*
X209331928Y-75126990D01*
X209331928Y-76442000D01*
G36*
X207789744Y-84102205D02*
G01*
X207919999Y-84156159D01*
X207919999Y-89655510D01*
X207815808Y-89599818D01*
X207545309Y-89517764D01*
X207334492Y-89497000D01*
X207193508Y-89497000D01*
X206982691Y-89517764D01*
X206712192Y-89599818D01*
X206462899Y-89733068D01*
X206244392Y-89912392D01*
X206065068Y-90130899D01*
X205931818Y-90380192D01*
X205849764Y-90650691D01*
X205822057Y-90932000D01*
X205849764Y-91213309D01*
X205931818Y-91483808D01*
X206065068Y-91733101D01*
X206244392Y-91951608D01*
X206462899Y-92130932D01*
X206600682Y-92204579D01*
X206408869Y-92319615D01*
X206200481Y-92508586D01*
X206032963Y-92734580D01*
X205912754Y-92988913D01*
X205872096Y-93122961D01*
X205994085Y-93345000D01*
X207137000Y-93345000D01*
X207137000Y-93325000D01*
X207391000Y-93325000D01*
X207391000Y-93345000D01*
X207411000Y-93345000D01*
X207411000Y-93599000D01*
X207391000Y-93599000D01*
X207391000Y-93619000D01*
X207137000Y-93619000D01*
X207137000Y-93599000D01*
X205994085Y-93599000D01*
X205872096Y-93821039D01*
X205912754Y-93955087D01*
X206032963Y-94209420D01*
X206200481Y-94435414D01*
X206408869Y-94624385D01*
X206600682Y-94739421D01*
X206462899Y-94813068D01*
X206244392Y-94992392D01*
X206065068Y-95210899D01*
X205931818Y-95460192D01*
X205849764Y-95730691D01*
X205822057Y-96012000D01*
X205849764Y-96293309D01*
X205931818Y-96563808D01*
X206065068Y-96813101D01*
X206244392Y-97031608D01*
X206462899Y-97210932D01*
X206595858Y-97282000D01*
X206462899Y-97353068D01*
X206244392Y-97532392D01*
X206065068Y-97750899D01*
X205931818Y-98000192D01*
X205849764Y-98270691D01*
X205822057Y-98552000D01*
X205849764Y-98833309D01*
X205931818Y-99103808D01*
X206065068Y-99353101D01*
X206154330Y-99461867D01*
X203853010Y-101763187D01*
X203853010Y-87416791D01*
X207049803Y-84220000D01*
X207111939Y-84220000D01*
X207311898Y-84180226D01*
X207500256Y-84102205D01*
X207645000Y-84005490D01*
X207789744Y-84102205D01*
X207789744Y-84102205D01*
G37*
X207789744Y-84102205D02*
X207919999Y-84156159D01*
X207919999Y-89655510D01*
X207815808Y-89599818D01*
X207545309Y-89517764D01*
X207334492Y-89497000D01*
X207193508Y-89497000D01*
X206982691Y-89517764D01*
X206712192Y-89599818D01*
X206462899Y-89733068D01*
X206244392Y-89912392D01*
X206065068Y-90130899D01*
X205931818Y-90380192D01*
X205849764Y-90650691D01*
X205822057Y-90932000D01*
X205849764Y-91213309D01*
X205931818Y-91483808D01*
X206065068Y-91733101D01*
X206244392Y-91951608D01*
X206462899Y-92130932D01*
X206600682Y-92204579D01*
X206408869Y-92319615D01*
X206200481Y-92508586D01*
X206032963Y-92734580D01*
X205912754Y-92988913D01*
X205872096Y-93122961D01*
X205994085Y-93345000D01*
X207137000Y-93345000D01*
X207137000Y-93325000D01*
X207391000Y-93325000D01*
X207391000Y-93345000D01*
X207411000Y-93345000D01*
X207411000Y-93599000D01*
X207391000Y-93599000D01*
X207391000Y-93619000D01*
X207137000Y-93619000D01*
X207137000Y-93599000D01*
X205994085Y-93599000D01*
X205872096Y-93821039D01*
X205912754Y-93955087D01*
X206032963Y-94209420D01*
X206200481Y-94435414D01*
X206408869Y-94624385D01*
X206600682Y-94739421D01*
X206462899Y-94813068D01*
X206244392Y-94992392D01*
X206065068Y-95210899D01*
X205931818Y-95460192D01*
X205849764Y-95730691D01*
X205822057Y-96012000D01*
X205849764Y-96293309D01*
X205931818Y-96563808D01*
X206065068Y-96813101D01*
X206244392Y-97031608D01*
X206462899Y-97210932D01*
X206595858Y-97282000D01*
X206462899Y-97353068D01*
X206244392Y-97532392D01*
X206065068Y-97750899D01*
X205931818Y-98000192D01*
X205849764Y-98270691D01*
X205822057Y-98552000D01*
X205849764Y-98833309D01*
X205931818Y-99103808D01*
X206065068Y-99353101D01*
X206154330Y-99461867D01*
X203853010Y-101763187D01*
X203853010Y-87416791D01*
X207049803Y-84220000D01*
X207111939Y-84220000D01*
X207311898Y-84180226D01*
X207500256Y-84102205D01*
X207645000Y-84005490D01*
X207789744Y-84102205D01*
G36*
X190979353Y-79071067D02*
G01*
X191068691Y-78855386D01*
X191167553Y-78358374D01*
X191167553Y-77851626D01*
X191068691Y-77354614D01*
X190874766Y-76886439D01*
X190593232Y-76465093D01*
X190234907Y-76106768D01*
X189813561Y-75825234D01*
X189345386Y-75631309D01*
X188848374Y-75532447D01*
X188341626Y-75532447D01*
X187844614Y-75631309D01*
X187376439Y-75825234D01*
X186955093Y-76106768D01*
X186596768Y-76465093D01*
X186315234Y-76886439D01*
X186121309Y-77354614D01*
X186022447Y-77851626D01*
X186022447Y-78358374D01*
X186121309Y-78855386D01*
X186315234Y-79323561D01*
X186596768Y-79744907D01*
X186955093Y-80103232D01*
X187376439Y-80384766D01*
X187844614Y-80578691D01*
X188341626Y-80677553D01*
X188848374Y-80677553D01*
X189345386Y-80578691D01*
X189561067Y-80489353D01*
X186210010Y-83840410D01*
X186051252Y-83745843D01*
X185776891Y-83648519D01*
X185547000Y-83769186D01*
X185547000Y-84963000D01*
X185567000Y-84963000D01*
X185567000Y-85217000D01*
X185547000Y-85217000D01*
X185547000Y-85237000D01*
X185293000Y-85237000D01*
X185293000Y-85217000D01*
X185273000Y-85217000D01*
X185273000Y-84963000D01*
X185293000Y-84963000D01*
X185293000Y-83769186D01*
X185063109Y-83648519D01*
X184788748Y-83745843D01*
X184538645Y-83894822D01*
X184322412Y-84089731D01*
X184277000Y-84150614D01*
X184277000Y-75057000D01*
X194993419Y-75057000D01*
X190979353Y-79071067D01*
X190979353Y-79071067D01*
G37*
X190979353Y-79071067D02*
X191068691Y-78855386D01*
X191167553Y-78358374D01*
X191167553Y-77851626D01*
X191068691Y-77354614D01*
X190874766Y-76886439D01*
X190593232Y-76465093D01*
X190234907Y-76106768D01*
X189813561Y-75825234D01*
X189345386Y-75631309D01*
X188848374Y-75532447D01*
X188341626Y-75532447D01*
X187844614Y-75631309D01*
X187376439Y-75825234D01*
X186955093Y-76106768D01*
X186596768Y-76465093D01*
X186315234Y-76886439D01*
X186121309Y-77354614D01*
X186022447Y-77851626D01*
X186022447Y-78358374D01*
X186121309Y-78855386D01*
X186315234Y-79323561D01*
X186596768Y-79744907D01*
X186955093Y-80103232D01*
X187376439Y-80384766D01*
X187844614Y-80578691D01*
X188341626Y-80677553D01*
X188848374Y-80677553D01*
X189345386Y-80578691D01*
X189561067Y-80489353D01*
X186210010Y-83840410D01*
X186051252Y-83745843D01*
X185776891Y-83648519D01*
X185547000Y-83769186D01*
X185547000Y-84963000D01*
X185567000Y-84963000D01*
X185567000Y-85217000D01*
X185547000Y-85217000D01*
X185547000Y-85237000D01*
X185293000Y-85237000D01*
X185293000Y-85217000D01*
X185273000Y-85217000D01*
X185273000Y-84963000D01*
X185293000Y-84963000D01*
X185293000Y-83769186D01*
X185063109Y-83648519D01*
X184788748Y-83745843D01*
X184538645Y-83894822D01*
X184322412Y-84089731D01*
X184277000Y-84150614D01*
X184277000Y-75057000D01*
X194993419Y-75057000D01*
X190979353Y-79071067D01*
M02*
